<svg width="40" height="40" viewBox="0 0 40 40" fill="none" xmlns="http://www.w3.org/2000/svg">
<circle cx="20" cy="20" r="20" fill="white"/>
<path fill-rule="evenodd" clip-rule="evenodd" d="M14.1965 20.1681C15.3577 20.1681 16.2974 19.2016 16.2974 18.0103C16.2974 16.8191 15.3577 15.8541 14.1965 15.8541C13.0354 15.8541 12.0957 16.8191 12.0957 18.0103C12.0957 19.2016 13.0354 20.1681 14.1965 20.1681Z" fill="black"/>
<path fill-rule="evenodd" clip-rule="evenodd" d="M28.0752 11.9072C29.5306 11.6604 30.5257 10.3252 30.2773 8.88406C30.0289 7.44289 28.6795 6.45891 27.2225 6.70412C25.7671 6.9509 24.7721 8.28608 25.0204 9.72725C25.2704 11.1684 26.6198 12.154 28.0752 11.9072Z" fill="black"/>
<path fill-rule="evenodd" clip-rule="evenodd" d="M32.1539 20.1809L30.9216 19.1748L28.4838 17.3761C28.4838 17.3761 28.8983 14.7105 28.9441 14.2359C28.9916 13.7613 28.9267 13.5746 28.5629 13.4196C28.199 13.2646 25.6268 12.4957 25.6268 12.4957C25.4654 12.4514 25.2898 12.5131 25.1332 12.6286L25.0936 12.5922C23.6794 14.0603 21.9313 16.5408 21.9313 16.5408C21.9313 16.5408 19.8447 20.6776 19.571 21.5493C19.0252 21.7913 16.956 22.4937 16.956 22.4937C16.956 22.4937 15.9974 21.7866 15.1937 21.1744C14.9707 21.0051 14.6986 20.9213 14.4217 20.9007L12.7085 20.7678C12.2766 20.7678 11.9206 21.1048 11.8985 21.5366C11.8985 21.5366 11.7071 24.8208 11.6644 26.0405C11.6549 26.3047 11.8684 26.5293 12.0741 26.7429C12.5076 27.1969 15.0071 29.9606 15.0071 29.9606L14.765 33.4725C14.765 34.0183 15.0134 34.2793 15.4358 34.33C15.836 34.3758 16.1666 34.1417 16.241 33.6102L16.9861 29.9479C16.9734 29.8593 16.9608 29.7802 16.9481 29.6932L15.1115 26.8916L15.17 23.4429L16.5052 24.3177C16.6523 24.381 16.8137 24.4032 16.9734 24.3826C16.9734 24.3826 20.044 23.0316 20.7353 22.731C20.7401 22.7279 20.7448 22.7263 20.7496 22.7247C20.7512 22.7247 20.7527 22.7231 20.7527 22.7231C20.7543 22.7231 20.7543 22.7215 20.7559 22.7199C20.9758 22.6266 21.1846 22.451 21.3523 22.1979C21.694 21.6806 23.6335 17.5295 23.6335 17.5295L23.8945 17.2796L23.2934 20.1398C23.1004 21.5177 23.1463 22.5396 24.4593 23.6707C24.4798 23.6976 24.5036 23.7229 24.5305 23.7482L29.452 27.6446L29.2811 32.6357C29.3286 33.868 29.4504 34.5815 30.2429 34.6638C30.9817 34.7397 31.2 33.2194 31.2506 32.835C31.2506 32.835 31.8613 28.0543 31.9277 27.3804C31.9957 26.7049 32.01 25.9108 31.4721 25.4014L27.639 21.8562L27.9744 20.0749C27.9744 20.0749 28.0108 19.8139 28.0851 19.6272C28.0851 19.6272 28.1595 19.7253 29.0153 20.2568L30.466 21.1396C31.1826 21.5509 32.0306 21.9084 32.358 21.4069C32.6886 20.907 32.4988 20.5226 32.1539 20.1809Z" fill="black"/>
<path fill-rule="evenodd" clip-rule="evenodd" d="M23.0788 24.0491L22.8352 27.3158C22.8352 27.3158 21.8227 30.1697 21.1077 31.845C20.5682 33.1153 20.3357 34.0313 20.7834 34.2606C21.47 34.6103 22.3052 33.8256 23.1389 32.3781C24.5342 29.953 25.2556 28.7412 25.5166 28.1511L25.8836 26.6119C25.8836 26.6119 23.4553 25.0837 23.0788 24.0491Z" fill="black"/>
<path fill-rule="evenodd" clip-rule="evenodd" d="M10.7804 26.1558C10.8373 25.5167 11.2581 21.478 11.2581 21.478C11.3894 19.7552 9.29174 20.5589 8.5498 21.7485C7.80944 22.9397 7.03903 24.7099 7.12129 25.9027C7.19881 26.9974 8.2255 27.1794 9.19524 27.2648C10.1666 27.3486 10.7234 26.795 10.7804 26.1558Z" fill="black"/>
<path fill-rule="evenodd" clip-rule="evenodd" d="M11.5941 27.413V27.5601L11.3995 29.6372L9.2987 32.3392C8.93327 32.7331 8.88897 33.1697 9.1848 33.4561C9.43159 33.6949 9.90143 33.7993 10.2669 33.4054L13.0574 30.7161C13.203 30.5595 13.2932 30.3586 13.3121 30.145L13.5115 29.4727L13.4909 29.4252C13.4909 29.4252 12.0956 28.0853 11.5941 27.413Z" fill="black"/>
</svg>
