<?xml version="1.0" encoding="UTF-8"?>
<svg width="32px" height="32px" viewBox="0 0 32 32" version="1.1" xmlns="http://www.w3.org/2000/svg" xmlns:xlink="http://www.w3.org/1999/xlink">
    <title>Yandex_Zen_logo_icon</title>
    <g id="Page-1" stroke="none" stroke-width="1" fill="none" fill-rule="evenodd">
        <g id="Yandex_Zen_logo_icon" transform="translate(2.000000, 2.000000)" fill-rule="nonzero">
            <path d="M14.0098713,-1.00001567 L15.7853535,-0.962380824 L17.0390852,-0.951076769 L18.0481719,-0.930778287 L19.0151495,-0.896958598 L19.7605745,-0.857602597 C22.9272351,-0.661025715 25.2422732,-0.0569777224 26.6756913,1.33125164 C28.1232996,2.81797781 28.7217114,5.22858132 28.9064378,8.47657514 L28.9064378,8.47657514 L28.9424954,9.23005036 L28.9771556,10.4153961 L28.9900211,11.2410528 L28.9995149,12.9578654 L29.0002406,14.0019403 L28.9967901,15.7707044 L28.9899434,16.620806 L28.9771818,17.44185 L28.9564094,18.2422893 L28.9256999,19.0180825 L28.883002,19.768221 C28.6783753,22.8273853 28.069616,25.1135484 26.6974873,26.5268775 C25.2107945,27.9709145 22.8168408,28.6302456 19.5269752,28.86357 L19.5269752,28.86357 L18.7602383,28.910415 L17.7523426,28.9528189 L16.7006138,28.9797284 L15.8222191,28.9923298 L14.4629855,28.9999978 L12.6162227,28.9961124 L11.7274921,28.9867885 L10.6634156,28.9652662 L9.63590382,28.9293838 L8.47045696,28.8634333 C5.18666404,28.6312074 2.79027464,27.9719525 1.32340986,26.5477752 C-0.123693076,25.0578475 -0.721789965,22.6418395 -0.906443596,19.3870021 L-0.906443596,19.3870021 L-0.942423314,18.6332715 L-0.9679124,17.8451362 L-0.984480956,17.0316247 L-0.996817496,15.7657839 L-0.999514671,14.893077 L-0.996774401,12.0822986 L-0.984480264,10.826228 L-0.967910721,10.0146993 L-0.942418532,9.22843612 L-0.905966784,8.46758074 C-0.721711405,5.22858132 -0.123299638,2.81797781 1.3033855,1.35212315 C2.6832443,0.0151567325 4.83484034,-0.611610766 7.7496618,-0.845625185 L7.7496618,-0.845625185 L8.49346126,-0.897144963 L9.46691517,-0.943612448 L10.4839833,-0.973432936 L11.3348684,-0.987878449 L12.6500532,-0.998004994 L14.0098713,-1.00001567 Z" id="Path" stroke="#FD5930" stroke-width="2" fill="#FFFFFF"></path>
            <path d="M28,13.85 C21.8,13.65 18.97,13.5 16.7,11.3 C14.5,9.03 14.34,6.2 14.15,0 L13.85,0 C13.65,6.2 13.5,9.03 11.3,11.3 C9.03,13.5 6.2,13.66 0,13.85 L0,14.15 C6.2,14.35 9.03,14.5 11.3,16.7 C13.5,18.97 13.66,21.8 13.85,28 L14.15,28 C14.35,21.8 14.5,18.97 16.7,16.7 C18.97,14.5 21.8,14.34 28,14.15 L28,13.85 Z" id="Path" fill="#FD5930"></path>
        </g>
    </g>
</svg>