<svg width="40" height="40" viewBox="0 0 40 40" fill="none" xmlns="http://www.w3.org/2000/svg">
<circle cx="20" cy="20" r="20" fill="white"/>
<mask id="path-2-inside-1_1138_8036" fill="white">
<path d="M31.7682 16.8789C31.7682 16.8789 31.3332 13.1214 28.3007 12.4148L28.3074 10.4789C28.3074 9.47809 27.4924 8.66309 26.4899 8.66309C25.4899 8.66309 24.674 9.47809 24.674 10.4739V12.2906H12.6832C8.67401 12.5239 8.21484 16.7156 8.21484 16.7156V22.9522C8.21484 22.9522 8.67818 26.4756 12.7373 27.2872H14.7907C15.009 27.2872 15.2182 27.2014 15.374 27.0489L19.0757 23.4222C19.0757 23.4222 19.2807 23.0756 19.9915 23.0606C19.9915 23.0606 20.479 23.0672 20.8682 23.4414L24.6307 27.0539C24.7149 27.1347 24.8165 27.1922 24.9249 27.2314V27.8156H22.1582V26.4572C22.0832 25.9106 21.6174 25.8072 21.3999 25.7822H19.8499C19.5999 25.8072 19.0582 25.9322 19.0582 26.5322V29.0989C19.0582 30.1656 19.9415 31.0656 20.9915 31.0656H26.1332C27.1832 31.0656 28.0415 30.2072 28.0415 29.1572V27.0739C31.514 25.9347 31.784 22.9472 31.784 22.9472L31.7682 16.8789ZM28.6582 21.4039C28.6582 21.4039 28.5182 22.8597 27.0365 23.5839C27.0365 23.5839 26.1165 24.0797 25.599 23.6431L22.0849 20.6789C21.2749 19.9264 19.999 19.9264 19.999 19.9264C18.7882 19.9631 17.9824 20.6797 17.9824 20.6797L14.4682 23.6439C13.9507 24.0806 13.0307 23.5847 13.0307 23.5847C11.549 22.8606 11.409 21.4048 11.409 21.4048V17.9389C11.409 17.9389 11.5873 15.1689 14.759 15.3131H25.3074C28.4799 15.1689 28.6582 17.9389 28.6582 17.9389V21.4039Z"/>
</mask>
<path d="M31.7682 16.8789C31.7682 16.8789 31.3332 13.1214 28.3007 12.4148L28.3074 10.4789C28.3074 9.47809 27.4924 8.66309 26.4899 8.66309C25.4899 8.66309 24.674 9.47809 24.674 10.4739V12.2906H12.6832C8.67401 12.5239 8.21484 16.7156 8.21484 16.7156V22.9522C8.21484 22.9522 8.67818 26.4756 12.7373 27.2872H14.7907C15.009 27.2872 15.2182 27.2014 15.374 27.0489L19.0757 23.4222C19.0757 23.4222 19.2807 23.0756 19.9915 23.0606C19.9915 23.0606 20.479 23.0672 20.8682 23.4414L24.6307 27.0539C24.7149 27.1347 24.8165 27.1922 24.9249 27.2314V27.8156H22.1582V26.4572C22.0832 25.9106 21.6174 25.8072 21.3999 25.7822H19.8499C19.5999 25.8072 19.0582 25.9322 19.0582 26.5322V29.0989C19.0582 30.1656 19.9415 31.0656 20.9915 31.0656H26.1332C27.1832 31.0656 28.0415 30.2072 28.0415 29.1572V27.0739C31.514 25.9347 31.784 22.9472 31.784 22.9472L31.7682 16.8789ZM28.6582 21.4039C28.6582 21.4039 28.5182 22.8597 27.0365 23.5839C27.0365 23.5839 26.1165 24.0797 25.599 23.6431L22.0849 20.6789C21.2749 19.9264 19.999 19.9264 19.999 19.9264C18.7882 19.9631 17.9824 20.6797 17.9824 20.6797L14.4682 23.6439C13.9507 24.0806 13.0307 23.5847 13.0307 23.5847C11.549 22.8606 11.409 21.4048 11.409 21.4048V17.9389C11.409 17.9389 11.5873 15.1689 14.759 15.3131H25.3074C28.4799 15.1689 28.6582 17.9389 28.6582 17.9389V21.4039Z" fill="black" stroke="white" mask="url(#path-2-inside-1_1138_8036)"/>
</svg>
