<?xml version="1.0" encoding="UTF-8"?>
<svg width="28px" height="28px" viewBox="0 0 28 28" version="1.1" xmlns="http://www.w3.org/2000/svg" xmlns:xlink="http://www.w3.org/1999/xlink">
    <title>sport</title>
    <g id="Page-1" stroke="none" stroke-width="1" fill="none" fill-rule="evenodd">
        <g id="sport" fill-rule="nonzero">
            <path d="M14,28 C6.268,28 0,21.732 0,14 C0,6.268 6.268,0 14,0 C21.732,0 28,6.268 28,14 C28,21.732 21.732,28 14,28 Z" id="Path" fill="#FFFFFF"></path>
            <g id="Group" transform="translate(14.000000, 14.000000) scale(-1, 1) rotate(-180.000000) translate(-14.000000, -14.000000) translate(5.000000, 5.000000)" fill="#6B6B6B">
                <path d="M2.76443418,17.3091301 L2.76443418,16.6182601 L2.28360277,16.6113376 C1.8595843,16.6057996 1.78614319,16.601646 1.66836028,16.5753404 C1.2665127,16.4867318 0.929792148,16.3108992 0.648498845,16.0436889 C0.333949192,15.741866 0.12886836,15.3749712 0.0304849885,14.9346973 L1.59872116e-14,14.7948619 L1.59872116e-14,8.30843781 L1.59872116e-14,1.82201369 L0.0304849885,1.68217829 C0.123325635,1.26682563 0.297921478,0.935928006 0.581986143,0.639643104 C0.904849885,0.303207446 1.36351039,0.0733789708 1.82909931,0.0166141066 C2.00646651,-0.00553803554 15.9935335,-0.00553803554 16.1709007,0.0166141066 C16.6364896,0.0733789708 17.0951501,0.303207446 17.4180139,0.639643104 C17.7020785,0.935928006 17.8766744,1.26682563 17.969515,1.68217829 L18,1.82201369 L18,8.30843781 L18,14.7948619 L17.969515,14.9346973 C17.8711316,15.3749712 17.6660508,15.741866 17.3515012,16.0436889 C17.0702079,16.3108992 16.7334873,16.4867318 16.3316397,16.5753404 C16.2138568,16.601646 16.1404157,16.6057996 15.7177829,16.6113376 L15.2355658,16.6182601 L15.2355658,17.3091301 L15.2355658,18 L14.5427252,18 L13.8498845,18 L13.8498845,17.3077456 L13.8498845,16.6154911 L9,16.6154911 L4.15011547,16.6154911 L4.15011547,17.3077456 L4.15011547,18 L3.45727483,18 L2.76443418,18 L2.76443418,17.3091301 Z M2.76443418,14.5387278 L2.76443418,13.8464733 L3.45727483,13.8464733 L4.15011547,13.8464733 L4.15011547,14.5387278 L4.15011547,15.2309822 L9,15.2309822 L13.8498845,15.2309822 L13.8498845,14.5387278 L13.8498845,13.8464733 L14.5427252,13.8464733 L15.2355658,13.8464733 L15.2355658,14.5387278 L15.2355658,15.2309822 L15.6152425,15.2309822 C15.8230947,15.2309822 16.0281755,15.2254442 16.0683603,15.2171371 C16.2526559,15.1825244 16.4466513,15.03992 16.5353349,14.8737789 C16.6212471,14.7131759 16.6212471,14.7228675 16.6212471,13.5391124 L16.6212471,12.4619645 L9,12.4619645 L1.37875289,12.4619645 L1.37875289,13.5391124 C1.37875289,14.7228675 1.37875289,14.7131759 1.46466513,14.8737789 C1.55057737,15.0357665 1.74595843,15.1825244 1.91916859,15.2157526 C1.95381062,15.2226752 2.15750577,15.2282132 2.37367206,15.2295977 L2.76443418,15.2309822 L2.76443418,14.5387278 Z M16.6213137,6.54041997 C16.6213137,1.54788093 16.6267898,1.91477579 16.5367206,1.7458657 C16.4508083,1.58526267 16.2734411,1.4495808 16.0946882,1.40804553 C16.0143187,1.38866241 15.2327945,1.38589339 9,1.38589339 C2.76720554,1.38589339 1.98568129,1.38866241 1.90531178,1.40804553 C1.72655889,1.4495808 1.54919169,1.58526267 1.46327945,1.7458657 C1.37321016,1.91477579 1.37868632,1.54788093 1.37868632,6.54041997 L1.37868632,11.0774556 L9,11.0774556 L16.6213137,11.0774556 L16.6213137,6.54041997 Z" id="Shape"></path>
                <g id="Group-2" transform="translate(3.000000, 2.842105)">
                    <polygon id="Path" points="2.76923077 6.15789474 2.76923077 5.68421053 3.23076923 5.68421053 3.69230769 5.68421053 3.69230769 6.15789474 3.69230769 6.63157895 3.23076923 6.63157895 2.76923077 6.63157895"></polygon>
                    <polygon id="Path" points="5.53846154 6.15789474 5.53846154 5.68421053 6 5.68421053 6.46153846 5.68421053 6.46153846 6.15789474 6.46153846 6.63157895 6 6.63157895 5.53846154 6.63157895"></polygon>
                    <polygon id="Path" points="8.30769231 6.15789474 8.30769231 5.68421053 8.76923077 5.68421053 9.23076923 5.68421053 9.23076923 6.15789474 9.23076923 6.63157895 8.76923077 6.63157895 8.30769231 6.63157895"></polygon>
                    <polygon id="Path" points="11.0769231 6.15789474 11.0769231 5.68421053 11.5384615 5.68421053 12 5.68421053 12 6.15789474 12 6.63157895 11.5384615 6.63157895 11.0769231 6.63157895"></polygon>
                    <polygon id="Path" points="1.72010204e-14 3.31578947 1.72010204e-14 2.84210526 0.461538462 2.84210526 0.923076923 2.84210526 0.923076923 3.31578947 0.923076923 3.78947368 0.461538462 3.78947368 1.72010204e-14 3.78947368"></polygon>
                    <polygon id="Path" points="2.76923077 3.31578947 2.76923077 2.84210526 3.23076923 2.84210526 3.69230769 2.84210526 3.69230769 3.31578947 3.69230769 3.78947368 3.23076923 3.78947368 2.76923077 3.78947368"></polygon>
                    <polygon id="Path" points="5.53846154 3.31578947 5.53846154 2.84210526 6 2.84210526 6.46153846 2.84210526 6.46153846 3.31578947 6.46153846 3.78947368 6 3.78947368 5.53846154 3.78947368"></polygon>
                    <polygon id="Path" points="8.30769231 3.31578947 8.30769231 2.84210526 8.76923077 2.84210526 9.23076923 2.84210526 9.23076923 3.31578947 9.23076923 3.78947368 8.76923077 3.78947368 8.30769231 3.78947368"></polygon>
                    <polygon id="Path" points="11.0769231 3.31578947 11.0769231 2.84210526 11.5384615 2.84210526 12 2.84210526 12 3.31578947 12 3.78947368 11.5384615 3.78947368 11.0769231 3.78947368"></polygon>
                    <polygon id="Path" points="1.68618874e-14 0.473684211 1.68618874e-14 0 0.461538462 0 0.923076923 0 0.923076923 0.473684211 0.923076923 0.947368421 0.461538462 0.947368421 1.68618874e-14 0.947368421"></polygon>
                    <polygon id="Path" points="2.76923077 0.473684211 2.76923077 0 3.23076923 0 3.69230769 0 3.69230769 0.473684211 3.69230769 0.947368421 3.23076923 0.947368421 2.76923077 0.947368421"></polygon>
                    <polygon id="Path" points="5.53846154 0.473684211 5.53846154 0 6 0 6.46153846 0 6.46153846 0.473684211 6.46153846 0.947368421 6 0.947368421 5.53846154 0.947368421"></polygon>
                </g>
            </g>
        </g>
    </g>
</svg>