<?xml version="1.0" encoding="UTF-8"?>
<svg width="28px" height="28px" viewBox="0 0 28 28" version="1.1" xmlns="http://www.w3.org/2000/svg" xmlns:xlink="http://www.w3.org/1999/xlink">
    <!-- Generator: Sketch 52.1 (67048) - http://www.bohemiancoding.com/sketch -->
    <title>icon-sup-grey</title>
    <desc>Created with Sketch.</desc>
    <g id="Page-1" stroke="none" stroke-width="1" fill="none" fill-rule="evenodd">
        <g id="icon-sup-grey">
            <circle id="Oval" fill="#757575" cx="13.42" cy="13.85" r="11.33"></circle>
            <path d="M16.27,8.86 L16.39,8.79 L15.92,8 L15.92,8.1 C15.7896733,8.4639785 15.5967748,8.80239689 15.35,9.1 C15.2107448,9.19885455 15.039392,9.24169276 14.87,9.22 L14.72,9.22 L15.09,9.58 L16.27,8.86 Z" id="Path" fill="#FFFFFF"></path>
            <path d="M14,0 C6.2680135,-4.73447626e-16 9.46895252e-16,6.2680135 0,14 C-9.46895252e-16,21.7319865 6.2680135,28 14,28 C21.7319865,28 28,21.7319865 28,14 C28,10.2869691 26.5250042,6.72601436 23.8994949,4.10050506 C21.2739856,1.47499577 17.7130309,2.27357568e-16 14,0 Z M12.56,5.47 C13.029442,5.47 13.41,5.85055796 13.41,6.32 C13.41,6.78944204 13.029442,7.17 12.56,7.17 C12.090558,7.17 11.71,6.78944204 11.71,6.32 C11.71,5.85055796 12.090558,5.47 12.56,5.47 Z M11.13,7.82 C11.1850432,7.58528697 11.3731582,7.4050101 11.61,7.36 L13,7.74 L14.83,8.24 L15.44,7.24 L15.44,7.17 L15,6.39 L15.31,6.21 L15.68,6.86 L15.89,6.53 C15.8867172,6.50678213 15.8867172,6.48321787 15.89,6.46 C15.9195046,6.42696301 15.9575763,6.40273555 16,6.39 C16.0643583,6.3513908 16.1418829,6.34131136 16.2139742,6.36217992 C16.2860656,6.38304847 16.3462181,6.43298178 16.38,6.5 C16.4198276,6.58559378 16.4198276,6.68440622 16.38,6.77 C16.38,6.77 16.25,7.13 16.07,7.56 L16.68,8.62 L16.77,8.62 L17.19,8.39 L17.27,8.34 L17.38,8.34 C17.5677768,8.34 17.72,8.49222319 17.72,8.68 C17.7209122,8.79549508 17.6647867,8.90400435 17.57,8.97 C17.57,8.97 17.37,9.15 17.07,9.39 L19.43,13.47 C19.7573928,13.3651508 20.1148273,13.4870035 20.31,13.77 L21.85,15.71 C21.969609,16.1250515 21.8092081,16.56999 21.4522775,16.8132484 C21.095347,17.0565067 20.6225691,17.0430977 20.28,16.78 L19.05,14.62 C18.8170051,14.3152589 18.8515199,13.8838231 19.13,13.62 L16.79,9.62 L16.27,10.04 C15.9199676,10.3547684 15.5171204,10.6052785 15.08,10.78 C14.8708451,10.795475 14.6626807,10.7390236 14.49,10.62 L13,9.54 L12.63,10.82 L10.21,10.82 L11.13,7.82 Z M21.78,19.64 L6.22,19.64 L3.13,17.84 C3.12084945,17.8141183 3.12084945,17.7858817 3.13,17.76 C3.13,17.6992487 3.17924868,17.65 3.24,17.65 L6.24,18.77 L7.9,18.77 C7.89063293,18.7103656 7.89063293,18.6496344 7.9,18.59 C7.90703642,18.4984136 7.94193227,18.4111739 8,18.34 L9.68,14.77 L10,12.77 L11.28,14 L10.84,15.45 L8.69,18.75 L12.9,18.75 C12.8697038,18.6946471 12.852593,18.6330482 12.85,18.57 C12.8461998,18.536775 12.8461998,18.503225 12.85,18.47 L13.29,15 C12.4158173,14.3354311 11.5779448,13.6244078 10.78,12.87 C10.2920208,12.4982454 10.055886,11.8827463 10.17,11.28 L10.17,11.18 L12.55,11.18 L12.33,11.94 C12.33,11.94 13.72,13.27 14.21,13.76 C14.4976397,14.0477251 14.6084035,14.4678635 14.5,14.86 L13.69,18.64 C13.6993671,18.6996344 13.6993671,18.7603656 13.69,18.82 L21.79,18.82 L24.79,17.7 C24.8507513,17.7 24.9,17.7492487 24.9,17.81 C24.9091506,17.8358817 24.9091506,17.8641183 24.9,17.89 L21.78,19.64 Z" id="Shape" fill="#FFFFFF"></path>
            <path d="M16.27,8.86 L16.39,8.79 L15.92,8 L15.92,8.1 C15.7896733,8.4639785 15.5967748,8.80239689 15.35,9.1 C15.2107448,9.19885455 15.039392,9.24169276 14.87,9.22 L14.72,9.22 L15.09,9.58 L16.27,8.86 Z" id="Path" fill="#FFFFFF"></path>
            <path d="M14,0 C6.2680135,-4.73447626e-16 9.46895252e-16,6.2680135 0,14 C-9.46895252e-16,21.7319865 6.2680135,28 14,28 C21.7319865,28 28,21.7319865 28,14 C28,10.2869691 26.5250042,6.72601436 23.8994949,4.10050506 C21.2739856,1.47499577 17.7130309,2.27357568e-16 14,0 Z M12.56,5.47 C13.029442,5.47 13.41,5.85055796 13.41,6.32 C13.41,6.78944204 13.029442,7.17 12.56,7.17 C12.090558,7.17 11.71,6.78944204 11.71,6.32 C11.71,5.85055796 12.090558,5.47 12.56,5.47 Z M11.13,7.82 C11.1850432,7.58528697 11.3731582,7.4050101 11.61,7.36 L13,7.74 L14.83,8.24 L15.44,7.24 L15.44,7.17 L15,6.39 L15.31,6.21 L15.68,6.86 L15.89,6.53 C15.8867172,6.50678213 15.8867172,6.48321787 15.89,6.46 C15.9195046,6.42696301 15.9575763,6.40273555 16,6.39 C16.0643583,6.3513908 16.1418829,6.34131136 16.2139742,6.36217992 C16.2860656,6.38304847 16.3462181,6.43298178 16.38,6.5 C16.4198276,6.58559378 16.4198276,6.68440622 16.38,6.77 C16.38,6.77 16.25,7.13 16.07,7.56 L16.68,8.62 L16.77,8.62 L17.19,8.39 L17.27,8.34 L17.38,8.34 C17.5677768,8.34 17.72,8.49222319 17.72,8.68 C17.7209122,8.79549508 17.6647867,8.90400435 17.57,8.97 C17.57,8.97 17.37,9.15 17.07,9.39 L19.43,13.47 C19.7573928,13.3651508 20.1148273,13.4870035 20.31,13.77 L21.85,15.71 C21.969609,16.1250515 21.8092081,16.56999 21.4522775,16.8132484 C21.095347,17.0565067 20.6225691,17.0430977 20.28,16.78 L19.05,14.62 C18.8170051,14.3152589 18.8515199,13.8838231 19.13,13.62 L16.79,9.62 L16.27,10.04 C15.9199676,10.3547684 15.5171204,10.6052785 15.08,10.78 C14.8708451,10.795475 14.6626807,10.7390236 14.49,10.62 L13,9.54 L12.63,10.82 L10.21,10.82 L11.13,7.82 Z M21.78,19.64 L6.22,19.64 L3.13,17.84 C3.12084945,17.8141183 3.12084945,17.7858817 3.13,17.76 C3.13,17.6992487 3.17924868,17.65 3.24,17.65 L6.24,18.77 L7.9,18.77 C7.89063293,18.7103656 7.89063293,18.6496344 7.9,18.59 C7.90703642,18.4984136 7.94193227,18.4111739 8,18.34 L9.68,14.77 L10,12.77 L11.28,14 L10.84,15.45 L8.69,18.75 L12.9,18.75 C12.8697038,18.6946471 12.852593,18.6330482 12.85,18.57 C12.8461998,18.536775 12.8461998,18.503225 12.85,18.47 L13.29,15 C12.4158173,14.3354311 11.5779448,13.6244078 10.78,12.87 C10.2920208,12.4982454 10.055886,11.8827463 10.17,11.28 L10.17,11.18 L12.55,11.18 L12.33,11.94 C12.33,11.94 13.72,13.27 14.21,13.76 C14.4976397,14.0477251 14.6084035,14.4678635 14.5,14.86 L13.69,18.64 C13.6993671,18.6996344 13.6993671,18.7603656 13.69,18.82 L21.79,18.82 L24.79,17.7 C24.8507513,17.7 24.9,17.7492487 24.9,17.81 C24.9091506,17.8358817 24.9091506,17.8641183 24.9,17.89 L21.78,19.64 Z" id="Shape" fill="#FFFFFF"></path>
        </g>
    </g>
</svg>