<svg xmlns="http://www.w3.org/2000/svg" viewBox="0 0 28 28"><defs><style>.cls-1{fill:#fff;fill-rule:evenodd;}</style></defs><title>
kayak</title><g id="Слой_2" data-name="Слой 2"><g id="Слой_1-2" data-name="Слой 1"><circle cx="14.06" cy="13.85" r="11.33"/><path class="cls-1" d="M21.26,13.05l1-1.73a3.23,3.23,0,0,1-.27.23l-.56.44a4.08,4.08,0,0,1-1.27.79.93.93,0,0,1-.62-.17l-1.65-1.1-.49,1.69h3.47l-1.43,2.49a1.3,1.3,0,0,0-1.32.52c-.11.14-.27.32-.41.48-1.94-.17-3.5-1.15-5.41-1.67l-.37.64c1.91.45,3.45,1.41,5.29,1.71A1.42,1.42,0,0,0,18,19a1.44,1.44,0,0,0,1,0,1.51,1.51,0,0,1-.9-.12,1.4,1.4,0,0,1-.75-1.48h0a.19.19,0,0,1,0-.09s.26-.3.5-.6l.25-.31a1.33,1.33,0,0,1,1.41-.49l1.54-2.67Z"/><path class="cls-1" d="M14,0A14,14,0,1,0,28,14,14,14,0,0,0,14,0Zm3.83,6.85a1,1,0,1,1-1,1A1,1,0,0,1,17.83,6.85Zm-8.14,0a1,1,0,1,1-1,1A1,1,0,0,1,9.69,6.85ZM9,17.72a14.61,14.61,0,0,0-4.53,1.13.12.12,0,0,1-.14-.19,12.7,12.7,0,0,1,1.25-1.3A6.89,6.89,0,0,1,10,15.42a9.11,9.11,0,0,1,1.31.12l-.09.15a1.31,1.31,0,0,0-1.32.52c-.26.34-.82.93-.82.93A1.17,1.17,0,0,0,9,17.72ZM23.7,15.63c-.59,1.21-2.33,4.09-5.71,4.09-2.79,0-3.92-1-6.18-1.59l-.09.39a1.3,1.3,0,0,1-1.91.21h0a1.5,1.5,0,0,1-.57-1,.77.77,0,0,1,.07-.4s.49-.57.75-.91a1.35,1.35,0,0,1,1.41-.49h0l.17-.3L12,15l1-1.75h0l.07-.14,1-1.73-.26.22-.57.44a4.2,4.2,0,0,1-1.27.79,1,1,0,0,1-.62-.17l-1.65-1.1L9.26,13.2H12.7l-1,1.68A8.25,8.25,0,0,0,10,14.69a6.89,6.89,0,0,0-4.47,1.94,1.77,1.77,0,0,1-.86-1.53V15A1.78,1.78,0,0,1,6.49,13.2h.22L7.8,9.68a.64.64,0,0,1,.51-.5l1.77.5L12,11.51l1.3-.72.57-.31.44-.25a.19.19,0,0,1,.09-.05h0l.12,0a.38.38,0,0,1,.37.37.35.35,0,0,1-.14.28h0L13.34,13.2h1.5l1.1-3.52a.64.64,0,0,1,.51-.5l1.77.5,1.89,1.83,1.31-.72.56-.31.44-.25.09-.05h0l.12,0a.37.37,0,0,1,.37.37.38.38,0,0,1-.15.3h0l-1.45,2.5A1.78,1.78,0,0,1,22.55,15v.12a2.22,2.22,0,0,1,0,.37,8.46,8.46,0,0,1-2.43,1,1.81,1.81,0,0,1,.06.72,8.74,8.74,0,0,0,2.37-1,8.61,8.61,0,0,0,1-.72A.13.13,0,0,1,23.7,15.63Z"/></g></g></svg>