<?xml version="1.0" encoding="UTF-8"?>
<svg width="28px" height="28px" viewBox="0 0 28 28" version="1.1" xmlns="http://www.w3.org/2000/svg" xmlns:xlink="http://www.w3.org/1999/xlink">
    <title>sport</title>
    <g id="Page-1" stroke="none" stroke-width="1" fill="none" fill-rule="evenodd">
        <g id="sport" fill-rule="nonzero">
            <path d="M14,28 C6.268,28 0,21.732 0,14 C0,6.268 6.268,0 14,0 C21.732,0 28,6.268 28,14 C28,21.732 21.732,28 14,28 Z" id="Path" fill="#FFFFFF"></path>
            <g id="Group" transform="translate(14.000000, 14.000000) scale(-1, 1) rotate(-180.000000) translate(-14.000000, -14.000000) translate(5.000000, 4.000000)" fill="#6B6B6B">
                <path d="M8.40745226,19.9233242 C8.03930343,19.7938543 7.84841145,19.6780129 7.59616133,19.4327016 C7.22119493,19.0715489 7.04734688,18.7001749 7.00985024,18.2095523 C6.97576238,17.7495937 7.02689416,17.4668043 7.21437736,17.0920232 C7.35072878,16.8228622 7.41208691,16.7410918 7.61661404,16.5571083 C7.82454995,16.3731249 8.25405691,16.0903355 8.25405691,16.1380349 C8.25405691,16.1482562 8.33927655,16.1244065 8.44154011,16.0869284 C9.03807756,15.8790952 9.81187185,16.0528574 10.3197809,16.512816 C10.6981561,16.8535261 10.8958656,17.2385285 10.984494,17.793886 C11.0594873,18.2913228 10.858369,18.9148223 10.4697674,19.3713738 C10.3163721,19.5485431 9.91413541,19.8108898 9.64484136,19.9062887 C9.48462845,19.9642094 9.3312331,19.984652 9.03807756,19.9948733 C8.68697266,20.0085017 8.62220574,19.9982804 8.40745226,19.9233242 Z" id="Path"></path>
                <path d="M0.643423138,17.9490689 C0.42155309,17.8691726 0.193343899,17.6422672 0.0824088748,17.3961868 L1.93692268e-14,17.2108274 L0.00950871632,15.443522 L0.0190174326,13.6762166 L0.110935024,13.5100324 C0.22503962,13.305498 0.351822504,13.1808598 0.554675119,13.0753967 C0.690966719,13.0018922 0.738510301,12.9955005 1.01426307,13.0018922 C1.2836767,13.0082839 1.33438986,13.0178714 1.46751189,13.0977677 C1.69572108,13.2319934 1.8637084,13.4429195 1.93660856,13.6858042 C1.99683043,13.8775552 2,13.9830183 2,15.4978515 C2,17.0126847 1.99683043,17.1181477 1.93660856,17.3098988 C1.81299525,17.7157718 1.4770206,17.9746357 1.03961965,17.9970067 C0.87163233,18.0065942 0.76703645,17.9938108 0.643423138,17.9490689 Z" id="Path"></path>
                <path d="M16.7032258,17.9634575 C16.4096774,17.8676379 16.2290323,17.7079385 16.0903226,17.4172856 L16,17.2256463 L16,15.5008927 L16,13.7761391 L16.0903226,13.5813058 C16.1967742,13.3577267 16.3516129,13.1948333 16.5709677,13.0830437 C16.7,13.0159699 16.7709677,13.003194 17.0129032,13 C17.2612903,13 17.3225806,13.009582 17.4548387,13.0798497 C17.6612903,13.1852513 17.7935484,13.3130108 17.9064516,13.5142321 L18,13.6803195 L18,15.4881167 L18,17.295914 L17.9064516,17.4747774 C17.7387097,17.8037581 17.4580645,17.9794275 17.0645161,17.9985914 C16.9322581,18.0049794 16.783871,17.9890094 16.7032258,17.9634575 Z" id="Path"></path>
                <path d="M5.44766313,16.9670285 C5.34450177,16.9413113 5.20910249,16.8930915 5.15107423,16.8545157 C5.03179391,16.7805787 4.81902361,16.5523385 4.76099535,16.436611 C4.72230984,16.3562448 4.65138641,16.0090624 4.50953954,15.2182582 C4.46118265,14.961086 4.39670681,14.6139037 4.36124509,14.4467418 C4.32900717,14.2795799 4.29999303,14.1124181 4.29999303,14.0770569 C4.29999303,14.0416957 4.26453132,13.8391727 4.22262202,13.6270057 C4.03564206,12.7011861 3.99695655,12.4600873 4.00018034,12.1964858 C4.00018034,11.9618163 4.01307551,11.9007379 4.09044653,11.7625079 C4.21295064,11.5374823 4.31933579,11.4346135 4.5256585,11.32853 C4.67072916,11.2578076 4.75132397,11.2385197 4.96731806,11.2353051 C5.25101179,11.2288758 5.36062074,11.2610223 5.63786688,11.4313988 C5.72490928,11.4860479 5.85063718,11.5631995 5.91188924,11.6017753 C5.97314129,11.6403511 6.13110712,11.7400053 6.25683502,11.8203716 C6.38578672,11.9039526 6.50184325,11.9714602 6.51151462,11.9714602 C6.52440979,11.9714602 6.58243806,12.0068214 6.63724253,12.0518265 C6.69527079,12.093617 6.74685147,12.1225489 6.75329906,12.1161196 C6.75974664,12.1096903 6.75974664,11.3124567 6.75007526,10.341632 C6.7339563,8.80502861 6.72428492,8.56392976 6.67915183,8.45141696 C6.6501377,8.38069463 6.55987151,8.13638112 6.48250049,7.90492622 C6.26005882,7.25878129 6.01505059,6.55798728 5.87320373,6.15937051 C5.80550409,5.96006212 5.74102824,5.77039769 5.73458065,5.74146583 C5.72813307,5.71253397 5.69911894,5.62252373 5.67010481,5.54215744 C5.64109067,5.46179116 5.61207654,5.37499557 5.60240517,5.34927836 C5.59595758,5.32356115 5.53148173,5.13389671 5.4605583,4.93137368 C5.38963487,4.72885064 5.25101179,4.33023386 5.15429802,4.04734454 C5.05758425,3.76445522 4.89639463,3.30154542 4.79968086,3.01865609 C4.50631575,2.17641743 4.45473507,2.02532881 4.44506369,1.97389439 C4.43861611,1.94817718 4.40315439,1.85495229 4.36769267,1.77137135 C4.33223096,1.68457576 4.29354545,1.58492157 4.28709786,1.54634575 C4.28065028,1.50776993 4.24841235,1.41133039 4.21939822,1.33096411 C3.98406138,0.691248479 4.49342058,-0.00954552657 5.18653595,0 C5.70556652,0.00652773043 6.03439335,0.305490311 6.21814952,0.932347334 C6.24716365,1.03843083 6.28262536,1.13808502 6.29552053,1.15415828 C6.3116395,1.17344619 6.37611534,1.35989597 6.44381498,1.57206296 C6.51151462,1.78422995 6.57599047,1.97389439 6.58888564,1.98996764 C6.59855702,2.00925555 6.6501377,2.15391487 6.69849458,2.31143278 C6.74685147,2.47216535 6.82422249,2.687547 6.86613179,2.79363049 C6.90804109,2.89971399 6.94350281,3.00258284 6.94350281,3.0250854 C6.94350281,3.0443733 6.97251694,3.12795424 7.00797866,3.21153518 C7.04344037,3.29190146 7.07890209,3.39155565 7.08534967,3.43013147 C7.09179726,3.47192194 7.12081139,3.55871753 7.15304931,3.62943986 C7.18206345,3.70016219 7.21107758,3.78052847 7.21752516,3.80624569 C7.23042033,3.86410941 7.35937203,4.24665293 7.58826129,4.89922716 C7.67852748,5.15639927 7.80747917,5.53894279 7.87840261,5.75110978 C7.94932604,5.96327678 8.02024947,6.16579981 8.03959223,6.20116098 C8.05571119,6.23652214 8.10729187,6.38761076 8.15242496,6.53869938 C8.25881011,6.87945242 8.27492907,6.91159894 8.3490763,6.90195498 C8.99061099,6.8215887 9.05186304,6.81837405 9.30654264,6.85373521 C9.4516133,6.87623777 9.5773412,6.88266708 9.59023637,6.86659382 C9.61602671,6.8344473 10.0738052,5.54537209 10.093148,5.4457179 C10.0995956,5.40392743 10.1189383,5.35249301 10.1318335,5.3332051 C10.1544,5.30427324 10.2285473,5.1081795 10.2511138,5.01173996 C10.2575614,4.9956667 10.2962469,4.87993925 10.34138,4.75456785 C10.3865131,4.6324111 10.4928982,4.32701921 10.5831644,4.07949105 C10.6702068,3.8319629 10.8152775,3.42048752 10.9087675,3.16331541 C10.9990337,2.90614329 11.0860761,2.65540048 11.102195,2.60075141 C11.1150902,2.54931699 11.1537757,2.44644814 11.1827898,2.37572581 C11.2150277,2.30500348 11.2504895,2.20534929 11.2666084,2.15070021 C11.2795036,2.09926579 11.3278605,1.95460648 11.3729936,1.82923507 C11.4149029,1.70707832 11.5245118,1.39847179 11.6115542,1.15094363 C11.7920866,0.643028708 11.8662338,0.485510789 11.9790665,0.363354036 C12.0661089,0.270129145 12.3207885,0.112611227 12.4142785,0.0965379696 C12.7721195,0.0290302902 12.9494281,0.05153285 13.2331218,0.192977512 C13.4136542,0.282987751 13.5329345,0.41800311 13.6393196,0.64945801 C13.7779427,0.948420591 13.7714951,1.09629456 13.6167531,1.53991645 C13.5426059,1.75208344 13.4749062,1.96103578 13.4684586,2.0060409 C13.4587873,2.04783137 13.4394445,2.09926579 13.4265493,2.1185537 C13.400759,2.15070021 13.3201642,2.37251116 13.307269,2.44966279 C13.3040452,2.47216535 13.2685835,2.5686049 13.2331218,2.66504444 C13.0396943,3.16653006 12.7463291,4.01841268 12.7463291,4.0698471 C12.7463291,4.09556431 12.733434,4.12771083 12.717315,4.14378408 C12.701196,4.16307199 12.6206012,4.37202433 12.5400064,4.60990854 C12.4594116,4.84779274 12.3465789,5.16604323 12.2949982,5.31713184 C12.2401937,5.46822046 12.1757179,5.64824094 12.1531513,5.71896327 C12.0145283,6.12079469 11.8404435,6.60942171 11.7824152,6.75729567 C11.7469535,6.84730591 11.7211632,6.92445754 11.7308345,6.92445754 C11.7372821,6.92445754 11.708268,7.00482383 11.6663587,7.10126337 C11.6212256,7.19770291 11.5793163,7.31021571 11.5728687,7.34879153 C11.5567497,7.42272851 11.5277356,7.5030948 11.2666084,8.23924997 L11.1344329,8.60893488 L11.1344329,10.3866371 L11.1344329,12.167554 L11.2408181,12.1129049 C11.2956226,12.083973 11.427798,12.0036068 11.5277356,11.9360991 C11.6276732,11.8653767 11.7179394,11.8107277 11.7276107,11.8107277 C11.7372821,11.8107277 11.8855766,11.7207174 12.0596614,11.6082046 C12.5690206,11.2803102 12.6883009,11.2320904 12.965547,11.2320904 C13.3169404,11.2320904 13.4362207,11.2803102 13.6683338,11.5053358 C13.8262996,11.6628537 13.8778803,11.7367907 13.9326847,11.9039526 C14.0165033,12.1514807 14.0197271,12.2800668 13.9552513,12.5629561 C13.9262372,12.6786836 13.9004468,12.8297722 13.8939992,12.8972798 C13.8875517,12.9647875 13.8520899,13.1705252 13.8166282,13.356975 C13.7779427,13.5402101 13.7199144,13.8520313 13.6844527,14.0449104 C13.5845152,14.6074744 13.4555635,15.3018391 13.38464,15.6650947 C13.3491783,15.8483298 13.3169404,16.0540675 13.3104928,16.1183605 C13.2879263,16.3273129 13.1557508,16.574841 12.9752184,16.7355736 C12.7302102,16.9573846 12.4207261,17.0377508 12.0822279,16.9670285 C11.4826025,16.8448718 11.1892374,16.3144543 11.3407557,15.6329482 C11.3697698,15.5011475 11.3987839,15.3339856 11.4084553,15.2600486 C11.4181267,15.182897 11.4471408,15.0189498 11.4761549,14.8903637 C11.5051691,14.7617777 11.5309594,14.5978304 11.5406308,14.5271081 C11.5470784,14.4596004 11.5631973,14.3728048 11.5728687,14.3406583 C11.5889877,14.2860093 11.5857639,14.2860093 11.5148404,14.3213704 C11.4761549,14.343873 11.4052315,14.3856634 11.3600984,14.4145953 C11.2762798,14.472459 10.9248864,14.6910553 10.6895496,14.8292853 C10.6154024,14.8742905 10.4574365,14.9739447 10.3381562,15.0510963 C9.99643422,15.2761219 9.76109737,15.3243417 8.99061099,15.3243417 C8.24591494,15.3275563 8.02992085,15.2889805 7.71721299,15.0961014 C7.61082784,15.0285937 7.39805754,14.896793 7.2433155,14.8003535 C7.08857347,14.7039139 6.9467266,14.6171183 6.93060764,14.610689 C6.91448868,14.6042597 6.79198456,14.5303228 6.65658528,14.4435272 C6.52440979,14.3567316 6.40835327,14.2924386 6.40190568,14.3020825 C6.3954581,14.3085118 6.41157706,14.4145953 6.44059119,14.5399667 C6.46960532,14.6653381 6.49861946,14.8292853 6.50829083,14.906437 C6.51473842,14.980374 6.55020013,15.1796823 6.58888564,15.3468442 C6.65980908,15.6586654 6.68559941,16.0829994 6.64691391,16.2726638 C6.59210944,16.5491238 6.2665064,16.8770183 5.97636509,16.9477406 C5.71846169,17.0120336 5.64109067,17.0152483 5.44766313,16.9670285 Z" id="Path"></path>
                <path d="M14.2254955,15.9370984 C14.0185435,15.8301658 13.930244,15.4653368 14.0626933,15.2451814 C14.2006612,15.0093006 14.1979019,15.0093006 14.9843193,15.0030104 C15.7403837,14.9935752 15.7514211,14.9967202 15.8838704,15.1602643 C15.988726,15.2923575 16.0245977,15.4621917 15.9832073,15.6320259 C15.9473356,15.7892798 15.8949078,15.8616166 15.7596992,15.9402435 C15.6686404,15.9937098 15.5913783,16 15.0008754,16 C14.4103726,16 14.3331105,15.9937098 14.2254955,15.9370984 Z" id="Path"></path>
                <path d="M2.31060981,15.9711397 C2.17523574,15.93015 2.08682818,15.8324054 2.02881072,15.6558346 C1.973556,15.4918759 1.99842063,15.3216112 2.09787913,15.1765708 C2.20838857,15.0157653 2.29127065,15 3.01234477,15 C3.74723257,15 3.80801276,15.0126122 3.92404768,15.1986422 C4.01798071,15.3468356 4.02626892,15.6148449 3.9406241,15.7535792 C3.79972456,15.993211 3.79696182,15.993211 3.06759949,15.9995171 C2.68910465,16.0026702 2.36862726,15.990058 2.31060981,15.9711397 Z" id="Path"></path>
            </g>
        </g>
    </g>
</svg>