<?xml version="1.0" encoding="utf-8"?>
<!-- Generator: Adobe Illustrator 23.1.1, SVG Export Plug-In . SVG Version: 6.00 Build 0)  -->
<svg version="1.1" id="Слой_1" xmlns="http://www.w3.org/2000/svg" xmlns:xlink="http://www.w3.org/1999/xlink" x="0px" y="0px"
	 viewBox="0 0 28 28" style="enable-background:new 0 0 28 28;" xml:space="preserve">
<style type="text/css">
	.st0{fill-rule:evenodd;clip-rule:evenodd;fill:#FFFFFF;}
</style>
<title>horse_</title>
<g>
	<g id="Слой_1-2">
		<circle cx="14.2" cy="13.9" r="11.3"/>
		<polygon class="st0" points="14.6,9.7 14.2,8.9 13.5,9.9 15.3,11.7 16.8,11.7 17.7,10.4 16.2,9.4 		"/>
		<path class="st0" d="M14,0C6.3,0,0,6.3,0,14s6.3,14,14,14s14-6.3,14-14S21.7,0,14,0z M15,6.2c-0.5,0.2-1.1-0.2-1.2-0.7
			s0.2-1.1,0.7-1.2C15.6,3.9,16.3,5.8,15,6.2z M7.3,21.4L7,17.4c0,0-0.1-0.7,0.1-0.9S8,15.2,8,15.2l0.8,0.9l-0.9,0.8l0.2,0.4
			l0.2,4.1L7.3,21.4z M23.6,10.8l-0.3,0.6l0,0c0,0.1-0.1,0.2-0.2,0.2h-0.1l0,0l-0.5-0.3h-2c-0.5,1.5-1.1,3-1.8,4.4v5.9h-0.8
			l-0.5-3.2l0.5-1.8h-0.5L16,21.4h-0.9c0,0,0.3-3.2,0.4-3.9c-0.6-0.2-1-0.8-0.9-1.5h-3.7c0,0-0.1,0.7-0.5,0.9c0.1,1,0.7,4.5,0.7,4.5
			h-1l-1.4-4.6l0.7-0.5l-1.3-1.9l0,0c-0.2-0.2-0.2-0.5-0.2-0.7c0-0.2,0-0.3,0.1-0.5l0,0l0.3-1c-0.1,0-0.3,0.1-0.4,0.2
			c-0.4,0.2-0.2,1.6-0.4,2.4c-0.2,0.5-0.6,0.9-1.1,1c-0.4,0.1-0.8,0.1-1.3,0c0.7-0.4,0.8-2.4,1-3.2s1.4-1.1,1.4-1.1h5.2l1.2,0.9
			l0.3,1.9c0,0.2,0.2,0.4,0.4,0.3L14,12.2l-1.8-1.4c-0.3-0.1-0.5-0.4-0.5-0.8c0-0.2,0.1-0.3,0.1-0.5L14,6.3l1,0.4l0.1,2.1h1.5
			c0.2,0,0.3,0.2,0.3,0.3c0,0.1,0,0.2-0.1,0.2l1.1,0.8l2.4-3.2v1.4h0.5l2.8,2.2l0,0c0.1,0.1,0.1,0.1,0.1,0.2
			C23.6,10.7,23.6,10.8,23.6,10.8z"/>
	</g>
</g>
</svg>
