<?xml version="1.0" encoding="UTF-8"?>
<svg width="24px" height="24px" viewBox="0 0 24 24" version="1.1" xmlns="http://www.w3.org/2000/svg" xmlns:xlink="http://www.w3.org/1999/xlink">
    <!-- Generator: Sketch 52.1 (67048) - http://www.bohemiancoding.com/sketch -->
    <title>Group</title>
    <desc>Created with Sketch.</desc>
    <g id="Page-1" stroke="none" stroke-width="1" fill="none" fill-rule="evenodd">
        <g id="Group">
            <path d="M12,24 C5.37257143,24 0,18.6274286 0,12 C0,5.37257143 5.37257143,0 12,0 C18.6274286,0 24,5.37257143 24,12 C24,18.6274286 18.6274286,24 12,24 Z" id="Path" fill="#FFFFFF" fill-rule="nonzero"></path>
            <path d="M8.85507179,12.86521 L7.6008529,19.2938944 L7.31230088,19.2938944 C7.24996551,18.6701769 6.96905804,18.3583181 6.46957848,18.3583181 C5.97009892,18.3583181 5.66911073,18.6318698 5.56661392,19.1789732 C5.09107901,18.9822005 4.91486623,18.5564293 5.0379756,17.9016596 C5.22263964,16.9195051 5.47238602,15.9670959 5.64837242,15.249063 C5.82435882,14.53103 6.43712877,14.4301925 6.77007114,14.4301925 C6.99203272,14.4301925 7.35800584,14.4301925 7.86799051,14.4301925 L8.25782694,12.6947778 L8.25950004,12.6952038 C8.2495505,12.6847015 8.2397402,12.6736688 8.23008969,12.6620839 C7.98342475,12.3659772 8.10182574,12.0250377 8.23008969,11.8715003 C8.31559898,11.7691421 9.52097745,10.4149617 11.8462251,7.80895929 C12.1364724,7.56663485 12.4442493,7.44547263 12.7695558,7.44547263 C13.2575155,7.44547263 13.369335,7.60138634 13.6244473,7.80895929 C13.8795595,8.01653224 14.9906886,10.4860301 15.0615812,10.5634472 C15.1324738,10.6408642 16.4784664,11.2549429 16.7083068,11.4259484 C16.9381473,11.596954 17.0803708,11.7600762 16.9508396,12.1982575 C16.8213084,12.6364387 16.4603795,12.6583685 16.3072761,12.6134845 C16.1541726,12.5686005 14.5620534,11.8771242 14.3981405,11.7992531 C14.2342275,11.7213819 14.1874354,11.7101653 14.0946654,11.5623255 C14.0018955,11.4144856 13.7357802,10.7787853 13.6801137,10.8043903 C13.6244473,10.8299954 13.0704053,13.6160279 13.0704053,13.7700743 C13.0704053,13.9241207 14.8914086,18.7402867 14.9552122,18.9522013 C15.0190158,19.1641159 15.0190158,19.5537851 14.6567039,19.8484234 C14.2943919,20.1430617 13.8287344,19.9686563 13.6398661,19.5945821 C13.5139539,19.3451994 12.5849437,17.3032573 10.8528355,13.4687557 C10.7268603,13.1353353 10.6828502,12.8295055 10.7208053,12.5512662 C10.7587604,12.2730268 10.875547,11.6525198 11.0711651,10.6897451 C9.72530132,12.0792231 9.01494242,12.7938915 8.94008839,12.8337504 C8.9192456,12.8448489 8.89017505,12.856115 8.85507179,12.86521 Z M6.41972567,20 C6.09368887,20 5.82938383,19.7079519 5.82938383,19.3476923 C5.82938383,18.9874327 6.09368887,18.6953846 6.41972567,18.6953846 C6.74576246,18.6953846 7.0100675,18.9874327 7.0100675,19.3476923 C7.0100675,19.7079519 6.74576246,20 6.41972567,20 Z M13.7377368,6.85 C12.9503271,6.85 12.3120055,6.21200577 12.3120055,5.425 C12.3120055,4.63799423 12.9503271,4 13.7377368,4 C14.5251464,4 15.163468,4.63799423 15.163468,5.425 C15.163468,6.21200577 14.5251464,6.85 13.7377368,6.85 Z M10.9344026,14.7753166 L12.0189812,17.1610342 C12.0299434,17.2267332 12.0233392,17.2753811 11.9991686,17.3069779 C11.9629127,17.354373 10.1743466,19.5380314 9.98525182,19.7634205 C9.79615704,19.9888097 9.40539476,20.146146 9.00515191,19.7634205 C8.60490906,19.3806951 8.83607582,18.9223845 8.94474359,18.7618628 C9.01718876,18.6548484 9.52143666,17.9388096 10.4574873,16.6137463 L10.9344026,14.7753166 Z" id="Combined-Shape" fill="#6B6B6B"></path>
        </g>
    </g>
</svg>