<?xml version="1.0" encoding="UTF-8"?>
<svg width="28px" height="28px" viewBox="0 0 28 28" version="1.1" xmlns="http://www.w3.org/2000/svg" xmlns:xlink="http://www.w3.org/1999/xlink">
    <!-- Generator: Sketch 52.1 (67048) - http://www.bohemiancoding.com/sketch -->
    <title>icon-splav-grey</title>
    <desc>Created with Sketch.</desc>
    <g id="Page-1" stroke="none" stroke-width="1" fill="none" fill-rule="evenodd">
        <g id="icon-splav-grey">
            <circle id="Oval" fill="#757575" cx="14.34" cy="13.85" r="11.33"></circle>
            <path d="M14,0 C6.2680135,-4.73447626e-16 9.46895252e-16,6.2680135 0,14 C-9.46895252e-16,21.7319865 6.2680135,28 14,28 C21.7319865,28 28,21.7319865 28,14 C28,10.2869691 26.5250042,6.72601436 23.8994949,4.10050506 C21.2739856,1.47499577 17.7130309,2.27357568e-16 14,0 Z M14.52,6.31 C15.1275132,6.31 15.62,6.80248678 15.62,7.41 C15.62,8.01751322 15.1275132,8.51 14.52,8.51 C13.9124868,8.51 13.42,8.01751322 13.42,7.41 C13.42,6.80248678 13.9124868,6.31 14.52,6.31 Z M10.69,16.23 L9.94,16.13 C8.3160193,16.1479342 6.71172666,16.4878267 5.22,17.13 C5.18373297,17.1375012 5.14612572,17.1262492 5.11993827,17.1000617 C5.09375082,17.0738743 5.08249881,17.036267 5.09,17 C5.83,16.1 7.85,14 10.36,14 C10.5598697,13.9897893 10.7601303,13.9897893 10.96,14 C11.8766308,14.099181 12.7751419,14.3246501 13.63,14.67 C14.5684019,15.0802651 15.5381726,15.4146687 16.53,15.67 L16.27,16.05 C15.679924,15.8990022 15.0581089,16.1301899 14.71,16.63 C14.6,16.78 14.36,17.07 14.22,17.24 C13.0883366,16.7623033 11.9030702,16.4231761 10.69,16.23 Z M22.92,14.23 C22.39,15.32 20.78,18 17.68,18 L17.13,18 C17.1362412,18.0698609 17.1362412,18.1401391 17.13,18.21 C17.04,18.6 16.82,19.49 16.82,19.49 C16.3593693,20.0484583 15.5735201,20.2136956 14.9269894,19.8880357 C14.2804587,19.5623758 13.9454516,18.832559 14.12,18.13 C14.12,18.13 14.66,17.49 14.96,17.13 C15.3276197,16.6387151 15.9573936,16.4208688 16.55,16.58 L19.55,11.42 L19.24,11.67 L18.61,12.17 C18.1918959,12.551785 17.7071753,12.8534642 17.18,13.06 C16.9317404,13.0792566 16.6844531,13.0121357 16.48,12.87 L14.63,11.63 L13.86,14 C13.0034382,13.6599072 12.1056506,13.4346197 11.19,13.33 L12.39,9.45 C12.4714747,9.17055196 12.7111785,8.96621427 13,8.93 L15,9.49 L17.13,11.55 L18.59,10.74 L19.22,10.39 L19.72,10.11 L19.82,10.11 C19.8660946,10.0996665 19.9139054,10.0996665 19.96,10.11 C20.1842142,10.1152778 20.3647222,10.2957858 20.37,10.52 C20.3661779,10.6500545 20.3036745,10.7713846 20.2,10.85 L17.28,15.91 C17.6493631,15.940702 18.0206369,15.940702 18.39,15.91 C20.0058448,15.7850386 21.5415427,15.1553675 22.78,14.11 C22.8106468,14.100967 22.8437067,14.1057053 22.8705826,14.1229826 C22.8974585,14.14026 22.9154944,14.168369 22.92,14.2 L22.92,14.23 Z" id="Shape" fill="#FFFFFF"></path>
        </g>
    </g>
</svg>