<?xml version="1.0" encoding="UTF-8"?>
<svg width="28px" height="28px" viewBox="0 0 28 28" version="1.1" xmlns="http://www.w3.org/2000/svg" xmlns:xlink="http://www.w3.org/1999/xlink">
    <!-- Generator: Sketch 52.1 (67048) - http://www.bohemiancoding.com/sketch -->
    <title>icon-kayak-2-grey</title>
    <desc>Created with Sketch.</desc>
    <g id="Page-1" stroke="none" stroke-width="1" fill="none" fill-rule="evenodd">
        <g id="icon-kayak-2-grey">
            <circle id="Oval" fill="#757575" cx="13.8" cy="13.85" r="11.33"></circle>
            <path d="M14,0 C6.2680135,-4.73447626e-16 9.46895252e-16,6.2680135 0,14 C-9.46895252e-16,21.7319865 6.2680135,28 14,28 C21.7319865,28 28,21.7319865 28,14 C28,6.2680135 21.7319865,3.58207209e-15 14,0 Z M14,4.64 C14.5183169,5.34013447 14.9766104,6.08277076 15.37,6.86 L15.28,7.26 C15.0874721,8.11866679 15.2458717,9.0186647 15.72,9.76 L15.14,10.76 C14.85,9.91 14.44,9.39 14,9.39 C13.11,9.39 12.4,11.45 12.4,14 C12.3973554,14.464277 12.4207254,14.9283376 12.47,15.39 L11.22,17.55 C10.8918144,16.39484 10.7202807,15.2008309 10.71,14 C10.8515862,10.6222732 11.997044,7.36346325 14,4.64 Z M14,23.36 C13.4802209,22.6588772 13.018681,21.9164 12.62,21.14 L12.72,20.74 C12.9119249,19.878088 12.7536561,18.9752364 12.28,18.23 L12.86,17.23 C13.15,18.08 13.55,18.61 14,18.61 C14.88,18.61 15.6,16.55 15.6,14 C15.6026446,13.535723 15.5792746,13.0716624 15.53,12.61 L16.78,10.44 C17.1023434,11.599806 17.2737574,12.7963425 17.29,14 C17.1484138,17.3777268 16.002956,20.6365368 14,23.36 Z M20.46,7.48 C20.46,7.48 19.59,8.48 19.1,9.1 C18.6236055,9.68707788 17.9243541,10.0493843 17.17,10.1 C17.0026194,10.0993219 16.8366966,10.0688463 16.68,10.01 L16.6,10.01 L15.44,12.01 L12.71,16.74 L11.83,18.28 C12.3558763,18.9414813 12.5510403,19.8068311 12.36,20.63 C12.21,21.26 11.86,22.69 11.86,22.69 C11.4584894,23.3051432 10.7520729,23.650673 10.02,23.59 C9.60870715,23.5951085 9.20168382,23.506179 8.83,23.33 C7.83,22.85 7.06,21.46 7.54,20.5 C7.54,20.5 8.41,19.5 8.89,18.88 C9.37180427,18.2942774 10.0734046,17.9326278 10.83,17.88 C10.9964071,17.8821027 11.1615652,17.9090673 11.32,17.96 L11.39,17.96 L12.56,15.96 L15.29,11.24 L16.17,9.7 C15.6481624,9.03659027 15.4534352,8.17317706 15.64,7.35 L16.13,5.29 C16.5367399,4.66476705 17.257609,4.31782471 18,4.39 C18.4112928,4.38489152 18.8183162,4.47382099 19.19,4.65 C20.12,5.13 20.94,6.52 20.46,7.48 Z" id="Shape" fill="#FFFFFF"></path>
        </g>
    </g>
</svg>