<?xml version="1.0" encoding="UTF-8"?>
<svg width="28px" height="28px" viewBox="0 0 28 28" version="1.1" xmlns="http://www.w3.org/2000/svg" xmlns:xlink="http://www.w3.org/1999/xlink">
    <!-- Generator: Sketch 52.1 (67048) - http://www.bohemiancoding.com/sketch -->
    <title>icon-swim-grey</title>
    <desc>Created with Sketch.</desc>
    <g id="Page-1" stroke="none" stroke-width="1" fill="none" fill-rule="evenodd">
        <g id="icon-swim-grey">
            <circle id="Oval" fill="#757575" cx="14.17" cy="13.85" r="11.33"></circle>
            <path d="M14,0 C6.2680135,-4.73447626e-16 9.46895252e-16,6.2680135 0,14 C-9.46895252e-16,21.7319865 6.2680135,28 14,28 C21.7319865,28 28,21.7319865 28,14 C28,10.2869691 26.5250042,6.72601436 23.8994949,4.10050506 C21.2739856,1.47499577 17.7130309,2.27357568e-16 14,0 Z M17.69,12.23 C18.6288841,12.23 19.39,12.9911159 19.39,13.93 C19.39,14.8688841 18.6288841,15.63 17.69,15.63 C16.7511159,15.63 15.99,14.8688841 15.99,13.93 C15.99,12.9911159 16.7511159,12.23 17.69,12.23 Z M9.63,11.93 C9.36682556,11.6611167 9.21043684,11.3056878 9.19,10.93 C9.38010761,10.1118104 9.71907983,9.33556402 10.19,8.64 L10.78,7.64 C11.3,6.76 11.78,6.05 11.78,6.05 C11.8633295,5.86229716 12.0368723,5.73025376 12.24,5.7 C12.5708985,5.65218238 12.878628,5.87963465 12.93,6.21 C12.9399829,6.27964408 12.9399829,6.35035592 12.93,6.42 C12.9189599,6.47627707 12.8986862,6.53034021 12.87,6.58 L12.58,7.36 L12.21,8.36 L11.35,10.68 L14.82,13.33 L16,16.12 C16.0027988,16.5651513 15.7271635,16.9646227 15.31,17.12 L13.17,18.12 C12.3549541,17.8775799 11.6105149,17.4418943 11,16.85 L10.7,16.6 C10.7,16.6 10.7,16.6 10.7,16.6 C9.99497609,17.3386804 9.0210881,17.7606985 8,17.77 C7.64305178,17.5480474 7.34195261,17.2469482 7.12,16.89 L11.85,14.36 L9.63,11.93 Z M21.81,18.65 C21.1997894,19.4686302 20.2504478,19.9653788 19.23,20 C18.3956693,20.1027392 17.5525961,19.8964175 16.86,19.42 C16.1135766,20.2030823 15.0817921,20.6504294 14,20.66 C13.1193731,20.6578372 12.2632028,20.3701078 11.56,19.84 C11.4083294,19.7268622 11.2677028,19.5996286 11.14,19.46 C10.6892796,19.7771134 10.1599181,19.9639469 9.61,20 C9.330599,20.0259014 9.049401,20.0259014 8.77,20 C7.74260485,19.9558889 6.79198,19.4437306 6.19,18.61 C6.17551697,18.5884932 6.17648758,18.5601163 6.19240629,18.5396493 C6.208325,18.5191824 6.23558991,18.5112566 6.26,18.52 C6.81614115,18.6541055 7.38860335,18.7079843 7.96,18.68 C8.96316692,18.6644281 9.91801325,18.2464576 10.61,17.52 L10.69,17.52 C10.8,17.61 10.9,17.69 10.98,17.77 C11.5957301,18.3601431 12.3429411,18.7954449 13.16,19.04 C13.4355126,19.1027721 13.7174426,19.1329789 14,19.13 C15.1376302,19.0791042 16.211969,18.5920706 17,17.77 C17.08,17.69 17.18,17.61 17.29,17.52 L17.37,17.52 C18.81,19.11 21.13,18.66 21.72,18.52 C21.7558985,18.4951472 21.8051472,18.5041015 21.83,18.54 C21.8548528,18.5758985 21.8458985,18.6251472 21.81,18.65 Z" id="Shape" fill="#FFFFFF"></path>
        </g>
    </g>
</svg>