<?xml version="1.0" encoding="UTF-8"?>
<svg width="20px" height="17px" viewBox="0 0 20 17" version="1.1" xmlns="http://www.w3.org/2000/svg" xmlns:xlink="http://www.w3.org/1999/xlink">
    <title>Group</title>
    <g id="Page-1" stroke="none" stroke-width="1" fill="none" fill-rule="evenodd">
        <g id="icon-art-black" transform="translate(-4.000000, -5.000000)" fill="#6B6B6B" fill-rule="nonzero">
            <g id="Group" transform="translate(14.000000, 14.000000) scale(-1, 1) rotate(-180.000000) translate(-14.000000, -14.000000) ">
                <g transform="translate(14.000000, 14.500000) scale(-1, -1) rotate(180.000000) translate(-14.000000, -14.500000) translate(4.000000, 6.000000)" id="Path">
                    <path d="M15.125418,15.7976654 C15.0945115,15.6848249 14.9824755,15.2918288 14.8820294,14.9182879 L14.7004538,14.2451362 L13.6766766,13.1867704 C13.1164967,12.6070039 12.5060936,11.9805447 12.3283814,11.7937743 L12,11.4552529 L12.1081727,11.2879377 C12.285885,11.0233463 12.9658276,10.3618677 13.3057989,10.1245136 C13.8621155,9.73929961 14.4145689,9.43579767 14.8511229,9.28015564 C15.1176914,9.18287938 16.0757923,8.82355439 16.1607851,8.82355439 C16.2187348,8.82355439 16.2225981,8.92471353 16.2225981,9.49805447 L16.2225981,9.92217899 L16.5393895,9.85214008 C16.9489004,9.76264591 17.9726776,9.60311284 18.525131,9.54474708 L18.9578217,9.49805447 L19.2321167,9.6614786 C19.7343471,9.96108949 20.0511385,10.4046693 19.9931889,10.7198444 C19.9584191,10.9027237 19.6107212,11.307393 19.1934836,11.6459144 C18.7221598,12.0311284 18.6719368,12.1050584 18.5599008,12.5836576 C18.2662892,13.8249027 18.1117568,14.1400778 17.7099725,14.311284 C17.4859005,14.4085603 17.0300299,14.540856 16.5973392,14.6420233 L16.2187348,14.7276265 L15.7010512,15.3657588 L15.1833676,16 L15.125418,15.7976654 Z"></path>
                    <path d="M8.24689528,16.9414431 C8.03974351,16.8340205 7.94161899,16.5160493 8.03610927,16.2496411 C8.14513652,15.9402638 10.2384596,12.1203134 10.3329499,12.0601567 C10.3838292,12.0300783 10.485588,12 10.5619071,12 C10.8381094,12 10.998016,12.2019546 10.998016,12.5500041 C10.998016,12.7562556 11.1143118,12.5242227 9.56612492,15.4117442 C8.89015601,16.6664411 8.75205484,16.8941772 8.65029608,16.94574 C8.50129218,17.0187875 8.39589917,17.0187875 8.24689528,16.9414431 Z"></path>
                    <path d="M0.362136449,12.939131 C0.193521738,12.8473822 0.109214383,12.7596224 0.0517320957,12.6160156 C-0.0364074119,12.4045945 -0.0134144969,12.2410423 0.132207298,11.9857413 C0.649547887,11.0921878 1.88350099,10.1906562 2.94117508,9.93136616 C3.04847536,9.90743169 3.14044702,9.87152999 3.14044702,9.85956275 C3.14044702,9.84360644 3.11362195,9.09764886 3.08296473,8.19611723 L3.02548244,6.56059526 L2.64226719,4.92507328 C2.4314988,4.02753074 2.17091243,2.92255613 2.06744431,2.47179032 C1.96014404,2.02102451 1.83368301,1.47452083 1.78769718,1.25113246 C1.70722198,0.856213738 1.70722198,0.848235582 1.77620072,0.660748917 C1.96014404,0.158125091 2.43916311,-0.0971759004 2.92584647,0.0424418291 C3.13661486,0.102277999 3.42785845,0.401458848 3.50066935,0.628836293 C3.55815164,0.81233388 3.68461267,1.35883756 4.26709985,3.94774918 C4.42805026,4.66179414 4.58516851,5.30403569 4.61582573,5.37185002 C4.70396524,5.57928207 5.01820174,5.60321654 5.09484479,5.4117408 C5.11400556,5.36387186 5.38992054,4.25490818 5.70798919,2.95047968 C6.03755431,1.6061604 6.32113359,0.521131187 6.36328727,0.449327784 C6.62387364,0.0105292052 7.21402513,-0.13706668 7.59724038,0.142168779 C7.83100168,0.313699132 7.99578424,0.561021967 8.03027361,0.784410334 C8.05326653,0.95195161 7.99578424,1.23916522 7.58957607,2.93053429 C7.33282186,4.00758535 7.12588562,4.94900775 7.12588562,5.02878931 C7.12588562,5.33993739 7.26001096,5.35589371 8.42498532,5.20829782 C8.83885779,5.15245073 9.23740165,5.10458179 9.3140447,5.09660364 L9.79759793,5.02878931 L9.71646198,5.99812442 C9.55073314,7.75046694 9.75857439,9.29361325 10,10.510282 C10.0421537,10.7256923 10.1897697,11.2278165 10.1897697,11.2477619 C10.1897697,11.2677073 8.57443927,11.2477619 6.63920225,11.2477619 C2.91051786,11.2477619 3.02931459,11.2397837 2.5043097,11.511041 C2.04828355,11.7463966 1.49262144,12.2450314 1.20137785,12.687819 C1.13623125,12.787546 1.02126668,12.8992402 0.948455782,12.9351419 C0.776008919,13.0189125 0.511590396,13.0229016 0.362136449,12.939131 Z"></path>
                    <path d="M11.1354747,10.8146892 C11.0288097,10.5011088 10.7319707,8.74868918 10.7319707,7.56891556 C10.7319707,6.51020196 10.8575863,4.57223965 10.8831859,4.33244284 C10.8959857,4.20332148 10.8661195,4.00779485 10.7722544,3.68683605 C10.7039888,3.43228252 10.4991921,2.7128921 10.3199949,2.08204204 C10.1450644,1.45119198 10,0.879368822 10,0.80927437 C10.0042666,0.528896566 10.2645291,0.219005308 10.6314566,0.0677488604 C11.0239837,-0.0982643135 11.5871747,0.0529921338 11.8346375,0.388707663 C11.9754352,0.580545109 11.9711686,0.569477564 12.4959603,2.48047365 C12.7178234,3.28840443 12.9311533,4.00410567 12.9610195,4.07420012 C13.0378183,4.23283493 13.1658163,4.28817266 13.4090124,4.26972675 C13.6522085,4.24759166 13.8271391,4.17749721 13.933804,4.05206503 C13.9850032,3.99303813 14.2196662,3.29209362 14.5225947,2.28494703 C14.8041902,1.36265162 15.0516529,0.5620992 15.0815191,0.506761476 C15.1497847,0.35919421 15.5252454,0.0788164053 15.7087091,0.0345462256 C16.1823016,-0.0798184053 16.7070932,0.123086585 16.9289564,0.506761476 C17.0697541,0.742869101 17.0313547,0.931017365 16.5364293,2.50629793 C15.7641749,4.95222535 15.5465784,5.70112923 15.5209788,5.94461522 C15.4996458,6.19179039 15.5380452,6.3098442 15.9433721,7.21000452 C16.050037,7.44242296 16.107515,7.83548232 16.0733822,7.85023905 C16.0591199,7.85728596 14.7441147,7.98127286 13.597068,8.67740945 C12.3421192,9.43903127 11.1466203,10.843601 11.1354747,10.8146892 Z"></path>
                </g>
            </g>
        </g>
    </g>
</svg>