<svg xmlns="http://www.w3.org/2000/svg" viewBox="0 0 28 28"><defs><style>.cls-1{fill:#fff;fill-rule:evenodd;}</style></defs><title>freediv</title><g id="Слой_2" data-name="Слой 2"><g id="Слой_1-2" data-name="Слой 1"><circle cx="14" cy="13.85" r="11.33"/><path class="cls-1" d="M12.55,17.53a1.42,1.42,0,0,0,0,2.83,1.42,1.42,0,1,0,0-2.83Z"/><path class="cls-1" d="M11.51,14.57c.14-.29.25-.59.39-.88a.66.66,0,0,1,.59-.42.64.64,0,0,1,.58.37,6.27,6.27,0,0,1,.3.64,1.48,1.48,0,0,0,1.37,1c.41,0,.83,0,1.24,0A1.32,1.32,0,0,0,17.27,14c0-.22,0-.45,0-.67h0c0-.26,0-.53,0-.79a1.34,1.34,0,0,0-1.54-1.28l-.09,0a.68.68,0,0,1-.47.19H9.76a.69.69,0,0,1-.47-.18s-.06-.06-.09-.06a1.59,1.59,0,0,0-.38,0,1.33,1.33,0,0,0-1,1.27c0,.53,0,1.05,0,1.57A1.27,1.27,0,0,0,9,15.31a12,12,0,0,0,1.47,0A1.24,1.24,0,0,0,11.51,14.57Z"/><path class="cls-1" d="M14,0A14,14,0,1,0,28,14,14,14,0,0,0,14,0Zm5,5.31a.63.63,0,0,1,.72-.43.66.66,0,0,1,.57.6c0,.2,0,.41,0,.62s0,.09-.1.09H19s-.1,0-.1-.06A4.35,4.35,0,0,1,19,5.31ZM9.12,15.94a1.88,1.88,0,0,1-1.71-1A2,2,0,0,1,7.19,14V12.64a1.1,1.1,0,0,1,0-.26,1.49,1.49,0,0,1,.48-1.12h0l.13-.15A2,2,0,0,1,9,10.61s.12,0,.13-.08a.71.71,0,0,1,.71-.42h5.25a.73.73,0,0,1,.73.44s.08,0,.12,0a1.94,1.94,0,0,1,1.43.63,2,2,0,0,1,.52,1.3c0,.51,0,1,0,1.52a2,2,0,0,1-1.52,1.84,1.67,1.67,0,0,1-.5,0c-.45,0-.91,0-1.37,0a1.77,1.77,0,0,1-1.35-.8,7.62,7.62,0,0,1-.46-.9c-.06-.11-.11-.22-.18-.36-.14.31-.26.58-.37.85A1.79,1.79,0,0,1,11,15.78a3.61,3.61,0,0,1-.86.15A9,9,0,0,1,9.12,15.94Zm11.69,0a.73.73,0,0,1-.67.75.15.15,0,0,0-.14.13,3.6,3.6,0,0,1-1.19,1.75,4.12,4.12,0,0,1-1.41.73,9.47,9.47,0,0,1-1.28.29c-.43.07-.87.07-1.31.1a.22.22,0,0,0-.22.14A2.1,2.1,0,0,1,13.33,21a2.21,2.21,0,0,1-2-3.92,2.13,2.13,0,0,1,1.79-.27,2.17,2.17,0,0,1,1.45,1.27c.05.11.07.16.11.19l.27,0a9.53,9.53,0,0,0,1.7-.23l.19-.05a2.87,2.87,0,0,0,1.77-1.41.11.11,0,0,0,0-.17.76.76,0,0,1-.24-.57V12.92a.76.76,0,0,1,.43-.71.18.18,0,0,0,.12-.19V7.14c0-.12,0-.16.16-.16h1c.1,0,.15,0,.15.13v.28c0,.16,0,.33,0,.49V12a.16.16,0,0,0,.11.18.72.72,0,0,1,.44.7Z"/></g></g></svg>