<?xml version="1.0" encoding="UTF-8"?>
<svg width="28px" height="28px" viewBox="0 0 28 28" version="1.1" xmlns="http://www.w3.org/2000/svg" xmlns:xlink="http://www.w3.org/1999/xlink">
    <!-- Generator: Sketch 52.1 (67048) - http://www.bohemiancoding.com/sketch -->
    <title>icon-tent</title>
    <desc>Created with Sketch.</desc>
    <g id="Page-1" stroke="none" stroke-width="1" fill="none" fill-rule="evenodd">
        <g id="icon-tent">
            <circle id="Oval" fill="#FFFFFF" cx="14" cy="14" r="14"></circle>
            <path d="M23.24,18.15 L23.24,18.71 C21.86,17.94 18.24,15.27 14.61,7.09 L14.4,6.48 L14.81,5.28 C14.8541917,5.13533118 14.7754909,4.98171848 14.6322581,4.93307339 C14.4890253,4.8844283 14.3330519,4.95834032 14.28,5.1 L14.11,5.61 L13.94,5.1 C13.8839925,4.95690409 13.7260877,4.88233794 13.58,4.93 C13.4382855,4.98180485 13.3631064,5.13658548 13.41,5.28 L13.77,6.37 C10,15.13 6.21,17.92 4.79,18.71 L4.79,18.15 L3.68,18.36 L4.53,21.25 C4.56051754,21.3429202 4.65375986,21.4001401 4.75042591,21.3852684 C4.84709195,21.3703967 4.91882346,21.2877963 4.92,21.19 L4.92,20.4 L11.8,20.4 C11.8740854,20.396666 11.9361699,20.3428594 11.95,20.27 L14.05,14.57 C14.05,14.57 14.05,14.57 14.05,14.57 C14.05,14.57 14.05,14.57 14.05,14.57 L16.15,20.27 C16.1638301,20.3428594 16.2259146,20.396666 16.3,20.4 L23.18,20.4 L23.18,21.19 C23.1811765,21.2877963 23.252908,21.3703967 23.3495741,21.3852684 C23.4462401,21.4001401 23.5394825,21.3429202 23.57,21.25 L24.42,18.36 L23.24,18.15 Z M4.84,20 L4.84,19.34 C5.84,18.88 8.13,17.41 10.84,13.18 C9.32653587,15.8390855 7.2845952,18.1600914 4.84,20 Z M23.16,20 C20.7128809,18.1628173 18.6704389,15.8412415 17.16,13.18 C19.88,17.41 22.21,18.88 23.16,19.34 L23.16,20 Z" id="Shape" fill="#757575" fill-rule="nonzero"></path>
        </g>
    </g>
</svg>