<?xml version="1.0" encoding="UTF-8"?>
<svg width="28px" height="28px" viewBox="0 0 28 28" version="1.1" xmlns="http://www.w3.org/2000/svg" xmlns:xlink="http://www.w3.org/1999/xlink">
    <!-- Generator: Sketch 52.1 (67048) - http://www.bohemiancoding.com/sketch -->
    <title>icon-backpack</title>
    <desc>Created with Sketch.</desc>
    <g id="Page-1" stroke="none" stroke-width="1" fill="none" fill-rule="evenodd">
        <g id="icon-backpack">
            <circle id="Oval" fill="#FFFFFF" cx="14" cy="14" r="14"></circle>
            <path d="M12.88,6.68 C12.9388905,6.09785174 13.4154938,5.64678072 14,5.62 C14.5630852,5.63185738 15.0297809,6.06001858 15.09,6.62 C15.5633545,6.68038223 16.0193619,6.8369221 16.43,7.08 C16.43,7.02 16.43,6.96 16.43,6.9 C16.43,5.54690236 15.3330976,4.45 13.98,4.45 C12.6269024,4.45 11.53,5.54690236 11.53,6.9 C11.53,6.96 11.53,7.02 11.53,7.08 C11.945984,6.85110051 12.4064641,6.71466198 12.88,6.68 Z" id="Path" fill="#757575"></path>
            <path d="M16.43,7.56 C15.9110522,7.30225614 15.3538751,7.13003775 14.78,7.05 C14.2630769,6.97 13.7369231,6.97 13.22,7.05 C12.024091,7.21792327 10.9187509,7.78115393 10.08,8.65 C9.95,8.78 9.83,8.92 9.71,9.06 C9.29451964,9.58241584 8.97614225,10.1751397 8.77,10.81 C8.59378614,11.349259 8.50269302,11.9126868 8.5,12.48 L8.5,19.29 C8.50053917,19.4467473 8.52758733,19.6022742 8.58,19.75 C8.61569274,19.8596647 8.66615659,19.9639566 8.73,20.06 C9.0021856,20.5648036 9.52654109,20.8824788 10.1,20.89 L17.9,20.89 C18.3243464,20.89 18.7313126,20.7214291 19.0313708,20.4213708 C19.3314291,20.1213126 19.5,19.7143464 19.5,19.29 L19.5,12.48 C19.4946477,10.3898915 18.3050555,8.48344411 16.43,7.56 Z M17.54,18.21 L17.76,16.53 L18.21,16.53 L18.43,18.21 L17.54,18.21 Z M18.43,16.16 L9.57,16.16 L9.57,15.4 L18.43,15.4 L18.43,16.16 Z" id="Shape" fill="#757575" fill-rule="nonzero"></path>
            <path d="M21.71,18.07 L20.42,10.88 C20.2103882,9.8273111 19.4437553,8.9725154 18.42,8.65 C18.5480239,8.77940717 18.6682362,8.91631566 18.78,9.06 C19.2028784,9.57750831 19.5220343,10.1716814 19.72,10.81 C19.8996102,11.3487187 19.9940793,11.9121597 20,12.48 L20,15.77 L20.33,18 L20,18.3 L20,19.3 C19.99786,19.4558169 19.9743061,19.6105997 19.93,19.76 C19.8859772,19.8661203 19.8358947,19.9696241 19.78,20.07 L21,19.45 C21.5228885,19.2049184 21.814604,18.637922 21.71,18.07 Z" id="Path" fill="#757575"></path>
            <path d="M6.29,18.07 L7.58,10.88 C7.78961182,9.8273111 8.55624474,8.9725154 9.58,8.65 C9.45197611,8.77940717 9.33176378,8.91631566 9.22,9.06 C8.79712157,9.57750831 8.47796572,10.1716814 8.28,10.81 C8.1003898,11.3487187 8.00592066,11.9121597 8,12.48 L8,15.77 L7.67,18 L8,18.3 L8,19.3 C8.00213995,19.4558169 8.02569385,19.6105997 8.07,19.76 C8.11402281,19.8661203 8.16410531,19.9696241 8.22,20.07 L7,19.45 C6.47711153,19.2049184 6.18539597,18.637922 6.29,18.07 Z" id="Path" fill="#757575"></path>
        </g>
    </g>
</svg>