<?xml version="1.0" encoding="UTF-8"?>
<svg width="28px" height="28px" viewBox="0 0 28 28" version="1.1" xmlns="http://www.w3.org/2000/svg" xmlns:xlink="http://www.w3.org/1999/xlink">
    <!-- Generator: Sketch 52.1 (67048) - http://www.bohemiancoding.com/sketch -->
    <title>icon-winter</title>
    <desc>Created with Sketch.</desc>
    <g id="Page-1" stroke="none" stroke-width="1" fill="none" fill-rule="evenodd">
        <g id="icon-winter">
            <circle id="Oval" fill="#FFFFFF" cx="14" cy="14" r="14"></circle>
            <path d="M19.83,19.09 C19.8427054,21.8439619 17.9265611,24.2311874 15.2350717,24.8145846 C12.5435822,25.3979818 9.8109601,24.0184056 8.68222328,21.5063504 C7.55348646,18.9942953 8.33654352,16.0350259 10.56,14.41 C12.5038745,16.2102733 15.5061255,16.2102733 17.45,14.41 C18.9456985,15.4999738 19.8302186,17.2392821 19.83,19.09 Z" id="Path" fill="#757575"></path>
            <polygon id="Path" fill="#757575" points="7.02 13.36 6.02 13.36 6.02 14.79 4.64 14.9 4.73 15.89 6.36 15.76 9.99 18.8 10.63 18.03 7.02 15.01"></polygon>
            <polygon id="Path" fill="#757575" points="23.41 14.9 22.04 14.79 22.04 13.36 21.04 13.36 21.04 14.96 17.37 18.03 18.01 18.8 21.65 15.76 23.33 15.89"></polygon>
            <circle id="Oval" fill="#FFFFFF" cx="14" cy="18.41" r="1"></circle>
            <circle id="Oval" fill="#FFFFFF" cx="14" cy="21.89" r="1"></circle>
            <path d="M16.84,7.75 L17.71,7.75 L17.71,6.75 L16.37,6.75 L16.37,2.53 L11.62,2.53 L11.62,6.75 L10.37,6.75 L10.37,7.75 L11.15,7.75 C10.3067365,8.56478647 9.85692932,9.70437049 9.91634607,10.8754554 C9.97576282,12.0465404 10.5386003,13.1347464 11.46,13.86 C12.1770888,14.4447472 13.0747229,14.7628065 14,14.76 C15.6624544,14.7661841 17.1615573,13.7606551 17.7865629,12.2201484 C18.4115685,10.6796417 18.0368236,8.91386577 16.84,7.76 L16.84,7.75 Z M13.9,11.92 L10.9,11.25 L13.9,10.25 C14.1461124,10.4532672 14.2886227,10.7557996 14.2886227,11.075 C14.2886227,11.3942004 14.1461124,11.6967328 13.9,11.9 L13.9,11.92 Z" id="Shape" fill="#757575" fill-rule="nonzero"></path>
        </g>
    </g>
</svg>