<?xml version="1.0" encoding="UTF-8"?>
<svg width="17px" height="18px" viewBox="0 0 17 18" version="1.1" xmlns="http://www.w3.org/2000/svg" xmlns:xlink="http://www.w3.org/1999/xlink">
    <title>Group</title>
    <g id="Page-1" stroke="none" stroke-width="1" fill="none" fill-rule="evenodd">
        <g id="sport" transform="translate(-6.000000, -5.000000)" fill="#6B6B6B" fill-rule="nonzero">
            <g id="Group" transform="translate(6.000000, 5.000007)">
                <g transform="translate(8.500000, 8.999996) scale(-1, 1) rotate(-180.000000) translate(-8.500000, -8.999996) ">
                    <path d="M2.3834307,17.9632429 C2.2606479,17.9136512 2.17578332,17.8383451 2.1125863,17.722631 C2.06563994,17.6363046 2.05841742,17.6050801 2.05841742,17.4746721 L2.05841742,17.3240601 L1.66117897,17.3148764 C1.34519384,17.3075295 1.23505045,17.2983458 1.11949018,17.2689581 C0.590440786,17.1312032 0.176951673,16.7179384 0.0325013277,16.1816125 C0.00180562931,16.0677351 3.5663219e-14,15.6948784 3.5663219e-14,8.64182597 L3.5663219e-14,1.22142705 L0.0595857674,1.04510074 C0.155284121,0.764080681 0.296123208,0.554693187 0.521826872,0.352652622 C0.640998407,0.247958875 0.919065321,0.0973468175 1.10143388,0.0422448453 C1.20435475,0.0110203944 1.51672862,0.00918366203 7.52947424,0.00551019722 L13.8491768,0 L15.4254912,1.60346739 L17,3.20509805 L16.9963887,9.64284513 C16.9909719,15.7554906 16.9891662,16.0861024 16.9584705,16.1907962 C16.8483271,16.569163 16.5883165,16.9144687 16.2777483,17.0999787 C15.9960701,17.2671213 15.840786,17.3020193 15.3297929,17.3148764 L14.9325544,17.3240601 L14.9325544,17.4746721 C14.9325544,17.592223 14.9235263,17.639978 14.8928306,17.6987535 C14.8314392,17.8144676 14.7736591,17.8769165 14.6671269,17.9356919 C14.584068,17.983447 14.5533723,17.9907939 14.4269782,17.9907939 C14.3005842,17.9907939 14.2698885,17.983447 14.1850239,17.9356919 C13.9954328,17.8291615 13.9015401,17.6565086 13.9159851,17.4379375 L13.9232076,17.3203866 L12.9337228,17.3203866 L11.9460435,17.3203866 L11.9659055,17.3773253 C12.0092406,17.5040598 11.9442379,17.722631 11.826872,17.8438553 C11.5722783,18.1009979 11.1280935,18.0183449 10.98906,17.6858963 C10.9475305,17.5903863 10.9330855,17.4379375 10.9583643,17.3626314 L10.9710037,17.3203866 L9.97790759,17.3203866 L8.9866171,17.3203866 L9.00467339,17.3883457 C9.08050982,17.6656923 8.80244291,17.9999851 8.49548593,17.9999851 C8.18852894,17.9999851 7.91046203,17.6656923 7.98629846,17.3883457 L8.00435475,17.3203866 L7.01306426,17.3203866 L6.02177377,17.3203866 L6.03441317,17.3718151 C6.11747212,17.667529 5.84662772,18.0018143 5.52703133,17.9999851 C5.43133298,17.9981408 5.28327138,17.9467123 5.21465746,17.8897736 C5.07020712,17.770386 4.98353691,17.5444679 5.02326075,17.3938559 L5.04131705,17.3203866 L4.05544344,17.3203866 L3.06956984,17.3203866 L3.07498672,17.4563048 C3.08401487,17.612427 3.05151354,17.7079371 2.95220393,17.8236513 C2.81858736,17.9779368 2.56941052,18.038549 2.3834307,17.9632429 Z M16.1874668,9.40039645 L16.1874668,3.55591394 L16.1026022,3.46775078 L16.0177377,3.37958763 L15.3063197,3.37958763 C14.5118428,3.37958763 14.4757302,3.37591416 14.2464153,3.25468982 C14.0712693,3.1628532 13.8834838,2.96815957 13.7968136,2.78999652 C13.6812533,2.54754785 13.6776421,2.5163234 13.6776421,1.7173448 L13.6776421,0.999182429 L13.5909719,0.912856006 L13.5043016,0.826529583 L7.40308019,0.830203047 L1.30005311,0.835713245 L1.20074349,0.883468287 C1.05268189,0.955100851 0.940732873,1.0653048 0.872118959,1.20856992 L0.812533192,1.33163099 L0.807116304,8.28733662 L0.803505045,15.244879 L8.49548593,15.244879 L16.1874668,15.244879 L16.1874668,9.40039645 Z" id="Shape"></path>
                    <path d="M8.32936803,11.5622305 C8.22103027,11.147129 8.00796601,10.8697824 7.64684015,10.6824357 C7.3543282,10.5299869 7.11779076,10.4767216 6.64471588,10.4583543 L6.34678704,10.4454972 L6.34678704,9.86876322 L6.34678704,9.29386597 L7.07806691,9.29386597 L7.80934679,9.29386597 L7.80934679,6.59386934 L7.80934679,3.8938727 L8.72118959,3.8938727 L9.6330324,3.8938727 L9.6330324,7.7877454 L9.6330324,11.6816181 L8.99564525,11.6816181 L8.36006373,11.6816181 L8.32936803,11.5622305 Z" id="Path"></path>
                </g>
            </g>
        </g>
    </g>
</svg>