<svg xmlns="http://www.w3.org/2000/svg" viewBox="0 0 28 28"><defs><style>.cls-1{fill:#fff;fill-rule:evenodd;}</style></defs><title>board</title><g id="Слой_2" data-name="Слой 2"><g id="Слой_1-2" data-name="Слой 1"><circle cx="14.24" cy="13.85" r="11.33"/><path class="cls-1" d="M14,0A14,14,0,1,0,28,14,14,14,0,0,0,14,0Zm6.26,11.1h1.09a5.85,5.85,0,0,1-2.2,4.64A4.06,4.06,0,0,1,18,14.87l0,0h-.07a3.63,3.63,0,0,0-.35.3A6.26,6.26,0,0,1,15,16.66L17,13.06C20.17,12.54,20.26,11.1,20.26,11.1ZM13.3,7a.94.94,0,1,1-.94.94A.94.94,0,0,1,13.3,7ZM7.65,11.1s.54,1.05,2.81,1.68l.94-3a.6.6,0,0,1,.48-.47l1.68.47,1.8,1.74,1.24-.68.53-.3.42-.23.08,0h0l.11,0a.34.34,0,0,1,.35.35.18.18,0,0,1,0,.1h0l-.07.13-.06.11h0l-3.37,5.82h0a3.86,3.86,0,0,1-.6,0,5.23,5.23,0,0,1-3.56-1.6,3.63,3.63,0,0,0-.35-.3H10l0,0a3.78,3.78,0,0,1-1,.78A6.25,6.25,0,0,1,6.63,11.1Zm15.56,5.64a4,4,0,0,1-3,1.65,4.21,4.21,0,0,1-2.8-.69,4.73,4.73,0,0,1-6.74,0,4.21,4.21,0,0,1-2.8.69,4,4,0,0,1-3-1.65.07.07,0,0,1,.07-.11c.71.18,3.44.7,5.14-1.17,0,0,0,0,0,0h.07l.35.29A5.24,5.24,0,0,0,14,17.35a5.24,5.24,0,0,0,3.56-1.61l.35-.29H18s0,0,0,0c1.7,1.87,4.43,1.35,5.14,1.17A.07.07,0,0,1,23.21,16.74Z"/><path class="cls-1" d="M14.17,12.82a.72.72,0,0,1,.65.43c.57,0,1.07-.05,1.52-.09l1.09-1.89-.3.25-.53.42a3.94,3.94,0,0,1-1.21.75.88.88,0,0,1-.59-.17l-1.56-1-.4,1.38a.86.86,0,0,1,.24,0Z"/></g></g></svg>