<svg xmlns="http://www.w3.org/2000/svg" viewBox="0 0 28 28"><defs><style>.cls-1{fill:#fff;fill-rule:evenodd;}</style></defs><title>SUP</title><g id="Слой_2" data-name="Слой 2"><g id="Слой_1-2" data-name="Слой 1"><circle cx="13.42" cy="13.85" r="11.33"/><path class="cls-1" d="M16.27,8.86l.12-.07L15.92,8l0,.1a3.32,3.32,0,0,1-.57,1,.68.68,0,0,1-.48.12l-.15,0,.37.36Z"/><path class="cls-1" d="M14,0A14,14,0,1,0,28,14,14,14,0,0,0,14,0ZM12.56,5.47a.85.85,0,1,1,0,1.7.85.85,0,0,1,0-1.7ZM11.13,7.82a.61.61,0,0,1,.48-.46L13,7.74l1.83.5.61-1,0-.07L15,6.39l.31-.18.37.65h0l.21-.33a.25.25,0,0,1,0-.07h0A.24.24,0,0,1,16,6.39a.27.27,0,0,1,.38.11.32.32,0,0,1,0,.27h0s-.13.36-.31.79l.61,1.06.09,0,.42-.23.08-.05h0l.11,0a.34.34,0,0,1,.34.34.35.35,0,0,1-.15.29h0s-.2.18-.5.42l2.36,4.08a.78.78,0,0,1,.88.3l1.54,1.94a1,1,0,0,1-1.57,1.07l-1.23-2.16a.75.75,0,0,1,.08-1l-2.34-4,0,0-.52.42a4,4,0,0,1-1.19.74.92.92,0,0,1-.59-.16L13,9.54l-.37,1.28H10.21ZM21.78,19.64H6.22l-3.09-1.8h0a.12.12,0,0,1,0-.08.11.11,0,0,1,.11-.11h0l3,1.12H7.9a.58.58,0,0,1,0-.18A.45.45,0,0,1,8,18.34l1.68-3.57.32-2L11.28,14l-.44,1.45-2.15,3.3H12.9a.41.41,0,0,1-.05-.18.44.44,0,0,1,0-.1L13.29,15a30.68,30.68,0,0,1-2.51-2.13,1.62,1.62,0,0,1-.61-1.59l0-.1h2.38l-.22.76s1.39,1.33,1.88,1.82a1.13,1.13,0,0,1,.29,1.1l-.81,3.78a.58.58,0,0,1,0,.18h8.1l3-1.12h0a.11.11,0,0,1,.11.11.12.12,0,0,1,0,.08h0Z"/><path class="cls-1" d="M16.27,8.86l.12-.07L15.92,8l0,.1a3.32,3.32,0,0,1-.57,1,.68.68,0,0,1-.48.12l-.15,0,.37.36Z"/><path class="cls-1" d="M14,0A14,14,0,1,0,28,14,14,14,0,0,0,14,0ZM12.56,5.47a.85.85,0,1,1,0,1.7.85.85,0,0,1,0-1.7ZM11.13,7.82a.61.61,0,0,1,.48-.46L13,7.74l1.83.5.61-1,0-.07L15,6.39l.31-.18.37.65h0l.21-.33a.25.25,0,0,1,0-.07h0A.24.24,0,0,1,16,6.39a.27.27,0,0,1,.38.11.32.32,0,0,1,0,.27h0s-.13.36-.31.79l.61,1.06.09,0,.42-.23.08-.05h0l.11,0a.34.34,0,0,1,.34.34.35.35,0,0,1-.15.29h0s-.2.18-.5.42l2.36,4.08a.78.78,0,0,1,.88.3l1.54,1.94a1,1,0,0,1-1.57,1.07l-1.23-2.16a.75.75,0,0,1,.08-1l-2.34-4,0,0-.52.42a4,4,0,0,1-1.19.74.92.92,0,0,1-.59-.16L13,9.54l-.37,1.28H10.21ZM21.78,19.64H6.22l-3.09-1.8h0a.12.12,0,0,1,0-.08.11.11,0,0,1,.11-.11h0l3,1.12H7.9a.58.58,0,0,1,0-.18A.45.45,0,0,1,8,18.34l1.68-3.57.32-2L11.28,14l-.44,1.45-2.15,3.3H12.9a.41.41,0,0,1-.05-.18.44.44,0,0,1,0-.1L13.29,15a30.68,30.68,0,0,1-2.51-2.13,1.62,1.62,0,0,1-.61-1.59l0-.1h2.38l-.22.76s1.39,1.33,1.88,1.82a1.13,1.13,0,0,1,.29,1.1l-.81,3.78a.58.58,0,0,1,0,.18h8.1l3-1.12h0a.11.11,0,0,1,.11.11.12.12,0,0,1,0,.08h0Z"/></g></g></svg>