<svg xmlns="http://www.w3.org/2000/svg" viewBox="0 0 28 28"><defs><style>.cls-1{fill:#fff;fill-rule:evenodd;}</style></defs><title>splav</title><g id="Слой_2" data-name="Слой 2"><g id="Слой_1-2" data-name="Слой 1"><circle cx="14.34" cy="13.85" r="11.33"/><path class="cls-1" d="M14,0A14,14,0,1,0,28,14,14,14,0,0,0,14,0Zm.52,6.31a1.1,1.1,0,1,1-1.1,1.1A1.1,1.1,0,0,1,14.52,6.31Zm-3.83,9.92-.75-.1a12.28,12.28,0,0,0-4.72,1A.11.11,0,0,1,5.09,17c.74-.9,2.76-3,5.27-3a5.88,5.88,0,0,1,.6,0,10,10,0,0,1,2.67.67,19.17,19.17,0,0,0,2.9,1l-.26.38a1.46,1.46,0,0,0-1.56.58c-.11.15-.35.44-.49.61A15.24,15.24,0,0,0,10.69,16.23Zm12.23-2C22.39,15.32,20.78,18,17.68,18l-.55,0a1.18,1.18,0,0,1,0,.21c-.09.39-.31,1.28-.31,1.28a1.55,1.55,0,0,1-2.7-1.36s.54-.64.84-1a1.5,1.5,0,0,1,1.59-.55l3-5.16-.31.25-.63.5a4.62,4.62,0,0,1-1.43.89,1.08,1.08,0,0,1-.7-.19l-1.85-1.24L13.86,14a10.45,10.45,0,0,0-2.67-.67l1.2-3.88A.73.73,0,0,1,13,8.93l2,.56,2.13,2.06,1.46-.81.63-.35.5-.28.1,0h0a.32.32,0,0,1,.14,0,.42.42,0,0,1,.41.41.43.43,0,0,1-.17.33l-2.92,5.06a6.7,6.7,0,0,0,1.11,0,7.73,7.73,0,0,0,4.39-1.8A.11.11,0,0,1,22.92,14.2Z"/></g></g></svg>