<?xml version="1.0" encoding="UTF-8"?>
<svg width="28px" height="28px" viewBox="0 0 28 28" version="1.1" xmlns="http://www.w3.org/2000/svg" xmlns:xlink="http://www.w3.org/1999/xlink">
    <!-- Generator: Sketch 52.1 (67048) - http://www.bohemiancoding.com/sketch -->
    <title>icon-new-year</title>
    <desc>Created with Sketch.</desc>
    <g id="Page-1" stroke="none" stroke-width="1" fill="none" fill-rule="evenodd">
        <g id="icon-new-year">
            <circle id="Oval" fill="#FFFFFF" cx="14" cy="14" r="14"></circle>
            <g id="car-computer-icons-motor-vehicle-service-porsche-car" transform="translate(6.000000, 9.000000)" fill="#000000">
                <g id="Group" transform="translate(8.500000, 5.500000) scale(-1, 1) rotate(-180.000000) translate(-8.500000, -5.500000) ">
                    <path d="M0.861935484,10.9720037 C0.467096774,10.8752892 0.188387097,10.6258677 0.0567741935,10.2491902 C0.0180645161,10.1422952 0.0129032258,9.7834336 0.00516129032,6.51550208 C-0.00258064516,4.09254975 0.00516129032,2.83526145 0.0232258065,2.69782508 C0.0567741935,2.43822304 0.162580645,2.21425266 0.327741935,2.05136511 C0.580645161,1.80194354 0.787096774,1.74340583 1.40645161,1.74340583 L1.85032258,1.74340583 L1.92,1.53979639 C2.09548387,1.02059232 2.55483871,0.5090236 3.08129032,0.249421564 C3.45032258,0.066173068 3.58967742,0.030541416 4.0283871,0.017815826 C4.36129032,0.007635354 4.46709677,0.015270708 4.62193548,0.05090236 C5.41419355,0.244331328 6.01290323,0.7635354 6.30709677,1.51434521 L6.39225806,1.73068024 L8.22709677,1.73831559 L10.0619355,1.74340583 L10.0851613,1.68741323 C10.0980645,1.6543267 10.1393548,1.54997686 10.1780645,1.45071726 C10.3819355,0.91624248 10.8258065,0.45812124 11.3909677,0.201064322 C11.9070968,-0.033086534 12.5212903,-0.06362795 13.0683871,0.117075428 C13.7496774,0.34359093 14.32,0.898426654 14.5419355,1.54488663 L14.6090323,1.74340583 L15.5303226,1.74340583 L16.4516129,1.74340583 L16.4490323,3.4919019 L16.443871,5.24294308 L16.3741935,5.4720037 C16.1987097,6.04465525 15.8348387,6.47732531 15.3109677,6.74201758 C15.1329032,6.83109671 14.9367742,6.88708931 13.9458065,7.13905599 C13.6619355,7.21286441 13.2954839,7.30448866 13.1329032,7.34775567 C12.9703226,7.38847756 12.8051613,7.42919944 12.7690323,7.4368348 C12.7122581,7.44701527 12.5883871,7.60481259 12.1367742,8.2283665 C11.8296774,8.65849144 11.4941935,9.12170292 11.3935484,9.25659417 C11.2929032,9.39148542 11.1070968,9.64854234 10.9780645,9.82924572 C10.5651613,10.4095326 10.2348387,10.67677 9.70064516,10.8600185 C9.29290323,11 9.56645161,10.9923646 5.10709677,10.9974549 C1.88645161,11.0025451 0.962580645,10.9974549 0.861935484,10.9720037 Z M5.28774194,8.67885238 L5.28774194,7.52082369 L3.23612903,7.52082369 L1.18451613,7.52082369 L1.18451613,8.67885238 L1.18451613,9.83688107 L3.23612903,9.83688107 L5.28774194,9.83688107 L5.28774194,8.67885238 Z M9.30322581,9.77070801 C9.50451613,9.70198982 9.72129032,9.56200833 9.8116129,9.43729755 C9.88129032,9.34312818 10.0283871,9.14206386 10.3716129,8.66612679 C10.4645161,8.53632578 10.5832258,8.37343822 10.6374194,8.30217492 C10.6890323,8.2283665 10.7870968,8.09602036 10.8490323,8.00439611 C10.9135484,7.91277186 11.0193548,7.76770014 11.083871,7.68116613 L11.2025806,7.52082369 L8.83870968,7.52082369 L6.47483871,7.52082369 L6.47483871,8.67885238 L6.47483871,9.83942619 L7.8116129,9.83179084 C9.08387097,9.82415548 9.15354839,9.82161037 9.30322581,9.77070801 Z M12.4825806,6.31443776 C12.7225806,6.24826469 13.3316129,6.09046738 14.1393548,5.88940305 C14.4154839,5.82068487 14.6890323,5.74433133 14.7458065,5.71888015 C14.916129,5.64761684 15.076129,5.50254512 15.1535484,5.35492827 L15.2258065,5.2174919 L14.9522581,5.20985655 L14.6812903,5.20222119 L14.6812903,4.63211476 L14.6812903,4.05946321 L14.9780645,4.05946321 L15.2748387,4.05946321 L15.2748387,3.47408607 L15.2748387,2.88870893 L14.9445161,2.88870893 L14.6141935,2.88870893 L14.5677419,3.03123554 C14.4335484,3.45372513 14.1032258,3.89912078 13.716129,4.17908376 C13.3754839,4.4259602 12.9883871,4.57612217 12.5703226,4.61938917 C12.0283871,4.67792689 11.5019355,4.54303563 11.0167742,4.22489588 C10.6477419,3.98310967 10.2683871,3.4919019 10.1367742,3.0821379 L10.0748387,2.88870893 L8.22967742,2.88870893 L6.38451613,2.88870893 L6.32258065,3.0821379 C6.12645161,3.67515039 5.6,4.21726053 4.97806452,4.46668209 C4.64774194,4.59902823 4.47483871,4.62702453 4.0283871,4.61175382 C3.68,4.60157335 3.59741935,4.59139287 3.44258065,4.53540028 C3.1483871,4.43105044 3.06580645,4.39287367 2.83870968,4.24525683 C2.41032258,3.97038408 2.06451613,3.53007867 1.90967742,3.06177696 L1.85032258,2.88870893 L1.51741935,2.88870893 L1.18451613,2.88870893 L1.18451613,3.47408607 L1.18451613,4.05946321 L1.48129032,4.05946321 L1.77806452,4.05946321 L1.77806452,4.63211476 L1.77806452,5.20476631 L1.48129032,5.20476631 L1.18451613,5.20476631 L1.18451613,5.79014345 L1.18451613,6.37552059 L6.72258065,6.37552059 L12.2580645,6.37552059 L12.4825806,6.31443776 Z M4.4,3.43845442 C5.04258065,3.27047663 5.41419355,2.6443776 5.24903226,2.01573346 C5.19483871,1.80703378 5.12,1.67977788 4.96774194,1.51943545 C4.4516129,0.97987043 3.53032258,1.07149468 3.12774194,1.70268394 C2.94709677,1.98264692 2.9083871,2.4178621 3.03225806,2.73091161 C3.2516129,3.27811199 3.84258065,3.58607126 4.4,3.43845442 Z M12.6141935,3.4359093 C12.8335484,3.38500694 12.9987097,3.29338269 13.1664516,3.12795002 C13.3290323,2.96760759 13.4296774,2.77672374 13.4864516,2.51966682 C13.5251613,2.3465988 13.5251613,2.31351226 13.4864516,2.12517353 C13.4245161,1.80703378 13.2825806,1.57542804 13.0425806,1.3998149 C12.676129,1.12748727 12.2529032,1.0893105 11.8193548,1.28528459 C11.6180645,1.37690884 11.3987097,1.58051828 11.3058065,1.75867654 C11.0193548,2.31351226 11.2206452,3.0261453 11.7445161,3.3086534 C12.043871,3.46899584 12.3019355,3.50717261 12.6141935,3.4359093 Z" id="Shape" fill-rule="nonzero"></path>
                    <path d="M3.90967742,2.85307728 C3.61290323,2.7436372 3.45032258,2.36695974 3.58193548,2.08699676 C3.75483871,1.71795465 4.24258065,1.6263304 4.52903226,1.91138362 C4.66064516,2.04118464 4.70193548,2.15826006 4.68903226,2.36695974 C4.67612903,2.55784359 4.59354839,2.7003702 4.43354839,2.80472004 C4.30451613,2.88870893 4.06709677,2.90906988 3.90967742,2.85307728 Z" id="Path"></path>
                    <path d="M12.1135484,2.8556224 C11.9922581,2.7996298 11.8709677,2.68764461 11.8167742,2.58074965 C11.7496774,2.45349375 11.7496774,2.20152707 11.8141935,2.05900046 C11.9432258,1.77903748 12.3122581,1.66196205 12.6090323,1.80703378 C13.0167742,2.0080981 13.0322581,2.58838501 12.6322581,2.81235539 C12.5083871,2.8836187 12.2296774,2.90652476 12.1135484,2.8556224 Z" id="Path"></path>
                </g>
            </g>
        </g>
    </g>
</svg>