<?xml version="1.0" encoding="UTF-8"?>
<svg width="12px" height="16px" viewBox="0 0 12 16" version="1.1" xmlns="http://www.w3.org/2000/svg" xmlns:xlink="http://www.w3.org/1999/xlink">
    <!-- Generator: Sketch 52.1 (67048) - http://www.bohemiancoding.com/sketch -->
    <title>Combined Shape</title>
    <desc>Created with Sketch.</desc>
    <g id="Page-1" stroke="none" stroke-width="1" fill="none" fill-rule="evenodd">
        <g id="Group" fill="#757575">
            <path d="M3.85507179,8.86521001 L2.6008529,15.2938944 L2.31230088,15.2938944 C2.24996551,14.6701769 1.96905804,14.3583181 1.46957848,14.3583181 C0.97009892,14.3583181 0.669110731,14.6318698 0.566613918,15.1789732 C0.0910790064,14.9822005 -0.0851337675,14.5564293 0.0379755958,13.9016596 C0.222639641,12.9195051 0.472386018,11.9670959 0.648372419,11.249063 C0.82435882,10.53103 1.43712877,10.4301925 1.77007114,10.4301925 C1.99203272,10.4301925 2.35800584,10.4301925 2.86799051,10.4301925 L3.25782694,8.69477775 L3.25950004,8.69520383 C3.2495505,8.68470148 3.2397402,8.67366881 3.23008969,8.66208394 C2.98342475,8.36597722 3.10182574,8.02503771 3.23008969,7.87150034 C3.31559898,7.76914209 4.52097745,6.41496173 6.8462251,3.80895929 C7.13647241,3.56663485 7.4442493,3.44547263 7.76955578,3.44547263 C8.25751549,3.44547263 8.36933502,3.60138634 8.62444726,3.80895929 C8.8795595,4.01653224 9.99068857,6.48603012 10.0615812,6.56344719 C10.1324738,6.64086425 11.4784664,7.25494293 11.7083068,7.42594844 C11.9381473,7.59695395 12.0803708,7.76007619 11.9508396,8.19825746 C11.8213084,8.63643872 11.4603795,8.65836851 11.3072761,8.61348452 C11.1541726,8.56860053 9.56205343,7.87712425 9.39814046,7.79925306 C9.23422748,7.72138188 9.1874354,7.71016531 9.09466545,7.56232547 C9.0018955,7.41448562 8.73578021,6.77878529 8.68011374,6.80439034 C8.62444726,6.82999538 8.07040527,9.61602787 8.07040527,9.77007427 C8.07040527,9.92412068 9.89140863,14.7402867 9.95521222,14.9522013 C10.0190158,15.1641159 10.0190158,15.5537851 9.65670387,15.8484234 C9.29439192,16.1430617 8.82873442,15.9686563 8.63986613,15.5945821 C8.51395393,15.3451994 7.58494371,13.3032573 5.85283547,9.46875567 C5.72686028,9.13533533 5.68285023,8.8295055 5.72080533,8.55126617 C5.75876044,8.27302684 5.87554703,7.65251981 6.07116511,6.68974508 C4.72530132,8.07922311 4.01494242,8.79389154 3.94008839,8.83375038 C3.9192456,8.8448489 3.89017505,8.85611502 3.85507179,8.86521001 Z M1.41972567,16 C1.09368887,16 0.829383827,15.7079519 0.829383827,15.3476923 C0.829383827,14.9874327 1.09368887,14.6953846 1.41972567,14.6953846 C1.74576246,14.6953846 2.0100675,14.9874327 2.0100675,15.3476923 C2.0100675,15.7079519 1.74576246,16 1.41972567,16 Z M8.73773675,2.85 C7.95032714,2.85 7.31200552,2.21200577 7.31200552,1.425 C7.31200552,0.637994232 7.95032714,0 8.73773675,0 C9.52514637,0 10.163468,0.637994232 10.163468,1.425 C10.163468,2.21200577 9.52514637,2.85 8.73773675,2.85 Z M5.93440259,10.7753166 L7.01898115,13.1610342 C7.02994337,13.2267332 7.02333918,13.2753811 6.9991686,13.3069779 C6.96291272,13.354373 5.17434661,15.5380314 4.98525182,15.7634205 C4.79615704,15.9888097 4.40539476,16.146146 4.00515191,15.7634205 C3.60490906,15.3806951 3.83607582,14.9223845 3.94474359,14.7618628 C4.01718876,14.6548484 4.52143666,13.9388096 5.45748728,12.6137463 L5.93440259,10.7753166 Z" id="Combined-Shape"></path>
        </g>
    </g>
</svg>