<?xml version="1.0" encoding="UTF-8"?>
<svg width="28px" height="28px" viewBox="0 0 28 28" version="1.1" xmlns="http://www.w3.org/2000/svg" xmlns:xlink="http://www.w3.org/1999/xlink">
    <!-- Generator: Sketch 52.1 (67048) - http://www.bohemiancoding.com/sketch -->
    <title>icon-board-grey</title>
    <desc>Created with Sketch.</desc>
    <g id="Page-1" stroke="none" stroke-width="1" fill="none" fill-rule="evenodd">
        <g id="icon-board-grey">
            <circle id="Oval" fill="#757575" cx="14.24" cy="13.85" r="11.33"></circle>
            <path d="M14,0 C6.2680135,-4.73447626e-16 9.46895252e-16,6.2680135 0,14 C-9.46895252e-16,21.7319865 6.2680135,28 14,28 C21.7319865,28 28,21.7319865 28,14 C28,10.2869691 26.5250042,6.72601436 23.8994949,4.10050506 C21.2739856,1.47499577 17.7130309,2.27357568e-16 14,0 Z M20.26,11.1 L21.35,11.1 C21.3709702,12.9030691 20.5592531,14.615054 19.15,15.74 C18.7178246,15.5209439 18.3283494,15.2262974 18,14.87 L17.93,14.87 C17.8070952,14.9624837 17.6901929,15.0626857 17.58,15.17 C16.8524451,15.8670628 15.9673801,16.378205 15,16.66 L17,13.06 C20.17,12.54 20.26,11.1 20.26,11.1 Z M13.3,7 C13.6801945,7 14.0229526,7.22902365 14.1684468,7.58027757 C14.3139409,7.9315315 14.2335185,8.33584226 13.9646804,8.60468037 C13.6958423,8.87351849 13.2915315,8.9539409 12.9402776,8.80844676 C12.5890236,8.66295262 12.36,8.32019451 12.36,7.94 C12.36,7.42085234 12.7808523,7 13.3,7 Z M7.65,11.1 C7.65,11.1 8.19,12.15 10.46,12.78 L11.4,9.78 C11.4490778,9.54005004 11.6390701,9.35401591 11.88,9.31 L13.56,9.78 L15.36,11.52 L16.6,10.84 L17.13,10.54 L17.55,10.31 L17.63,10.31 L17.74,10.31 C17.8336554,10.3072024 17.924314,10.3431782 17.9905679,10.4094321 C18.0568218,10.475686 18.0927976,10.5663446 18.09,10.66 C18.0994451,10.6926643 18.0994451,10.7273357 18.09,10.76 L18.02,10.89 L17.96,11 L14.59,16.82 C14.3903029,16.8355676 14.1896971,16.8355676 13.99,16.82 C12.6413291,16.7660277 11.3657454,16.1927317 10.43,15.22 C10.3198071,15.1126857 10.2029048,15.0124837 10.08,14.92 L10,14.92 C9.71297293,15.2344619 9.37488213,15.4981728 9,15.7 C7.58253464,14.5810697 6.71833552,12.9037212 6.63,11.1 L7.65,11.1 Z M23.21,16.74 C22.5078189,17.7118101 21.4067466,18.3173999 20.21,18.39 C19.224541,18.4967967 18.233001,18.2524529 17.41,17.7 C16.520971,18.6026801 15.3069665,19.110964 14.04,19.110964 C12.7730335,19.110964 11.559029,18.6026801 10.67,17.7 C9.846999,18.2524529 8.85545895,18.4967967 7.87,18.39 C6.67325341,18.3173999 5.57218108,17.7118101 4.87,16.74 C4.85299089,16.716734 4.85197996,16.6854211 4.86745293,16.6611064 C4.8829259,16.6367917 4.9117199,16.6244456 4.94,16.63 C5.65,16.81 8.38,17.33 10.08,15.46 C10.08,15.46 10.08,15.46 10.08,15.46 L10.15,15.46 L10.5,15.75 C11.4215036,16.7079491 12.6726267,17.2798911 14,17.35 C15.3498515,17.2923577 16.6252709,16.7155528 17.56,15.74 L17.91,15.45 L18,15.45 C18,15.45 18,15.45 18,15.45 C19.7,17.32 22.43,16.8 23.14,16.62 C23.1724679,16.606118 23.2101917,16.6185917 23.227984,16.6490927 C23.2457762,16.6795937 23.2380655,16.7185709 23.21,16.74 Z" id="Shape" fill="#FFFFFF"></path>
            <path d="M14.17,12.82 C14.4522191,12.8235435 14.7063417,12.9916553 14.82,13.25 C15.39,13.25 15.89,13.2 16.34,13.16 L17.43,11.27 L17.13,11.52 L16.6,11.94 C16.2455516,12.2613961 15.8355268,12.5155438 15.39,12.69 C15.1793015,12.7060066 14.9698781,12.6456642 14.8,12.52 L13.24,11.52 L12.84,12.9 C12.9196068,12.8887823 13.0003932,12.8887823 13.08,12.9 L14.17,12.82 Z" id="Path" fill="#FFFFFF"></path>
        </g>
    </g>
</svg>