<svg xmlns="http://www.w3.org/2000/svg" viewBox="0 0 28 28"><defs><style>.cls-1{fill:#fff;}</style></defs><title>new_year</title><g id="Слой_2" data-name="Слой 2"><g id="Слой_1-2" data-name="Слой 1"><circle class="cls-1" cx="14" cy="14" r="14"/><path d="M14,4.85,10.83,9.76a15.18,15.18,0,0,0,5.59-1.17Zm-.5,3.92A.74.74,0,1,1,14.24,8,.74.74,0,0,1,13.5,8.77Z"/><path d="M18.29,11.49,17,9.44a16.51,16.51,0,0,1-6.81,1.35l-.45.7H11l-.92,1.42a15.48,15.48,0,0,0,8.11.4L17,11.49Zm-2.37,1.64a.74.74,0,1,1,.74-.74A.74.74,0,0,1,15.92,13.13Z"/><path d="M19.65,15.57l0-.06-.86-1.34a11.5,11.5,0,0,1-3.63.54,18.53,18.53,0,0,1-5.61-.93L8.35,15.57H9.67L8.42,17.5c1.91.36,6.43.86,10.27-1.38l-.36-.55ZM12,16.92a.74.74,0,1,1,.74-.74A.74.74,0,0,1,12,16.92Z"/><path d="M21.14,19.92H6.86l1-1.51a19.38,19.38,0,0,0,4,.42A14.46,14.46,0,0,0,19.23,17Z"/><rect x="12.56" y="20.39" width="2.88" height="2.36"/><path class="cls-1" d="M19.65,15.57h-.12a.16.16,0,0,0,.08-.06Z"/><polygon points="14 2.43 14.39 3.23 15.27 3.35 14.64 3.97 14.79 4.85 14 4.44 13.21 4.85 13.36 3.97 12.73 3.35 13.61 3.23 14 2.43"/></g></g></svg>