<?xml version="1.0" encoding="UTF-8"?>
<svg width="26px" height="26px" viewBox="0 0 26 26" version="1.1" xmlns="http://www.w3.org/2000/svg" xmlns:xlink="http://www.w3.org/1999/xlink">
    <!-- Generator: Sketch 52.1 (67048) - http://www.bohemiancoding.com/sketch -->
    <title>icon-nalegke-black</title>
    <desc>Created with Sketch.</desc>
    <g id="Page-1" stroke="none" stroke-width="1" fill="none" fill-rule="evenodd">
        <g id="icon-nalegke-black">
            <circle id="Oval" fill="#FFFFFF" cx="13" cy="13" r="13"></circle>
            <path d="M14.7042,13.5297 C14.6732,13.9357 14.6952,14.5907 14.7502,15.0507 C14.9782,16.9887 15.4992,21.7407 15.4782,21.7177 C15.5252,22.0327 15.4372,22.7797 14.7262,22.6527 C14.2842,22.5727 14.2202,22.1527 14.1252,21.8447 L12.8942,15.7137 L11.3952,18.4367 C11.1932,18.8587 11.0502,19.1397 10.6142,19.2797 C9.5992,19.6087 7.7862,20.1397 7.7862,20.1397 C7.4772,20.2587 6.7702,20.3427 6.7272,19.7427 C6.7332,19.2757 7.1062,19.1387 7.4272,18.9987 C7.4272,18.9987 8.7902,18.4087 9.5362,18.0297 C9.7902,17.9017 9.9312,17.6947 10.0202,17.4047 L11.1572,14.4987 C11.3252,13.9937 11.3962,13.6407 11.3822,13.2537 L11.2562,9.9307 C10.5022,9.8487 7.9062,10.0347 6.7332,10.1577 C6.3652,10.1967 5.9932,10.0317 6.0002,9.5677 C6.0062,9.1027 6.3722,8.9747 6.6922,8.9277 C6.9452,8.8917 10.5602,8.2637 12.5372,8.2377 C14.3492,8.2147 15.2532,7.6017 15.6272,7.3877 C16.0272,7.1587 17.5122,6.3347 17.9082,6.1047 C18.2732,5.8927 18.5852,6.0387 18.7322,6.2987 C18.8792,6.5587 18.7732,6.8607 18.4582,7.0927 C17.4162,7.8627 14.8762,9.8847 14.8762,9.8847 L14.7042,13.5297 Z M14.9317,5.4017 C15.0877,6.3127 14.4597,7.1577 13.5387,7.3127 C12.6187,7.4687 11.7667,6.8457 11.6097,5.9347 C11.4517,5.0237 12.0797,4.1797 12.9997,4.0237 C13.9207,3.8687 14.7747,4.4907 14.9317,5.4017 Z" id="Fill-1" fill="#757575" fill-rule="nonzero"></path>
        </g>
    </g>
</svg>