<svg viewBox="0 0 28 28" xmlns="http://www.w3.org/2000/svg"><circle cx="13.8" cy="13.85" r="11.33"/><path d="m14 0a14 14 0 1 0 14 14 14 14 0 0 0 -14-14zm0 4.64a15.48 15.48 0 0 1 1.37 2.22l-.09.4a3.3 3.3 0 0 0 .44 2.5l-.58 1c-.29-.85-.7-1.37-1.14-1.37-.89 0-1.6 2.06-1.6 4.61a12.43 12.43 0 0 0 .07 1.39l-1.25 2.16a13.41 13.41 0 0 1 -.51-3.55 17 17 0 0 1 3.29-9.36zm0 18.72a16 16 0 0 1 -1.38-2.22l.1-.4a3.33 3.33 0 0 0 -.44-2.51l.58-1c.29.85.69 1.38 1.14 1.38.88 0 1.6-2.06 1.6-4.61a12.43 12.43 0 0 0 -.07-1.39l1.25-2.17a14 14 0 0 1 .51 3.56 17 17 0 0 1 -3.29 9.36zm6.46-15.88s-.87 1-1.36 1.62a2.72 2.72 0 0 1 -1.93 1 1.41 1.41 0 0 1 -.49-.09h-.08l-1.16 2-2.73 4.73-.88 1.54a2.77 2.77 0 0 1 .53 2.35c-.15.63-.5 2.06-.5 2.06a2 2 0 0 1 -1.84.9 2.7 2.7 0 0 1 -1.19-.26c-1-.48-1.77-1.87-1.29-2.83 0 0 .87-1 1.35-1.62a2.76 2.76 0 0 1 1.94-1 1.67 1.67 0 0 1 .49.08h.07l1.17-2 2.73-4.72.88-1.54a2.8 2.8 0 0 1 -.53-2.35l.49-2.06a2 2 0 0 1 1.87-.9 2.7 2.7 0 0 1 1.19.26c.93.48 1.75 1.87 1.27 2.83z" fill="#fff" fill-rule="evenodd"/></svg>