<?xml version="1.0" encoding="UTF-8"?>
<svg width="25px" height="28px" viewBox="0 0 25 28" version="1.1" xmlns="http://www.w3.org/2000/svg" xmlns:xlink="http://www.w3.org/1999/xlink">
    <!-- Generator: Sketch 52.1 (67048) - http://www.bohemiancoding.com/sketch -->
    <title>Combined Shape</title>
    <desc>Created with Sketch.</desc>
    <g id="Page-1" stroke="none" stroke-width="1" fill="none" fill-rule="evenodd">
        <g id="Group" transform="translate(13.000000, 14.000000) scale(-1, 1) rotate(-180.000000) translate(-13.000000, -14.000000) " fill="#6B6B6B">
            <path d="M22.40739,2.80452934 C20.0662757,1.04364004 17.1550155,0 14,0 C6.2680135,0 0,6.2680135 0,14 C0,21.7319865 6.2680135,28 14,28 C17.6445574,28 20.9638475,26.6073649 23.4547546,24.3252103 C22.0537214,25.6075985 20.3880166,26.6077349 18.5396825,27.2419312 C16.7731092,27.8506268 14.875817,28.0970926 12.9934641,27.9626567 C9.12418301,27.6900507 5.51260504,25.7930115 3.08123249,22.7570019 C0.1232493,19.071219 -0.773109244,14.1493732 0.690943044,9.65697519 C1.73669468,6.44918645 3.90289449,3.73806348 6.82352941,1.97919445 C9.17273576,0.563883702 12.0410831,-0.138170179 14.7749767,0.0261403041 C16.1008403,0.108295545 17.1503268,0.302480662 18.3454715,0.690850894 C19.830218,1.17546716 21.1974505,1.89572391 22.4073727,2.80455254 Z M22.4434245,2.83172369 C23.8334954,3.88428547 25.0209523,5.19039607 25.936954,6.68121409 C25.0245398,5.19491512 23.8395135,3.88744692 22.4434245,2.83172369 Z M24.6827235,23.0491751 C24.3148677,23.4833565 23.9209873,23.8945592 23.5032861,24.2805364 C23.9208008,23.8943998 24.314746,23.4831466 24.6827215,23.0491775 Z M11.0961718,23.8548946 C10.7226891,23.9183782 10.3940243,23.9706588 10.3716153,23.9706588 C10.3492063,23.9706588 10.3753501,23.9370499 10.4313725,23.8922379 C10.5471522,23.802614 10.5583567,23.7316618 10.4537815,23.7578021 C10.3492063,23.7839424 10.3604108,23.7391304 10.4911298,23.6158976 C10.6442577,23.4702587 10.8646125,23.0034676 11.0625584,22.4022406 C11.2530345,21.8159509 11.4845938,20.9533209 11.4547152,20.9234463 C11.4435107,20.9122433 11.3426704,20.9346492 11.2343604,20.9719925 C10.9505135,21.0653508 10.2558357,21.0653508 9.96825397,20.9719925 C9.45658263,20.8002134 9.22128852,20.5313417 9.22128852,20.1205655 C9.22128852,19.8292878 9.29598506,19.6687117 9.51260504,19.5006668 C9.75163399,19.3176847 10.0504202,19.2243265 10.4537815,19.2019205 C11.3165266,19.1571086 11.9813259,19.5417445 11.9850607,20.0869565 C11.9850607,20.1579088 11.8281979,20.8450253 11.6339869,21.6105628 L11.2829132,22.9997333 L11.3912232,22.9997333 C11.4509804,22.9997333 11.6788049,22.906375 11.8991597,22.7943452 C12.1195145,22.6823153 12.3062558,22.5889571 12.3137255,22.5889571 C12.3211951,22.5889571 12.3137255,22.6076287 12.2987862,22.633769 C12.2427638,22.7233929 12.2502334,23.0146706 12.3137255,23.257402 C12.3510738,23.3918378 12.3734827,23.563617 12.3660131,23.6345692 L12.3548086,23.7652707 L12.0672269,23.7540678 C11.869281,23.7428648 11.5704949,23.7764737 11.0961718,23.8548946 Z M19.1372549,21.0056015 C18.853408,21.0877567 18.7114846,21.1064284 18.2408964,21.1176314 C17.5985061,21.1325687 17.3109244,21.0914911 16.6535948,20.886103 C15.5966387,20.5537477 14.4463119,19.8965057 13.2698413,18.9554548 C12.7282913,18.5185383 12.4070962,18.1899173 12.0186741,17.6708456 C10.5845005,15.7514004 9.45658263,13.13737 9.14659197,11.0125367 C8.83660131,8.86156308 9.24369748,7.24459856 10.4052288,6.00480128 C11.6788049,4.65297413 13.4901961,4.30194719 15.7385621,4.9703921 C16.5116713,5.19818618 17.3445378,5.5716191 18.3305322,6.13176847 C18.5845005,6.27367298 19.1223156,6.55001334 19.5256769,6.74419845 C20.8104575,7.36409709 21.146592,7.53961056 21.5648926,7.81968525 C22.2745098,8.29021072 22.6965453,8.74206455 22.8608777,9.20885569 C23.0550887,9.76900507 22.8309991,10.4747933 22.2595705,11.0946919 C22.0877684,11.277674 22.0840336,11.2814084 21.3968254,11.4830621 C20.5938375,11.7220592 20.2352941,11.8863697 19.9514472,12.1440384 C19.56676,12.4987997 19.5070028,12.3755668 20.6386555,13.5518805 C22.3380019,15.3107495 23.3464052,16.5542811 24.0597572,17.7754068 C24.3697479,18.3056815 24.3734827,18.2944785 23.9365079,18.0704188 C23.1932773,17.6857829 21.9794585,16.8044812 20.5602241,15.6169645 C20.4145658,15.497466 20.3099907,15.4265137 20.3211951,15.4601227 C20.3697479,15.5833556 20.5751634,16.5692185 20.6311858,16.938917 C20.8776844,18.5894905 20.6984127,19.9077087 20.1531279,20.4678581 C19.9551821,20.6695119 19.56676,20.8749 19.1372549,21.0056015 Z M8.6162465,18.8247533 C8.54901961,19.048813 8.48552754,19.2280608 8.47432306,19.2280608 C8.46311858,19.2243265 8.410831,19.1608429 8.35480859,19.0786877 C8.04481793,18.6305682 7.33146592,18.4139771 5.78524743,18.2944785 C5.19887955,18.2496666 4.83660131,18.17498 4.73576097,18.0853561 C4.63492063,17.9957322 4.67226891,17.6969859 4.81045752,17.4990664 C5.08683473,17.0920245 5.29598506,16.4497199 5.39309057,15.6916511 L5.41923436,15.497466 L5.2735761,15.5385436 C4.7805789,15.6729795 4.06349206,15.4003734 3.81699346,14.9783942 C3.70121382,14.7804748 3.65639589,14.3547613 3.73109244,14.1307015 C3.96638655,13.4137103 5.1503268,13.3091491 5.75163399,13.9514537 C5.95331466,14.1643105 6.02427638,14.3510269 6.02054155,14.634836 C6.01680672,14.8215524 5.81139122,15.6804481 5.45284781,17.006135 C5.38935574,17.2301947 5.34453782,17.4206455 5.35200747,17.4243798 C5.3557423,17.4281142 5.47152194,17.4169112 5.60971055,17.3945052 C6.10270775,17.3160843 7.00653595,17.5028007 7.9178338,17.8650307 C8.2054155,17.9807949 8.4519141,18.0704188 8.45938375,18.0592158 C8.46685341,18.0517471 8.54901961,17.7081889 8.63492063,17.301147 L8.79551821,16.5580155 L8.44070962,16.5393438 C8.16059757,16.5244065 8.03734827,16.4982662 7.8767507,16.4235796 C7.43604108,16.2181915 7.20448179,15.8933049 7.20448179,15.47506 C7.20448179,15.0157375 7.3426704,14.7916778 7.73482726,14.6161643 C7.92903828,14.5265404 8.02240896,14.5078688 8.26890756,14.5078688 C8.52661064,14.5078688 8.60504202,14.5228061 8.81419234,14.623633 C8.95238095,14.6871166 9.13538749,14.8028808 9.22128852,14.8813017 C9.44164332,15.0792211 9.5200747,15.2622033 9.5200747,15.5945585 C9.5200747,15.826087 9.47152194,16.0202721 9.12791783,17.1443051 C8.91129785,17.846359 8.68347339,18.6044278 8.6162465,18.8247533 Z M6.74509804,12.5958922 C6.42016807,12.6481728 6.1363212,12.6929848 6.11391223,12.6929848 C6.09150327,12.6929848 6.10644258,12.6556415 6.1512605,12.6070952 C6.25583567,12.4950654 6.25583567,12.4577221 6.1512605,12.491331 L6.06535948,12.513737 L6.14379085,12.4278474 C6.2745098,12.2784743 6.37535014,12.0880235 6.51353875,11.7295279 C6.63305322,11.4158442 6.90569561,10.4897306 6.90569561,10.392638 C6.90569561,10.3627634 6.85714286,10.3664977 6.74883287,10.403841 C6.52847806,10.4822619 6.00560224,10.4785276 5.7665733,10.3963724 C5.39309057,10.2694052 5.22128852,10.0752201 5.20634921,9.76900507 C5.1914099,9.44411843 5.28851541,9.28727661 5.61718021,9.11549747 C5.77030812,9.03707655 5.87114846,9.01467058 6.16246499,9.00346759 C6.70028011,8.98106162 7.05882353,9.11176314 7.24929972,9.39557215 C7.36134454,9.57108562 7.33146592,9.81008269 7.05882353,10.8930381 C6.88328665,11.5801547 6.81605976,11.9087757 6.84593838,11.9087757 C6.87208217,11.9087757 7.04388422,11.8340891 7.22689076,11.7481995 L7.55929038,11.583889 L7.56676004,11.8116831 C7.57049486,11.9386503 7.58169935,12.1552414 7.59663866,12.2934116 L7.62278245,12.547346 L7.48085901,12.5212057 C7.39122316,12.5100027 7.09990663,12.5398773 6.74509804,12.5958922 Z M18.4276377,19.6649773 C18.7525677,19.7695385 19.2530345,19.6238997 19.4957983,19.3512937 C19.6937442,19.1234996 19.7721755,18.9106428 19.7684407,18.5932249 C19.7684407,18.2608696 19.6601307,18.0106695 19.4323063,17.8090157 C18.9691877,17.4019739 18.3193277,17.4393172 17.9010271,17.891171 C17.6844071,18.1264337 17.6097106,18.3430248 17.6321195,18.6753801 C17.6507937,18.9815951 17.7217554,19.1459056 17.9197012,19.3512937 C18.0653595,19.5081355 18.1960784,19.5865564 18.4276377,19.6649773 Z M15.3501401,19.1496399 C15.4397759,19.1683115 15.5816993,19.1720459 15.6638655,19.1645772 C15.8879552,19.1384369 16.2577031,18.9479861 16.3734827,18.798613 C16.7394958,18.3131502 16.713352,17.7193918 16.3099907,17.3160843 C15.78338,16.7895439 14.8608777,16.9575887 14.5583567,17.6372366 C14.2745098,18.2832755 14.659197,19.0152041 15.3501401,19.1496399 Z M23.3127918,17.4318485 C23.5368814,17.5774873 23.7273576,17.6969859 23.7348273,17.6969859 C23.7422969,17.6969859 23.6862745,17.5998933 23.611578,17.4841291 C22.4052288,15.5796212 19.8431373,12.8759669 16.5602241,10.0378768 C15.503268,9.12670045 14.5396825,8.34995999 14.4911298,8.36863164 C14.4313725,8.38730328 13.9645191,8.8503601 13.9645191,8.88770339 C13.9645191,9.03707655 17.2773109,12.4054415 18.6143791,13.6153641 C20.4780579,15.3032809 22.1811391,16.6849827 23.3127918,17.4318485 Z M12.8664799,16.9687917 C13.101774,17.0584156 13.4976657,17.0248066 13.7366947,16.8941051 C14.2521008,16.6140304 14.4500467,15.9866631 14.1848739,15.463857 C14.0653595,15.2211256 13.9383754,15.0941584 13.6881419,14.9597226 C13.4640523,14.8402241 12.9673203,14.8439584 12.7394958,14.9634569 C12.2390289,15.2285943 12.0149393,15.8111496 12.2091503,16.3227527 C12.3211951,16.6177647 12.5602241,16.8530275 12.8664799,16.9687917 Z M11.5555556,14.2128568 C11.7310924,14.2688717 12.0746965,14.2502001 12.2689076,14.1680448 C12.5004669,14.0709523 12.6834734,13.8954388 12.8029879,13.6564417 C13.0830999,13.1000267 12.8590103,12.4502534 12.302521,12.185116 C12.0298786,12.0544145 11.6265173,12.0581488 11.3576097,12.1925847 C11.1372549,12.3008802 10.961718,12.4875967 10.8496732,12.7265938 C10.7376284,12.9730595 10.745098,13.3950387 10.8608777,13.6265671 C11.0177404,13.9290477 11.2194211,14.1008269 11.5555556,14.2128568 Z M11.1970121,10.8967725 C11.8580766,11.0013337 12.4519141,10.4897306 12.4444444,9.81755135 C12.4407096,9.20885569 11.9813259,8.75326754 11.3688142,8.75326754 C10.7563025,8.75326754 10.2969188,9.20885569 10.2931839,9.81755135 C10.2857143,10.3552947 10.6741363,10.8146172 11.1970121,10.8967725 Z M13.1540616,8.73833022 C13.5835668,8.89143772 13.837535,8.79061083 14.1139122,8.36116298 C14.3604108,7.97652707 14.3492063,7.67031208 14.0728291,7.37156575 C13.8524743,7.13256868 13.6619981,7.02427314 12.7768441,6.62843425 C11.8767507,6.2251267 11.5704949,6.03841024 11.2791783,5.73219525 L11.0774977,5.51560416 L11.1036415,5.74713257 C11.1932773,6.52760736 11.6265173,7.40144038 12.2614379,8.08482262 C12.5751634,8.42091224 12.8590103,8.63003468 13.1540616,8.73833022 Z" id="Combined-Shape"></path>
        </g>
    </g>
</svg>