<svg xmlns="http://www.w3.org/2000/svg" viewBox="0 0 28 28"><defs><style>.cls-1{fill:#fff;fill-rule:evenodd;}</style></defs><title>swim</title><g id="Слой_2" data-name="Слой 2"><g id="Слой_1-2" data-name="Слой 1"><circle cx="14.17" cy="13.85" r="11.33"/><path class="cls-1" d="M14,0A14,14,0,1,0,28,14,14,14,0,0,0,14,0Zm3.69,12.23a1.7,1.7,0,1,1-1.7,1.7A1.7,1.7,0,0,1,17.69,12.23Zm-8.06-.3a1.55,1.55,0,0,1-.44-1,6.85,6.85,0,0,1,1-2.29l.59-1c.52-.88,1-1.59,1-1.59h0a.6.6,0,0,1,.46-.35.61.61,0,0,1,.69.51.74.74,0,0,1,0,.21h0a.52.52,0,0,1-.06.16l-.29.78-.37,1-.86,2.32,3.47,2.65L16,16.12a1.06,1.06,0,0,1-.69,1l-2.14,1A5.28,5.28,0,0,1,11,16.85l-.3-.25h0s0,0,0,0h0A3.78,3.78,0,0,1,8,17.77a2.74,2.74,0,0,1-.88-.88l4.73-2.53Zm12.18,6.72A3.36,3.36,0,0,1,19.23,20a3.44,3.44,0,0,1-2.37-.58A4,4,0,0,1,14,20.66a4.07,4.07,0,0,1-2.44-.82,3,3,0,0,1-.42-.38A3,3,0,0,1,9.61,20a4.55,4.55,0,0,1-.84,0,3.36,3.36,0,0,1-2.58-1.39.06.06,0,0,1,.07-.09,6,6,0,0,0,1.7.16,3.74,3.74,0,0,0,2.65-1.16h.08c.11.09.21.17.29.25a5.38,5.38,0,0,0,2.18,1.27,3.61,3.61,0,0,0,.84.09,4.43,4.43,0,0,0,3-1.36c.08-.08.18-.16.29-.25h.08c1.44,1.59,3.76,1.14,4.35,1A.06.06,0,0,1,21.81,18.65Z"/></g></g></svg>