<?xml version="1.0" encoding="UTF-8"?>
<svg width="16px" height="14px" viewBox="0 0 16 14" version="1.1" xmlns="http://www.w3.org/2000/svg" xmlns:xlink="http://www.w3.org/1999/xlink">
    <!-- Generator: Sketch 52.1 (67048) - http://www.bohemiancoding.com/sketch -->
    <title>kisspng-ice-skates-ice-skating-figure-skating-ice-rink-rol-5ae444aac3c417_3647477515249092268019</title>
    <desc>Created with Sketch.</desc>
    <g id="Page-1" stroke="none" stroke-width="1" fill="none" fill-rule="evenodd">
        <g id="icon-nalegke-black" transform="translate(-5.000000, -5.000000)" fill="#757575">
            <g id="kisspng-ice-skates-ice-skating-figure-skating-ice-rink-rol-5ae444aac3c417_3647477515249092268019" transform="translate(5.000000, 5.000000)">
                <g id="Group" transform="translate(8.000000, 7.000000) scale(-1, 1) rotate(-180.000000) translate(-8.000000, -7.000000) ">
                    <path d="M7.00571118,13.9695321 C6.15719336,13.867247 5.03453903,13.5342764 3.94887136,13.0620239 C3.65732934,12.9357998 2.98069078,12.6202394 2.96328529,12.6028292 C2.9611096,12.5984766 2.94805548,12.4831338 2.93717705,12.3460283 C2.91542018,12.0739935 2.80010878,11.4341676 2.69567582,11.0010881 C2.62170247,10.687704 2.53249932,10.422198 2.24748436,9.65179543 C1.60130541,7.91294886 1.56649442,7.7867247 1.50122382,6.98803047 C1.47729127,6.67899891 1.47511558,5.99564744 1.49687245,5.8476605 L1.51210226,5.75190424 L2.17786239,5.46028292 C2.90236606,5.14254625 2.85450095,5.1577802 4.59069894,4.67899891 C8.13489258,3.70402612 10.1365243,3.20130577 10.9806908,3.08161045 C11.6377482,2.98803047 12.2469404,2.95756257 12.9018221,2.99020675 C13.8808812,3.04026115 14.9926571,3.21218716 15.2559151,3.35582155 C15.5017677,3.48857454 15.5887952,3.67355822 15.5887952,4.05875952 C15.5887952,4.30685528 15.5887952,4.31120783 15.5148219,4.42437432 C15.4147403,4.58324266 15.1841175,4.78781284 14.8773457,4.99673558 C14.5009519,5.25136017 14.1376122,5.41675734 13.1193908,5.79325354 C12.4122926,6.05440696 12.0663584,6.25462459 11.0307316,7.00761697 C10.784879,7.18607182 10.3780256,7.4820457 10.1256459,7.6648531 C9.36197987,8.21762786 9.06826217,8.57236126 8.59396247,9.51904244 C8.42643459,9.85418934 8.39815067,9.95865071 8.39815067,10.226333 C8.39815067,10.4330794 8.41773185,10.5897715 8.52869187,11.3014146 C8.63965189,12.0130577 8.62442208,12.7138194 8.48082676,13.6060936 C8.45689421,13.7627856 8.42861028,13.9020675 8.42208322,13.9151251 C8.37204243,13.9934712 7.493065,14.0282916 7.00571118,13.9695321 Z" id="Path"></path>
                    <path d="M1.52298069,5.35146899 C1.52298069,5.3405876 1.5382105,5.22524483 1.55561599,5.09249184 C1.59695404,4.781284 1.59695404,4.25462459 1.5534403,3.79325354 C1.53603481,3.58868335 1.52515638,3.41675734 1.53168344,3.41240479 C1.54038618,3.40369967 2.6347566,3.16866159 4.14033179,2.8531012 L4.4819146,2.781284 L4.54283383,2.87704026 C4.62768561,3.01414581 4.83872722,3.16648531 5.17378298,3.3297062 C5.50666304,3.49292709 5.61544738,3.52339499 5.75033995,3.49292709 C5.86129997,3.46898803 6.12673375,3.37758433 6.45091107,3.25353645 C6.78596682,3.12513602 7.8368235,2.77257889 8.26760946,2.64417845 C9.11830296,2.39173014 10.3649714,2.24156692 12.2599946,2.16322089 C13.4740277,2.11316649 14.403046,2.19804135 15.062279,2.42219804 C15.3516454,2.5179543 15.4647811,2.60718172 15.5322274,2.78781284 C15.5996736,2.9640914 15.6149035,3.1273123 15.5670383,3.17301415 C15.5213489,3.218716 15.4277944,3.24483134 15.3908077,3.218716 C15.0753332,2.99020675 15.0535763,2.98150163 14.7620343,2.93144723 C14.6053848,2.90533188 14.3965189,2.86833515 14.2942616,2.85092492 C13.7612184,2.75299238 12.2317106,2.71817193 11.5289638,2.78563656 C10.5760131,2.87704026 9.61000816,3.01849837 9.05520805,3.14472252 C8.36986674,3.30359086 6.52053304,3.79107726 5.24340495,4.1523395 C4.80391624,4.27856366 1.77318466,5.26659412 1.56214305,5.35364527 C1.54038618,5.36235038 1.52298069,5.3601741 1.52298069,5.35146899 Z" id="Path"></path>
                    <path d="M2.78487898,2.781284 C2.77835192,2.51577802 2.7326625,1.99347116 2.71090563,1.93688792 C2.65216209,1.79978237 2.61952679,1.79107726 2.10388904,1.78237214 C1.16399239,1.76713819 0.491705194,1.70620239 0.326353005,1.62132753 C0.143595322,1.52774755 0,1.25788901 0,1.00761697 C0,0.929270947 0.0021756867,0.927094668 0.0935545281,0.916213275 C0.254555344,0.89445049 0.741909165,0.842219804 1.9146043,0.718171926 C2.54337775,0.652883569 3.13951591,0.587595212 3.24177318,0.576713819 C3.85096546,0.507072905 7.87381017,0.189336235 9.58389992,0.0761697497 C11.1982595,-0.0304678999 12.8017405,-0.0239390642 15.1971716,0.0979325354 L15.5887952,0.117519042 L15.7215121,0.261153428 C15.958662,0.517954298 16.0282839,0.718171926 15.9869459,1.02285092 C15.923851,1.49727965 15.6932282,1.84548422 15.3146587,2.04570185 C15.0426979,2.18933624 14.7511558,2.17410229 14.6858852,2.01088139 C14.6467229,1.91947769 14.6706554,1.86289445 14.8164264,1.68226333 C14.9817786,1.4820457 15.0426979,1.3601741 15.027468,1.26224157 C15.0100626,1.14907508 14.9534947,1.08378672 14.8207778,1.01849837 L14.6967637,0.957562568 L14.0005439,0.951033732 C13.6176231,0.946681175 13.0410661,0.953210011 12.7168888,0.964091404 C11.8836008,0.990206746 11.8901278,0.988030468 11.6508023,1.55168662 C11.5528964,1.78454842 11.5093826,1.86289445 11.4767473,1.87159956 C11.4528148,1.87595212 11.2417732,1.88683351 11.006799,1.89336235 L10.5781887,1.9085963 L10.569486,1.63873776 C10.5520805,1.10554951 10.465053,1.05767138 9.63176503,1.11425462 C9.04432962,1.15342764 8.3111232,1.18389554 7.40821322,1.2078346 C6.58580364,1.22959739 6.14849062,1.26659412 5.58716345,1.3601741 C5.16072886,1.43199129 4.96709274,1.48422198 4.75605113,1.58650707 C4.4993201,1.70837867 4.34049497,1.83025027 4.06418276,2.11969532 C3.86619527,2.32644178 3.79439761,2.41566921 3.68778896,2.58759521 C3.67255915,2.61153428 3.53984226,2.64853101 3.23307044,2.70946681 C2.73918956,2.80957563 2.78487898,2.80087051 2.78487898,2.781284 Z" id="Path"></path>
                </g>
            </g>
        </g>
    </g>
</svg>