<?xml version="1.0" encoding="UTF-8"?>
<svg width="21px" height="13px" viewBox="0 0 21 13" version="1.1" xmlns="http://www.w3.org/2000/svg" xmlns:xlink="http://www.w3.org/1999/xlink">
    <!-- Generator: Sketch 52.1 (67048) - http://www.bohemiancoding.com/sketch -->
    <title>icon-new-year</title>
    <desc>Created with Sketch.</desc>
    <g id="Page-1" stroke="none" stroke-width="1" fill="none" fill-rule="evenodd">
        <g id="icon-new-year" transform="translate(-5.000000, -8.000000)" fill="#757575">
            <g id="car-computer-icons-motor-vehicle-service-porsche-car" transform="translate(5.000000, 8.000000)">
                <g id="Group" transform="translate(10.500000, 6.500000) scale(-1, 1) rotate(-180.000000) translate(-10.500000, -6.500000) ">
                    <path d="M1.06474383,12.9669135 C0.577001898,12.8526145 0.232713472,12.5578436 0.0701328273,12.1126793 C0.0223149905,11.9863489 0.0159392789,11.5622397 0.00637571157,7.70013882 C-0.00318785579,4.8366497 0.00637571157,3.35076354 0.0286907021,3.18833873 C0.0701328273,2.88153633 0.200834915,2.61684405 0.404857685,2.42434058 C0.717267552,2.12956964 0.972296015,2.06038871 1.7373814,2.06038871 L2.2856926,2.06038871 L2.37176471,1.81975937 C2.5885389,1.20615456 3.15597723,0.601573346 3.80629981,0.294770939 C4.26216319,0.0782045349 4.4343074,0.0360944007 4.97624288,0.0210550671 C5.38747628,0.00902360019 5.51817837,0.0180472004 5.70944972,0.0601573346 C6.68812144,0.288755206 7.42770398,0.902360019 7.79111954,1.7896807 L7.89631879,2.04534938 L10.1628843,2.05437298 L12.4294497,2.06038871 L12.4581404,1.99421564 C12.4740797,1.95511337 12.5250854,1.83179084 12.5729032,1.71448404 C12.8247438,1.08283202 13.373055,0.541416011 14.0711954,0.237621472 C14.7087666,-0.0391022675 15.4674763,-0.0751966682 16.1433017,0.13836187 C16.9848956,0.406062008 17.6894118,1.06177696 17.9635674,1.8257751 L18.0464516,2.06038871 L19.1845161,2.06038871 L20.3225806,2.06038871 L20.3193928,4.12679315 L20.3130171,6.19620546 L20.226945,6.46691347 C20.0101708,7.14368348 19.5606831,7.65502082 18.9135484,7.96783896 C18.6935863,8.0731143 18.4513093,8.13928737 17.2271727,8.43706617 C16.8765085,8.52429431 16.423833,8.63257751 16.2229981,8.68371124 C16.0221632,8.73183711 15.8181404,8.77996298 15.7735104,8.78898658 C15.7033776,8.80101805 15.5503605,8.98750578 14.9924858,9.72443313 C14.6131309,10.2327626 14.1987097,10.7801944 14.0743833,10.9396113 C13.9500569,11.0990282 13.7205313,11.4028228 13.5611385,11.6163813 C13.0510816,12.3021749 12.6430361,12.6180009 11.9831499,12.8345673 C11.4794687,13 11.8173814,12.9909764 6.3087666,12.9969921 C2.33032258,13.0030079 1.18907021,12.9969921 1.06474383,12.9669135 Z M6.53191651,10.2568255 L6.53191651,8.88824618 L3.99757116,8.88824618 L1.46322581,8.88824618 L1.46322581,10.2568255 L1.46322581,11.6254049 L3.99757116,11.6254049 L6.53191651,11.6254049 L6.53191651,10.2568255 Z M11.4922201,11.5472004 C11.7408729,11.465988 12.0086528,11.3005553 12.1202277,11.1531698 C12.2062998,11.0418788 12.3880076,10.8042573 12.8119924,10.2417862 C12.9267552,10.088385 13.0733966,9.89588154 13.1403416,9.81166127 C13.2040987,9.72443313 13.3252372,9.56802406 13.4017457,9.45974086 C13.4814421,9.35145766 13.6121442,9.18000925 13.6918406,9.07774179 L13.838482,8.88824618 L10.9184061,8.88824618 L7.99833017,8.88824618 L7.99833017,10.2568255 L7.99833017,11.6284128 L9.64963947,11.6193892 C11.2212524,11.6103656 11.3073245,11.6073577 11.4922201,11.5472004 Z M15.4196584,7.46251735 C15.716129,7.38431282 16.468463,7.19782508 17.4662619,6.96020361 C17.8073624,6.87899121 18.1452751,6.78875521 18.215408,6.75867654 C18.4258065,6.67445627 18.6234535,6.50300787 18.7190892,6.3285516 L18.8083491,6.16612679 L18.4704364,6.15710319 L18.1357116,6.14807959 L18.1357116,5.47431745 L18.1357116,4.79754743 L18.502315,4.79754743 L18.8689184,4.79754743 L18.8689184,4.10573808 L18.8689184,3.41392874 L18.4608729,3.41392874 L18.0528273,3.41392874 L17.9954459,3.58236927 C17.8296774,4.08167515 17.4216319,4.60805183 16.9434535,4.93891717 C16.5226565,5.23068024 16.0444782,5.40814438 15.5280455,5.45927811 C14.8585958,5.52845905 14.2082732,5.36904211 13.6089564,4.99305877 C13.153093,4.70731143 12.6844782,4.12679315 12.5218975,3.64252661 L12.445389,3.41392874 L10.1660721,3.41392874 L7.88675522,3.41392874 L7.81024668,3.64252661 C7.56796964,4.34335956 6.91764706,4.98403517 6.14937381,5.27880611 C5.74132827,5.43521518 5.52774194,5.46830171 4.97624288,5.45025451 C4.54588235,5.43822304 4.44387097,5.42619158 4.25259962,5.36001851 C3.88918406,5.23669597 3.78717268,5.19157797 3.50664137,5.0171217 C2.97745731,4.6922721 2.55028463,4.17191115 2.35901328,3.61846367 L2.2856926,3.41392874 L1.8744592,3.41392874 L1.46322581,3.41392874 L1.46322581,4.10573808 L1.46322581,4.79754743 L1.82982922,4.79754743 L2.19643264,4.79754743 L2.19643264,5.47431745 L2.19643264,6.15108746 L1.82982922,6.15108746 L1.46322581,6.15108746 L1.46322581,6.84289681 L1.46322581,7.53470615 L8.30436433,7.53470615 L15.142315,7.53470615 L15.4196584,7.46251735 Z M5.43529412,4.06362795 C6.22907021,3.86510875 6.68812144,3.12517353 6.48409867,2.38223045 C6.4171537,2.13558538 6.32470588,1.98519204 6.13662239,1.79569644 C5.49905123,1.15802869 4.36098672,1.26631189 3.86368121,2.01226284 C3.64053131,2.34312818 3.59271347,2.85747339 3.74573055,3.227441 C4.01669829,3.87413235 4.74671727,4.23808422 5.43529412,4.06362795 Z M15.5822391,4.06062008 C15.8532068,4.00046275 16.0572296,3.89217955 16.2644402,3.69666821 C16.4652751,3.50717261 16.5896015,3.2815826 16.6597343,2.97778806 C16.7075522,2.77325312 16.7075522,2.73415086 16.6597343,2.51156872 C16.5832258,2.13558538 16.4078937,1.8618695 16.1114231,1.6543267 C15.6587476,1.33248496 15.1359393,1.28736696 14.6003795,1.5189727 C14.3517268,1.6272559 14.080759,1.86788524 13.9659962,2.07843591 C13.6121442,2.73415086 13.860797,3.57635354 14.5079317,3.91022675 C14.877723,4.09972235 15.1965085,4.14484035 15.5822391,4.06062008 Z" id="Shape" fill-rule="nonzero"></path>
                    <path d="M4.82960152,3.3718186 C4.4629981,3.24248033 4.26216319,2.79731606 4.42474383,2.46645072 C4.63833017,2.03031004 5.24083491,1.92202684 5.59468691,2.25890791 C5.75726755,2.41230912 5.80827324,2.55067099 5.79233397,2.79731606 C5.77639469,3.02290606 5.6743833,3.1913466 5.47673624,3.31466913 C5.31734345,3.41392874 5.02406072,3.43799167 4.82960152,3.3718186 Z" id="Path"></path>
                    <path d="M14.9637951,3.37482647 C14.8139658,3.3086534 14.6641366,3.17630727 14.5971917,3.04997686 C14.5143074,2.89958353 14.5143074,2.60180472 14.5940038,2.43336418 C14.7533966,2.10249884 15.20926,1.96413697 15.5758634,2.13558538 C16.0795446,2.37320685 16.0986717,3.05900046 15.6045541,3.32369273 C15.451537,3.407913 15.1072486,3.4349838 14.9637951,3.37482647 Z" id="Path"></path>
                </g>
            </g>
        </g>
    </g>
</svg>