<?xml version="1.0" encoding="UTF-8"?>
<svg width="13px" height="19px" viewBox="0 0 13 19" version="1.1" xmlns="http://www.w3.org/2000/svg" xmlns:xlink="http://www.w3.org/1999/xlink">
    <!-- Generator: Sketch 50 (54983) - http://www.bohemiancoding.com/sketch -->
    <title>icon-nalegke-grey</title>
    <desc>Created with Sketch.</desc>
    <defs></defs>
    <g id="Page-1" stroke="none" stroke-width="1" fill="none" fill-rule="evenodd">
        <g id="icon-nalegke-grey" fill="#767676" fill-rule="nonzero">
            <path d="M8.7042,9.5297 C8.6732,9.9357 8.6952,10.5907 8.7502,11.0507 C8.9782,12.9887 9.4992,17.7407 9.4782,17.7177 C9.5252,18.0327 9.4372,18.7797 8.7262,18.6527 C8.2842,18.5727 8.2202,18.1527 8.1252,17.8447 L6.8942,11.7137 L5.3952,14.4367 C5.1932,14.8587 5.0502,15.1397 4.6142,15.2797 C3.5992,15.6087 1.7862,16.1397 1.7862,16.1397 C1.4772,16.2587 0.7702,16.3427 0.7272,15.7427 C0.7332,15.2757 1.1062,15.1387 1.4272,14.9987 C1.4272,14.9987 2.7902,14.4087 3.5362,14.0297 C3.7902,13.9017 3.9312,13.6947 4.0202,13.4047 L5.1572,10.4987 C5.3252,9.9937 5.3962,9.6407 5.3822,9.2537 L5.2562,5.9307 C4.5022,5.8487 1.9062,6.0347 0.7332,6.1577 C0.3652,6.1967 -0.0068,6.0317 0.0002,5.5677 C0.0062,5.1027 0.3722,4.9747 0.6922,4.9277 C0.9452,4.8917 4.5602,4.2637 6.5372,4.2377 C8.3492,4.2147 9.2532,3.6017 9.6272,3.3877 C10.0272,3.1587 11.5122,2.3347 11.9082,2.1047 C12.2732,1.8927 12.5852,2.0387 12.7322,2.2987 C12.8792,2.5587 12.7732,2.8607 12.4582,3.0927 C11.4162,3.8627 8.8762,5.8847 8.8762,5.8847 L8.7042,9.5297 Z M8.9317,1.4017 C9.0877,2.3127 8.4597,3.1577 7.5387,3.3127 C6.6187,3.4687 5.7667,2.8457 5.6097,1.9347 C5.4517,1.0237 6.0797,0.1797 6.9997,0.0237 C7.9207,-0.1313 8.7747,0.4907 8.9317,1.4017 Z" id="Fill-1"></path>
        </g>
    </g>
</svg>