<?xml version="1.0" encoding="UTF-8"?>
<svg width="28px" height="28px" viewBox="0 0 28 28" version="1.1" xmlns="http://www.w3.org/2000/svg" xmlns:xlink="http://www.w3.org/1999/xlink">
    <!-- Generator: Sketch 52.1 (67048) - http://www.bohemiancoding.com/sketch -->
    <title>icon_horse-grey</title>
    <desc>Created with Sketch.</desc>
    <g id="Page-1" stroke="none" stroke-width="1" fill="none" fill-rule="evenodd">
        <g id="icon_horse-grey">
            <circle id="Oval" fill="#757575" cx="14.2" cy="13.9" r="11.3"></circle>
            <polygon id="Path" fill="#FFFFFF" points="14.6 9.7 14.2 8.9 13.5 9.9 15.3 11.7 16.8 11.7 17.7 10.4 16.2 9.4"></polygon>
            <path d="M14,0 C6.3,0 0,6.3 0,14 C0,21.7 6.3,28 14,28 C21.7,28 28,21.7 28,14 C28,6.3 21.7,0 14,0 Z M15,6.2 C14.5,6.4 13.9,6 13.8,5.5 C13.7,5 14,4.4 14.5,4.3 C15.6,3.9 16.3,5.8 15,6.2 Z M7.3,21.4 L7,17.4 C7,17.4 6.9,16.7 7.1,16.5 C7.3,16.3 8,15.2 8,15.2 L8.8,16.1 L7.9,16.9 L8.1,17.3 L8.3,21.4 L7.3,21.4 Z M23.6,10.8 L23.3,11.4 C23.3,11.5 23.2,11.6 23.1,11.6 L23,11.6 L22.5,11.3 L20.5,11.3 C20,12.8 19.4,14.3 18.7,15.7 L18.7,21.6 L17.9,21.6 L17.4,18.4 L17.9,16.6 L17.4,16.6 L16,21.4 L15.1,21.4 C15.1,21.4 15.4,18.2 15.5,17.5 C14.9,17.3 14.5,16.7 14.6,16 L10.9,16 C10.9,16 10.8,16.7 10.4,16.9 C10.5,17.9 11.1,21.4 11.1,21.4 L10.1,21.4 L8.7,16.8 L9.4,16.3 L8.1,14.4 C7.9,14.2 7.9,13.9 7.9,13.7 C7.9,13.5 7.9,13.4 8,13.2 L8.3,12.2 C8.2,12.2 8,12.3 7.9,12.4 C7.5,12.6 7.7,14 7.5,14.8 C7.3,15.3 6.9,15.7 6.4,15.8 C6,15.9 5.6,15.9 5.1,15.8 C5.8,15.4 5.9,13.4 6.1,12.6 C6.3,11.8 7.5,11.5 7.5,11.5 L12.7,11.5 L13.9,12.4 L14.2,14.3 C14.2,14.5 14.4,14.7 14.6,14.6 L14,12.2 L12.2,10.8 C11.9,10.7 11.7,10.4 11.7,10 C11.7,9.8 11.8,9.7 11.8,9.5 L14,6.3 L15,6.7 L15.1,8.8 L16.6,8.8 C16.8,8.8 16.9,9 16.9,9.1 C16.9,9.2 16.9,9.3 16.8,9.3 L17.9,10.1 L20.3,6.9 L20.3,8.3 L20.8,8.3 L23.6,10.5 C23.7,10.6 23.7,10.6 23.7,10.7 C23.6,10.7 23.6,10.8 23.6,10.8 Z" id="Shape" fill="#FFFFFF"></path>
        </g>
    </g>
</svg>