<?xml version="1.0" encoding="UTF-8"?>
<svg width="26px" height="26px" viewBox="0 0 26 26" version="1.1" xmlns="http://www.w3.org/2000/svg" xmlns:xlink="http://www.w3.org/1999/xlink">
    <title>img_21602</title>
    <g id="Page-1" stroke="none" stroke-width="1" fill="none" fill-rule="evenodd">
        <g id="icon-na-konkah-black" transform="translate(-29.000000, 0.000000)" fill-rule="nonzero">
            <g id="img_21602" transform="translate(29.000000, 0.000000)">
                <circle id="Oval" fill="#FFFFFF" cx="13" cy="13" r="13"></circle>
                <g id="Group" transform="translate(11.500000, 13.000000) scale(-1, 1) rotate(-180.000000) translate(-11.500000, -13.000000) translate(4.000000, 4.000000)" fill="#757575">
                    <path d="M10.8973116,17.994326 C10.3472202,17.9042533 9.89647642,17.5163891 9.7290573,16.9851438 C9.67018464,16.8013219 9.65730625,16.4447074 9.70146074,16.248018 C9.76769248,15.9483883 9.89463665,15.7259638 10.1227682,15.5108921 C10.284668,15.3564817 10.4576064,15.249865 10.6581414,15.1818509 C10.8697151,15.1101604 11.2303101,15.0972929 11.463961,15.1542777 C11.7491254,15.2222918 11.9754172,15.3564817 12.1796317,15.577068 C12.4592768,15.8803742 12.5788619,16.2167682 12.5567847,16.6358822 C12.5420665,16.8785271 12.5107904,17.0108789 12.4132826,17.2057301 C12.2366646,17.5641828 11.8834286,17.8564596 11.5044359,17.9593999 C11.3940497,17.9888114 11.0040183,18.01087 10.8973116,17.994326 Z" id="Path"></path>
                    <path d="M8.78157546,15.3380996 C8.64543243,15.3178791 8.48721216,15.2608944 8.37498616,15.1892038 C8.30507488,15.1450866 6.25373068,14.0109054 5.77723011,13.7535548 C5.67604272,13.6984082 5.61717007,13.6506145 5.54357924,13.56238 C5.41111576,13.4024549 5.4773475,13.529292 4.42315896,11.3785758 L4.1269559,10.7738017 L4.1269559,10.6340971 C4.1269559,10.5127746 4.13615475,10.4760102 4.18766833,10.3712317 C4.26125915,10.222336 4.36612607,10.1267486 4.56666107,10.0256466 C4.70280409,9.95763246 4.72488134,9.95027959 4.82606872,9.95947068 C4.96589128,9.9705 5.10571385,10.0385141 5.21242054,10.1488072 C5.30072953,10.2425564 5.39455783,10.4135108 6.02927867,11.6671762 L6.43770774,12.4704779 L7.2968806,12.9612824 C7.76970164,13.2315005 8.17445117,13.4649544 8.19652841,13.4796601 L8.23884314,13.5053952 L8.21308635,13.4355429 C8.20020795,13.395102 7.91136397,12.6193736 7.57100642,11.7094552 L6.95468327,10.0550581 L6.64928136,7.81243086 C6.42298958,6.15803374 6.33468059,5.5550979 6.31076357,5.51281886 C6.29420564,5.48156914 5.84530162,4.94848562 5.31360792,4.33084403 L4.34772837,3.20585398 L4.1269559,3.21504508 C3.63573716,3.23894192 0.197205951,3.28673562 0.182487786,3.27019165 C0.165929851,3.25180946 -0.00884835342,2.56247732 0.000350499458,2.55328623 C0.0113891229,2.54409513 4.11959682,0.540436394 4.43051804,0.395217091 C4.79479262,0.222424502 4.97876968,0.174630807 5.26025457,0.174630807 C5.48654636,0.174630807 5.633728,0.20771875 5.84346185,0.305144358 C6.38803394,0.556980365 6.70815402,1.04410841 6.74310966,1.67277931 C6.76334713,2.06983462 6.63456319,2.39152295 6.31812266,2.7242406 L6.15622284,2.89519497 L6.26476931,3.01835564 C6.41011118,3.18379535 7.85433109,4.8400307 7.97575594,4.98157356 C8.11373874,5.14149862 8.24436245,5.36943778 8.29955556,5.5459068 C8.33451121,5.65252351 8.40626226,6.08266676 8.54240528,6.9852323 C8.64911197,7.69294662 8.74294027,8.28485315 8.75029936,8.30139712 C8.75949821,8.32161753 9.07593875,8.01279673 9.99950358,7.07898147 L11.2358294,5.82715431 L11.2376692,4.26466814 L11.2376692,2.70218197 L9.45677126,2.31983241 C8.47801331,2.10843722 7.63907793,1.92829176 7.59124389,1.91726244 L7.50293491,1.89888025 L7.50293491,1.53491289 C7.50293491,1.20219524 7.50661445,1.1691073 7.53605078,1.15991621 C7.55260871,1.15440155 8.68958693,0.891536228 10.060216,0.575362555 L12.5531051,0 L12.7922753,0.00183821903 C12.9836114,0.00183821903 13.0608818,0.00919109513 13.1749476,0.0422790376 C13.4417143,0.117646018 13.6404095,0.242644911 13.8519832,0.463231195 C14.0966726,0.718743639 14.2328157,1.00734403 14.2732906,1.3529292 C14.3082463,1.64336781 14.2530531,1.82718971 14.0561977,2.08454038 C13.9421319,2.23527434 13.6440891,2.51100719 13.4177973,2.68012334 C13.2908531,2.77387251 12.9118604,2.97423838 12.786756,3.01284098 L12.7444413,3.02754674 L12.746281,4.89701549 L12.7481208,6.76648424 L12.6634914,7.00545271 C12.6156573,7.13596626 12.562304,7.27199447 12.5439063,7.30692063 C12.5255086,7.34184679 12.0066933,7.89698894 11.3903701,8.5403656 C10.7758868,9.18374225 10.2515521,9.73153152 10.2276351,9.75910481 L10.1834806,9.8068985 L10.5845506,10.9006388 C10.8053231,11.5017364 10.9874604,11.9925409 10.9893001,11.9907027 C10.9911399,11.9870263 11.1033659,11.6377647 11.2376692,11.2131361 C11.3719724,10.7885075 11.5007564,10.4043197 11.5228336,10.3583642 C11.5743472,10.2554239 11.695772,10.1341015 11.7969594,10.0844696 C11.8374344,10.0624109 12.3912053,9.84366288 13.0240864,9.59550332 L14.1776226,9.14513965 L14.3487212,9.14330144 C14.6541231,9.14146322 14.8215423,9.23888883 14.9558455,9.49440127 C14.9926409,9.56425359 14.9981602,9.60469441 15,9.76094303 C15,9.93925027 14.9981602,9.95211781 14.9282489,10.0899842 C14.8454593,10.2572622 14.7461117,10.3657171 14.6578027,10.3840993 C14.6099686,10.3932904 12.6966072,11.069755 12.6763698,11.0844607 C12.6726902,11.0881372 12.4519178,11.7903368 12.1833112,12.6487851 C11.9147047,13.5053952 11.6792141,14.2296535 11.6589766,14.259065 C11.6019437,14.3381084 11.4271655,14.4722984 11.2947021,14.5384743 C11.1015262,14.6358999 9.51196437,15.2590561 9.37030204,15.2939823 C9.09801599,15.3601582 8.99498884,15.3693493 8.78157546,15.3380996 Z M3.86570848,2.55328623 L3.98897311,2.54225691 L3.98897311,2.47424281 C3.98897311,2.37130254 4.04048668,2.18196598 4.09384003,2.08270216 C4.19686718,1.89152738 4.43787713,1.73344054 4.67336776,1.7003526 C4.80767101,1.68013219 4.89414023,1.68932329 5.04684119,1.7389552 C5.208741,1.79042533 5.30624884,1.87314519 5.51598268,2.13049585 C5.61900984,2.25733296 5.70915859,2.36211145 5.71835745,2.36211145 C5.72571653,2.36211145 5.78090965,2.31431775 5.84162208,2.25733296 C5.99432303,2.10843722 6.05503546,1.97976189 6.06423432,1.77571958 C6.08263202,1.39337002 5.90601405,1.09006388 5.57669511,0.931977046 C5.43687255,0.865801161 5.42951347,0.863962942 5.22161939,0.865801161 L5.01004578,0.865801161 L3.37264996,1.66175 C2.47116238,2.10108435 1.67822126,2.48711034 1.60647021,2.5220365 L1.47768627,2.58453595 L2.60914518,2.57350664 C3.23098763,2.56799198 3.7957972,2.55880088 3.86570848,2.55328623 Z M13.0829591,2.28306803 C13.3810019,2.13601051 13.5980948,1.85660122 13.6238516,1.58822124 C13.660647,1.18197483 13.4067587,0.819845686 13.0093682,0.71690542 C12.7977946,0.661758849 12.7591594,0.667273506 11.0812887,1.04594663 C10.2110772,1.24263606 9.37582135,1.4301344 9.22679993,1.46322234 C9.02074563,1.50917782 8.96371274,1.52756001 8.99682861,1.53858932 C9.06857967,1.56248617 11.1879954,2.03123202 11.222951,2.03123202 C11.2431885,2.03123202 11.2560669,2.01836449 11.2560669,1.99814408 C11.2560669,1.9319682 11.3314975,1.74630807 11.3940497,1.65439712 C11.5228336,1.46689878 11.7344072,1.37866427 12.0177319,1.3915318 C12.2145873,1.4007229 12.3415315,1.45219303 12.4831939,1.57903014 C12.6579721,1.73711698 12.746281,1.95218861 12.746281,2.22056858 L12.746281,2.36578789 L12.8474684,2.35843501 C12.9118604,2.35292035 12.9946501,2.32718529 13.0829591,2.28306803 Z" id="Shape"></path>
                </g>
            </g>
        </g>
    </g>
</svg>