<?xml version="1.0" encoding="UTF-8"?>
<svg width="28px" height="28px" viewBox="0 0 28 28" version="1.1" xmlns="http://www.w3.org/2000/svg" xmlns:xlink="http://www.w3.org/1999/xlink">
    <!-- Generator: Sketch 52.1 (67048) - http://www.bohemiancoding.com/sketch -->
    <title>icon-house</title>
    <desc>Created with Sketch.</desc>
    <g id="Page-1" stroke="none" stroke-width="1" fill="none" fill-rule="evenodd">
        <g id="icon-house">
            <circle id="Oval" fill="#FFFFFF" cx="14" cy="14" r="14"></circle>
            <polygon id="Path" fill="#757575" points="14 4.89 14 4.89 13.99 4.89 13.99 4.89 13.99 4.89 10.42 7.4 10.42 6.1 8.75 6.1 8.75 8.56 6.22 10.34 6.57 10.83 13.99 5.62 21.43 10.83 21.77 10.34"></polygon>
            <path d="M20.37,19.83 L20.37,10.89 L14,6.47 L7.63,10.89 L7.63,19.83 L6.31,19.83 L6.31,20.43 L21.68,20.43 L21.68,19.83 L20.37,19.83 Z M13.07,19.83 L9.52,19.83 L9.52,13.45 L13.07,13.45 L13.07,19.83 Z M16.5,17.33 L14.41,17.33 L14.41,13.45 L16.5,13.45 L16.5,17.33 Z M19.08,17.33 L17,17.33 L17,13.45 L19.09,13.45 L19.08,17.33 Z" id="Shape" fill="#757575" fill-rule="nonzero"></path>
        </g>
    </g>
</svg>