<?xml version="1.0" encoding="UTF-8"?>
<svg width="26px" height="26px" viewBox="0 0 26 26" version="1.1" xmlns="http://www.w3.org/2000/svg" xmlns:xlink="http://www.w3.org/1999/xlink">
    <title>png-transparent-cross-country-skiing-alpine-skiing-sport-others-angle-sport-logo</title>
    <g id="Page-1" stroke="none" stroke-width="1" fill="none" fill-rule="evenodd">
        <g id="icon-na-konkah-black" transform="translate(-46.000000, 0.000000)" fill-rule="nonzero">
            <g id="png-transparent-cross-country-skiing-alpine-skiing-sport-others-angle-sport-logo" transform="translate(46.000000, 0.000000)">
                <circle id="Oval" fill="#FFFFFF" cx="13" cy="13" r="13"></circle>
                <g id="Group" transform="translate(12.500000, 13.000000) scale(-1, 1) rotate(-180.000000) translate(-12.500000, -13.000000) translate(3.000000, 6.000000)" fill="#757575">
                    <path d="M13.7319778,13.9490207 C12.9733826,13.7433666 12.594085,12.9207502 12.9207024,12.1832321 C13.0190388,11.9563035 13.2719039,11.697463 13.5107209,11.5733614 C13.6933457,11.4811716 13.7495379,11.4705343 14.0480591,11.4705343 C14.3430684,11.4705343 14.4062847,11.4811716 14.5818854,11.5698156 C14.7012939,11.6300935 14.8523105,11.7471036 14.957671,11.8605679 C15.6003697,12.5768115 15.2702403,13.7114548 14.3465804,13.9525665 C14.0937153,14.0163902 13.9848429,14.0163902 13.7319778,13.9490207 Z" id="Path"></path>
                    <path d="M9.14879852,12.5661742 C8.85027726,12.4101608 8.76247689,12.229327 8.03548983,10.3004334 C7.7896488,9.64801356 7.75804067,9.53100348 7.76857671,9.36435275 L7.77911275,9.17288169 L3.91589649,7.87158769 C1.79112754,7.15534413 0.0526802218,6.55611065 0.0526802218,6.53838185 C0.0526802218,6.52065305 0.066728281,6.45682936 0.0807763401,6.39300568 L0.108872458,6.28308711 L4.04232902,7.60565568 L7.97227357,8.93177 L8.11977819,8.86440055 C8.20406654,8.82539719 8.31996303,8.79348535 8.37615527,8.79348535 C8.51312384,8.79348535 8.77652495,8.92822424 8.85730129,9.04168856 C8.90295749,9.10905801 9.47892791,10.5557282 9.70369686,11.1726905 C9.72125693,11.2258769 9.79149723,11.2081481 10.2621072,11.0414973 C10.5571165,10.9351245 10.8205176,10.8429348 10.8451017,10.8322975 C10.8731978,10.8216602 10.7011091,10.5947315 10.3990758,10.2401555 C10.1321627,9.9210371 9.64048059,9.34307818 9.3103512,8.95304456 C8.92051756,8.49209573 8.67116451,8.16234003 8.5974122,8.0134181 C8.48853974,7.80067249 8.48151571,7.75812336 8.48502773,7.44609647 C8.48502773,7.04897132 8.56580407,6.8007681 8.76598891,6.56320217 C8.85730129,6.46037512 11.7441774,3.8861532 11.8987061,3.77268888 C11.9057301,3.76914312 11.7195933,3.1379978 11.4878004,2.36856783 C11.2524954,1.59913786 11.0628466,0.921897658 11.0628466,0.865165494 C11.0628466,0.80488757 11.1014787,0.680785963 11.1471349,0.592141957 L11.2279113,0.425491227 L5.61571165,0.425491227 L6.21271754e-16,0.425491227 L6.21271754e-16,0.212745613 L6.21271754e-16,0 L9.26820702,0 L18.532902,0 L18.6523105,0.0815524851 C18.8841035,0.237565935 19,0.496406431 19,0.861619734 L19,1.06372807 L18.771719,1.06372807 L18.5434381,1.06372807 L18.5434381,0.840345173 C18.5434381,0.599233477 18.4802218,0.48222339 18.3221811,0.443220028 C18.280037,0.432582747 17.1140481,0.429036987 15.7303142,0.432582747 L13.2157116,0.443220028 L14.7750462,4.89314911 L16.3343808,9.34307818 L16.6469501,9.65155932 C16.8857671,9.88912526 16.9700555,9.99549806 16.9981516,10.1089624 C17.1280961,10.5911858 16.636414,11.0273143 16.1868762,10.825206 C16.0780037,10.7755653 15.7970425,10.5238163 15.2702403,10.0025896 L14.5116451,9.25088842 L13.9848429,10.1834234 L13.4580407,11.1124125 L13.2367837,11.2506972 C13.1138632,11.3251581 12.9452865,11.4528055 12.8645102,11.5308122 C12.7205176,11.6761884 12.6924214,11.6832799 11.1436229,12.1513203 C9.52107209,12.6370894 9.35249538,12.672547 9.14879852,12.5661742 Z M13.538817,8.54528213 C13.9988909,7.81130977 14.1112754,7.67302512 14.2903882,7.62338448 C14.5713494,7.54537775 14.736414,7.65529632 15.3861368,8.35381108 C15.6249538,8.61265158 15.8286506,8.81475991 15.8321627,8.81121415 C15.8391867,8.80412263 15.1859519,6.91423243 14.3781885,4.61303405 L12.9066543,0.425491227 L12.6853974,0.425491227 C12.4781885,0.425491227 12.4676525,0.429036987 12.5027726,0.492860671 C12.5203327,0.531864033 12.7591497,1.29420248 13.0295749,2.1841883 C13.4510166,3.57058054 13.5212569,3.84005832 13.5212569,4.03862089 C13.5212569,4.43220028 13.4720887,4.49956972 12.2499076,5.8292298 L11.1436229,7.03124252 L12.0918669,8.16234003 C12.8609982,9.08069193 13.0471349,9.28634602 13.0822551,9.24734266 C13.1068392,9.22252234 13.3140481,8.90694968 13.538817,8.54528213 Z" id="Shape"></path>
                    <path d="M7.96524954,6.53129033 C7.87744917,6.34336504 7.55083179,5.62002995 7.23475046,4.92860671 L6.66580407,3.66986183 L5.54547135,2.71250657 C4.56210721,1.8721614 4.41109057,1.73387675 4.33382625,1.56722602 C4.0844732,1.06372807 4.44621072,0.47867763 5.00462107,0.47867763 C5.12754159,0.48222339 5.25748614,0.503497951 5.31719039,0.535409793 C5.37338262,0.567321635 5.99149723,1.07791111 6.69038817,1.67005306 L7.96173752,2.74796417 L8.25674677,3.2443706 C8.83271719,4.22300042 9.45083179,5.32573185 9.44029575,5.35409793 C9.43327172,5.36828098 9.22606285,5.56684355 8.97319778,5.78668068 C8.46746765,6.23699223 8.36913124,6.35400232 8.22162662,6.66248346 L8.1232902,6.87522907 L7.96524954,6.53129033 Z" id="Path"></path>
                </g>
            </g>
        </g>
    </g>
</svg>