<?xml version="1.0" encoding="UTF-8"?>
<svg width="28px" height="28px" viewBox="0 0 28 28" version="1.1" xmlns="http://www.w3.org/2000/svg" xmlns:xlink="http://www.w3.org/1999/xlink">
    <!-- Generator: Sketch 52.1 (67048) - http://www.bohemiancoding.com/sketch -->
    <title>icon-kayak-grey</title>
    <desc>Created with Sketch.</desc>
    <g id="Page-1" stroke="none" stroke-width="1" fill="none" fill-rule="evenodd">
        <g id="icon-kayak-grey">
            <circle id="Oval" fill="#757575" cx="14.06" cy="13.85" r="11.33"></circle>
            <path d="M21.26,13.05 L22.26,11.32 C22.1742804,11.4015539 22.0841446,11.4783363 21.99,11.55 L21.43,11.99 C21.0589624,12.32934 20.6283959,12.5971727 20.16,12.78 C19.9396956,12.7988379 19.7198868,12.7385677 19.54,12.61 L17.89,11.51 L17.4,13.2 L20.87,13.2 L19.44,15.69 C18.9358622,15.5868018 18.418301,15.7906895 18.12,16.21 C18.01,16.35 17.85,16.53 17.71,16.69 C15.77,16.52 14.21,15.54 12.3,15.02 L11.93,15.66 C13.84,16.11 15.38,17.07 17.22,17.37 C17.0561498,18.0300112 17.3832347,18.7135348 18,19 C18.3226309,19.1194569 18.6773691,19.1194569 19,19 C18.6947934,19.0532783 18.380585,19.0113838 18.1,18.88 C17.5531073,18.6039037 17.2492507,18.0042933 17.35,17.4 C17.3427922,17.3704329 17.3427922,17.3395671 17.35,17.31 C17.35,17.31 17.61,17.01 17.85,16.71 L18.1,16.4 C18.4253936,15.9634497 18.984009,15.7693209 19.51,15.91 L21.05,13.24 L21.26,13.05 Z" id="Path" fill="#FFFFFF"></path>
            <path d="M14,0 C6.2680135,-4.73447626e-16 9.46895252e-16,6.2680135 0,14 C-9.46895252e-16,21.7319865 6.2680135,28 14,28 C21.7319865,28 28,21.7319865 28,14 C28,10.2869691 26.5250042,6.72601436 23.8994949,4.10050506 C21.2739856,1.47499577 17.7130309,2.27357568e-16 14,0 Z M17.83,6.85 C18.3822847,6.85 18.83,7.29771525 18.83,7.85 C18.83,8.40228475 18.3822847,8.85 17.83,8.85 C17.2777153,8.85 16.83,8.40228475 16.83,7.85 C16.83,7.29771525 17.2777153,6.85 17.83,6.85 Z M9.69,6.85 C10.2422847,6.85 10.69,7.29771525 10.69,7.85 C10.69,8.40228475 10.2422847,8.85 9.69,8.85 C9.13771525,8.85 8.69,8.40228475 8.69,7.85 C8.69,7.58478351 8.79535684,7.3304296 8.98289322,7.14289322 C9.1704296,6.95535684 9.42478351,6.85 9.69,6.85 Z M9,17.72 C7.43918921,17.8514017 5.90966395,18.2329389 4.47,18.85 C4.41795283,18.8752954 4.35526663,18.8598428 4.32093908,18.8132554 C4.28661154,18.766668 4.29042202,18.7022179 4.33,18.66 C4.71533348,18.1975924 5.13305309,17.763164 5.58,17.36 C6.77119962,16.20151 8.34093589,15.5125307 10,15.42 C10.4389879,15.4283792 10.8767957,15.4684837 11.31,15.54 L11.22,15.69 C10.7160959,15.5894525 10.199938,15.7927874 9.9,16.21 C9.64,16.55 9.08,17.14 9.08,17.14 C9.0046086,17.3234287 8.97708,17.5230111 9,17.72 Z M23.7,15.63 C23.11,16.84 21.37,19.72 17.99,19.72 C15.2,19.72 14.07,18.72 11.81,18.13 L11.72,18.52 C11.5046766,18.8155445 11.1748396,19.0067388 10.8113651,19.046702 C10.4478907,19.0866651 10.0843923,18.9717014 9.81,18.73 C9.49457753,18.48573 9.28945741,18.1258701 9.24,17.73 C9.22712128,17.5928051 9.2512953,17.4546678 9.31,17.33 C9.31,17.33 9.8,16.76 10.06,16.42 C10.3887443,15.9880466 10.9442311,15.7950051 11.47,15.93 L11.64,15.63 L12,15 L13,13.25 L13.07,13.11 L14.07,11.38 L13.81,11.6 L13.24,12.04 C12.8673416,12.3771961 12.4371892,12.6447712 11.97,12.83 C11.7502552,12.8431202 11.5323216,12.7833642 11.35,12.66 L9.7,11.56 L9.26,13.2 L12.7,13.2 L11.7,14.88 C11.1414478,14.7579317 10.5717194,14.6942562 10,14.69 C8.32343522,14.7706014 6.73395343,15.4604436 5.53,16.63 C4.99285542,16.3080486 4.66581814,15.7262264 4.67,15.1 L4.67,15 C4.66445506,14.5174425 4.85508313,14.0533149 5.1982054,13.7139632 C5.54132766,13.3746115 6.00753326,13.1891234 6.49,13.2 L6.71,13.2 L7.8,9.68 C7.85254943,9.42515405 8.05416353,9.22749316 8.31,9.18 L10.08,9.68 L12,11.51 L13.3,10.79 L13.87,10.48 L14.31,10.23 C14.3348266,10.2053679 14.3659701,10.188066 14.4,10.18 L14.52,10.18 C14.7221296,10.1852528 14.8847472,10.3478704 14.89,10.55 C14.89,10.6601651 14.838132,10.763901 14.75,10.83 L13.34,13.2 L14.84,13.2 L15.94,9.68 C15.9925494,9.42515405 16.1941635,9.22749316 16.45,9.18 L18.22,9.68 L20.11,11.51 L21.42,10.79 L21.98,10.48 L22.42,10.23 L22.51,10.18 L22.63,10.18 C22.8343454,10.18 23,10.3456546 23,10.55 C22.9992259,10.6678499 22.9438155,10.7786708 22.85,10.85 L21.4,13.35 C22.087098,13.609988 22.5438895,14.2653844 22.55,15 L22.55,15.12 C22.5602957,15.2431185 22.5602957,15.3668815 22.55,15.49 C21.7970273,15.9478616 20.9771396,16.285264 20.12,16.49 C20.1881838,16.7235289 20.2085903,16.9684066 20.18,17.21 C21.0149974,16.9953828 21.8136453,16.6584005 22.55,16.21 C22.9001016,15.9941914 23.2342905,15.7535754 23.55,15.49 C23.5896,15.4836695 23.6299053,15.49597 23.6592226,15.5233329 C23.68854,15.5506958 23.7035876,15.590058 23.7,15.63 Z" id="Shape" fill="#FFFFFF"></path>
        </g>
    </g>
</svg>