<svg xmlns="http://www.w3.org/2000/svg" viewBox="0 0 28 28"><defs><style>.cls-1{fill:#fff;}</style></defs><title>backpack</title><g id="Слой_2" data-name="Слой 2"><g id="Слой_1-2" data-name="Слой 1"><circle class="cls-1" cx="14" cy="14" r="14"/><path d="M12.88,6.68A1.18,1.18,0,0,1,14,5.62a1.12,1.12,0,0,1,1.09,1,3.5,3.5,0,0,1,1.34.46c0-.06,0-.12,0-.18a2.45,2.45,0,1,0-4.9,0c0,.06,0,.12,0,.18A3.3,3.3,0,0,1,12.88,6.68Z"/><path d="M16.43,7.56a5.38,5.38,0,0,0-1.65-.51,5.1,5.1,0,0,0-1.56,0,5.41,5.41,0,0,0-3.14,1.6c-.13.13-.25.27-.37.41a5.58,5.58,0,0,0-.94,1.75,5.46,5.46,0,0,0-.27,1.67v6.81a1.39,1.39,0,0,0,.08.46,1.27,1.27,0,0,0,.15.31,1.58,1.58,0,0,0,1.37.83h7.8a1.6,1.6,0,0,0,1.6-1.6V12.48A5.5,5.5,0,0,0,16.43,7.56Zm1.11,10.65.22-1.68h.45l.22,1.68Zm.89-2.05H9.57V15.4h8.86Z"/><path d="M21.71,18.07l-1.29-7.19a2.94,2.94,0,0,0-2-2.23,4.59,4.59,0,0,1,.36.41,5.2,5.2,0,0,1,.94,1.75A5.46,5.46,0,0,1,20,12.48v3.29L20.33,18l-.33.3v1a1.7,1.7,0,0,1-.07.46,3,3,0,0,1-.15.31L21,19.45A1.27,1.27,0,0,0,21.71,18.07Z"/><path d="M6.29,18.07l1.29-7.19a2.94,2.94,0,0,1,2-2.23,4.59,4.59,0,0,0-.36.41,5.2,5.2,0,0,0-.94,1.75A5.46,5.46,0,0,0,8,12.48v3.29L7.67,18l.33.3v1a1.7,1.7,0,0,0,.07.46,3,3,0,0,0,.15.31L7,19.45A1.27,1.27,0,0,1,6.29,18.07Z"/></g></g></svg>