<?xml version="1.0" encoding="UTF-8"?>
<svg width="28px" height="28px" viewBox="0 0 28 28" version="1.1" xmlns="http://www.w3.org/2000/svg" xmlns:xlink="http://www.w3.org/1999/xlink">
    <!-- Generator: Sketch 52.1 (67048) - http://www.bohemiancoding.com/sketch -->
    <title>icon-freediv-grey</title>
    <desc>Created with Sketch.</desc>
    <g id="Page-1" stroke="none" stroke-width="1" fill="none" fill-rule="evenodd">
        <g id="icon-freediv-grey">
            <circle id="Oval" fill="#757575" cx="14" cy="13.85" r="11.33"></circle>
            <path d="M12.55,17.53 C11.8145101,17.5918845 11.2490588,18.2069112 11.2490588,18.945 C11.2490588,19.6830888 11.8145101,20.2981155 12.55,20.36 C13.0839296,20.4049251 13.5976841,20.1454808 13.8784696,19.6891273 C14.1592552,19.2327738 14.1592552,18.6572262 13.8784696,18.2008727 C13.5976841,17.7445192 13.0839296,17.4850749 12.55,17.53 Z" id="Path" fill="#FFFFFF"></path>
            <path d="M11.51,14.57 C11.65,14.28 11.76,13.98 11.9,13.69 C11.9954347,13.4449642 12.2272242,13.2799615 12.49,13.27 C12.7388203,13.2701005 12.965029,13.4144061 13.07,13.64 C13.1819547,13.8475226 13.2821138,14.0611953 13.37,14.28 C13.5714243,14.8679065 14.118674,15.2673589 14.74,15.28 C15.15,15.28 15.57,15.28 15.98,15.28 C16.6820063,15.2643586 17.248896,14.7018634 17.27,14 C17.27,13.78 17.27,13.55 17.27,13.33 C17.27,13.07 17.27,12.8 17.27,12.54 C17.2571864,12.1576065 17.0815224,11.7989279 16.7872817,11.5543642 C16.493041,11.3098005 16.1082901,11.2026797 15.73,11.26 L15.64,11.26 C15.5136806,11.3815477 15.3453006,11.4496162 15.17,11.45 L9.76,11.45 C9.58625844,11.4513145 9.41841637,11.3870346 9.29,11.27 C9.29,11.27 9.23,11.21 9.2,11.21 C9.07378878,11.1948093 8.94621122,11.1948093 8.82,11.21 C8.23814023,11.35897 7.82832867,11.8794307 7.82,12.48 C7.82,13.01 7.82,13.53 7.82,14.05 C7.8235589,14.7138557 8.33780318,15.262964 9,15.31 C9.48953957,15.3400407 9.98046043,15.3400407 10.47,15.31 C10.9267502,15.2743948 11.3266535,14.9898482 11.51,14.57 Z" id="Path" fill="#FFFFFF"></path>
            <path d="M14,0 C6.2680135,-4.73447626e-16 9.46895252e-16,6.2680135 0,14 C-9.46895252e-16,21.7319865 6.2680135,28 14,28 C21.7319865,28 28,21.7319865 28,14 C28,10.2869691 26.5250042,6.72601436 23.8994949,4.10050506 C21.2739856,1.47499577 17.7130309,2.27357568e-16 14,0 Z M19,5.31 C19.0958799,5.00454455 19.4056051,4.8195698 19.72,4.88 C20.027368,4.92124443 20.2645619,5.17092221 20.29,5.48 C20.29,5.68 20.29,5.89 20.29,6.1 C20.29,6.31 20.29,6.19 20.19,6.19 L19,6.19 C19,6.19 18.9,6.19 18.9,6.13 C18.9072458,5.85411333 18.9407301,5.57954226 19,5.31 Z M9.12,15.94 C8.40637124,15.9583577 7.74391342,15.5709555 7.41,14.94 C7.2610092,14.6493321 7.18547546,14.326597 7.19,14 L7.19,12.64 C7.17972156,12.5536381 7.17972156,12.4663619 7.19,12.38 C7.18305275,11.9553166 7.35767946,11.5478543 7.67,11.26 L7.8,11.11 C8.13316195,10.8143563 8.55548218,10.6383896 9,10.61 C9,10.61 9.12,10.61 9.13,10.53 C9.25272066,10.2527703 9.53793485,10.0840521 9.84,10.11 L15.09,10.11 C15.4025848,10.0846342 15.6964418,10.2617535 15.82,10.55 C15.82,10.55 15.9,10.55 15.94,10.55 C16.4839056,10.5502548 17.0027236,10.778825 17.37,11.18 C17.6943082,11.5365237 17.8789655,11.9981668 17.89,12.48 C17.89,12.99 17.89,13.48 17.89,14 C17.8448979,14.8815597 17.2271978,15.6293019 16.37,15.84 C16.2042777,15.8650915 16.0357223,15.8650915 15.87,15.84 C15.42,15.84 14.96,15.84 14.5,15.84 C13.9499195,15.7982831 13.4507426,15.5024746 13.15,15.04 C12.9769172,14.7505112 12.8232459,14.4498499 12.69,14.14 C12.63,14.03 12.58,13.92 12.51,13.78 C12.37,14.09 12.25,14.36 12.14,14.63 C11.9650203,15.1731262 11.5415773,15.6002836 11,15.78 C10.7204567,15.8646049 10.431679,15.9149731 10.14,15.93 C9.80046246,15.9526137 9.45991564,15.9559524 9.12,15.94 Z M20.81,15.94 C20.8219489,16.3285026 20.5273863,16.6582369 20.14,16.69 C20.0682032,16.6941685 20.0094681,16.7487082 20,16.82 C19.7876214,17.5093829 19.3730374,18.1190651 18.81,18.57 C18.391777,18.9024526 17.9128858,19.1503892 17.4,19.3 C16.9805533,19.4261516 16.5528598,19.5230509 16.12,19.59 C15.69,19.66 15.25,19.66 14.81,19.69 C14.7139312,19.6834938 14.6247941,19.7402174 14.59,19.83 C14.3562284,20.3819515 13.897732,20.8076981 13.33,21 C12.2699964,21.421363 11.0634575,20.9667636 10.5450515,19.950688 C10.0266456,18.9346124 10.3667133,17.690928 11.33,17.08 C11.8568371,16.7283159 12.5128684,16.6293614 13.12,16.81 C13.7751444,16.9836595 14.3115227,17.4534529 14.57,18.08 C14.62,18.19 14.64,18.24 14.68,18.27 L14.95,18.27 C15.5224288,18.2445956 16.0914,18.1676171 16.65,18.04 L16.84,17.99 C17.5982137,17.7822586 18.2380173,17.2725845 18.61,16.58 C18.6354366,16.5591057 18.6501788,16.5279179 18.6501788,16.495 C18.6501788,16.4620821 18.6354366,16.4308943 18.61,16.41 C18.4528135,16.2626138 18.3655788,16.0554315 18.37,15.84 L18.37,12.92 C18.3600225,12.6190466 18.5286691,12.3405836 18.8,12.21 C18.8794773,12.1824804 18.9293022,12.1035909 18.92,12.02 L18.92,7.14 C18.92,7.02 18.92,6.98 19.08,6.98 L20.08,6.98 C20.18,6.98 20.23,6.98 20.23,7.11 L20.23,7.39 C20.23,7.55 20.23,7.72 20.23,7.88 L20.23,12 C20.2163219,12.0790986 20.2633715,12.1560888 20.34,12.18 C20.6193739,12.2974745 20.7952752,12.5773175 20.78,12.88 L20.81,15.94 Z" id="Shape" fill="#FFFFFF"></path>
        </g>
    </g>
</svg>