<?xml version="1.0" encoding="UTF-8"?>
<svg width="20px" height="17px" viewBox="0 0 20 17" version="1.1" xmlns="http://www.w3.org/2000/svg" xmlns:xlink="http://www.w3.org/1999/xlink">
    <title>Group</title>
    <g id="Page-1" stroke="none" stroke-width="1" fill="none" fill-rule="evenodd">
        <g id="icon-art-black" transform="translate(-5.000000, -5.000000)" fill="#6B6B6B" fill-rule="nonzero">
            <g id="Group" transform="translate(14.000000, 14.000000) scale(-1, 1) rotate(-180.000000) translate(-14.000000, -14.000000) ">
                <g id="спелео" transform="translate(15.000000, 14.003962) scale(1, -1) translate(-15.000000, -14.003962) translate(5.000000, 6.000000)">
                    <g id="Group" transform="translate(10.000000, 8.003962) scale(-1, 1) rotate(-180.000000) translate(-10.000000, -8.003962) translate(-0.000000, 0.000000)">
                        <path d="M11.2747363,15.9728674 C11.2053761,15.9577763 10.9361115,15.9106368 10.6417162,15.7167646 C10.0984155,15.3625289 9.82178069,14.8168145 9.82178069,14.0987692 L9.82178069,13.8283055 L10.4797229,13.8283055 L11.137665,13.8283055 L11.2672597,14.0508995 C11.3395337,14.1705737 11.4217764,14.3141828 11.4516829,14.3668394 C11.4790971,14.4194961 11.5114958,14.4673658 11.5239568,14.4697593 C11.5339257,14.4745462 11.5414023,14.4936941 11.5414023,14.5104485 C11.5414023,14.5990074 11.7158566,14.6253358 12.5382844,14.666025 C13.445447,14.7115012 13.4468866,14.7138786 13.3382822,14.9556366 C13.1140289,15.454834 12.664093,15.7167646 12.4709948,15.812504 C12.241806,15.9256134 11.7551422,16.0773926 11.2747363,15.9728674 Z" id="Path"></path>
                        <path d="M15.7532291,15.2835439 C14.6940419,15.2667896 14.2554137,15.2428547 14.1208347,15.1925915 C13.9164738,15.1183935 13.8491843,15.0274411 13.9114894,14.9101604 C14.0385919,14.6684185 14.100897,14.6037944 15.3071243,13.445348 C16.5332893,12.2701472 17.1937237,11.6502347 17.7469932,11.1595704 C18.0510423,10.8891067 18.2952784,10.7167758 18.3700445,10.7167758 C18.7588285,10.7167758 19.4541538,11.5951846 19.8155235,12.5358239 C19.9725325,12.9522902 19.9974545,13.0958993 20,13.672729 C20.0024389,14.4123156 19.9177039,14.8000601 19.7033743,15.046589 C19.5463654,15.2237068 19.3420045,15.2596091 18.2828173,15.2835439 C17.3482404,15.3050853 17.2684898,15.3050853 15.7532291,15.2835439 Z" id="Path"></path>
                        <path d="M6.86602532,15.0154737 C6.76882932,14.9652105 6.53206983,14.814421 6.50714777,14.7856992 C6.49967116,14.7785187 6.45481146,14.74501 6.40745957,14.7138947 C6.36010767,14.6827794 6.30777136,14.6444836 6.29281813,14.6301227 C6.19562212,14.5463508 5.97880027,14.3812003 5.82179134,14.2734936 C5.78690047,14.2471652 5.73207196,14.206476 5.70216549,14.1801477 C5.67225903,14.1538193 5.6074617,14.1059496 5.5601098,14.0700474 C5.5127579,14.0365386 5.44796056,13.9838819 5.4155619,13.9551601 C5.38316323,13.9240448 5.35076456,13.90011 5.34079574,13.90011 C5.33082692,13.90011 5.29593605,13.8761752 5.26104517,13.8450599 C5.2261543,13.816338 5.15388035,13.7588944 5.09905184,13.7205987 C5.04422332,13.6823029 4.98191819,13.6320398 4.96198055,13.6128919 C4.94204291,13.5913505 4.87475337,13.5386939 4.81244824,13.4932177 C4.75014311,13.4477415 4.68783798,13.3998718 4.67288475,13.3855109 C4.65793152,13.3735434 4.59313418,13.3184933 4.52584464,13.2658366 C4.46104731,13.21318 4.39375777,13.1581299 4.37880453,13.1461624 C4.3638513,13.1318015 4.31151499,13.0935058 4.26416309,13.0623905 C4.2168112,13.0288817 4.15450607,12.981012 4.1245996,12.9546837 C4.0747555,12.9092075 3.91026996,12.7727789 3.66852605,12.5765132 C3.35949261,12.3275908 3.13768634,12.0379792 3.18753045,11.9470268 C3.30217189,11.7316132 3.33955497,11.6669891 3.43924317,11.5305605 C3.5015483,11.4443951 3.55886902,11.370197 3.56634564,11.3630166 C3.57382225,11.3558361 3.61868195,11.3031795 3.66603385,11.2433424 C3.87039467,10.9920265 4.10964637,10.7598585 4.22678002,10.7000214 C4.32397602,10.6497583 4.48347715,10.6545452 4.58067315,10.7095954 C4.70777562,10.7813999 5.09905184,11.0542571 5.19624784,11.1356356 C5.21120107,11.1499965 5.2735062,11.1978662 5.33581133,11.2433424 C5.39811646,11.2888186 5.47039041,11.3438687 5.49780467,11.3678036 C5.52521893,11.3893449 5.61992272,11.4611495 5.70964211,11.528167 C5.7993615,11.5975781 5.88908088,11.6645956 5.90901853,11.68135 C5.92895617,11.6981044 5.99624571,11.7483676 6.05855084,11.7938438 C6.11836376,11.83932 6.20808315,11.9111245 6.25792725,11.9542072 C6.30527915,11.9948965 6.424905,12.0858489 6.5196088,12.1576534 C6.6168048,12.2270644 6.7115086,12.3012625 6.73144624,12.3228038 C6.75138388,12.3419517 6.88097855,12.4496585 7.01804984,12.5573653 C7.31960667,12.7967137 7.49406103,12.9379293 7.56384278,13.0025534 C7.59374924,13.0288817 7.72085171,13.1365885 7.84795417,13.2395083 C7.97754884,13.3424281 8.12708115,13.4836437 8.18190967,13.5506613 C8.26664464,13.6535811 8.27910567,13.6823029 8.26664464,13.751714 C8.25418362,13.830699 8.05979161,14.1514259 7.93019694,14.3070023 C7.60122586,14.7043207 7.35948195,14.9484561 7.21991846,15.0226542 C7.10527702,15.0848847 6.9981122,15.0824913 6.86602532,15.0154737 Z" id="Path"></path>
                        <path d="M11.8230215,14.3524785 C11.8080682,14.3333307 11.7706852,14.2663131 11.7382865,14.1992955 C11.6086918,13.9264383 11.4607697,13.5609436 10.7812797,13.4573154 C10.4199099,13.4309871 10.4124333,13.4262001 10.5794111,13.2706236 C10.7114979,13.1461624 11.1557617,12.736145 12.0946718,12.9044205 C13.0328522,13.1550293 13.1364136,14.0149972 13.1364136,14.1346715 C13.1364136,14.2232304 13.0890617,14.2830675 12.9918657,14.3261502 C12.8647632,14.3788069 11.865389,14.4003482 11.8230215,14.3524785 Z" id="Path"></path>
                        <path d="M8.6753663,12.4161497 C8.46851326,12.3922149 8.20184731,12.3060494 8.1520032,12.2486058 C8.14452659,12.2414253 8.0996669,12.2079166 8.052315,12.1768013 C7.93268915,12.1002098 7.40434164,11.7196458 7.34203651,11.6669891 C7.31462226,11.6430543 7.20994964,11.5640693 7.10527702,11.4874778 C7.00309661,11.4132798 6.91337722,11.3462622 6.90590061,11.3390818 C6.89842399,11.3319013 6.83113445,11.2792446 6.75636829,11.2194075 C6.68160214,11.1595704 6.6143126,11.1069138 6.60683598,11.0997333 C6.59935937,11.0925529 6.48222572,11.0016005 6.34515444,10.8962871 C6.20808315,10.7933673 6.08098068,10.692841 6.06353525,10.6760866 C6.04359761,10.6593322 5.98876909,10.613856 5.93892499,10.5779537 C5.88658868,10.5420515 5.82926796,10.4965753 5.80933032,10.4774274 C5.78939268,10.455886 5.71711873,10.3960489 5.64733698,10.3457858 C5.58004744,10.2931291 5.51774231,10.2452594 5.51026569,10.238079 C5.50278908,10.2308985 5.42553072,10.1662744 5.33581133,10.0944699 C5.24858415,10.0226654 5.14640374,9.93889341 5.11151286,9.9101716 C5.07662199,9.88144979 5.02179348,9.83597359 4.9869026,9.80725177 C4.47600054,9.38839201 4.32148381,9.22802856 4.22179561,9.01740194 C4.18939694,8.94559741 4.14952166,8.86661243 4.13706063,8.84507107 C4.1245996,8.82113623 4.11463078,8.78044699 4.11463078,8.75651215 C4.11463078,8.73018382 4.10466196,8.70385549 4.09220094,8.69667504 C4.07973991,8.68949459 4.06478668,8.65359232 4.05731006,8.61769006 C4.04983345,8.57939431 4.01494257,8.4429657 3.9775595,8.31132406 C3.94017642,8.17968242 3.90030114,8.02889291 3.88784011,7.97623625 C3.87288688,7.9235796 3.85294924,7.83980765 3.84048821,7.79193796 C3.77818308,7.55737649 3.76572206,7.51429378 3.7408,7.40180001 C3.70341693,7.2510105 3.67351046,7.1289428 3.6411118,7.01405555 C3.58379108,6.79146151 3.5489002,6.65263941 3.49407169,6.40371704 C3.48161066,6.34627342 3.45419641,6.23138617 3.43176656,6.14522073 C3.40933671,6.0590553 3.37444584,5.91544624 3.3545082,5.82210035 C3.33207835,5.73114794 3.30466409,5.61147373 3.29220307,5.55881707 C3.27974204,5.50616041 3.25731219,5.40324059 3.23986676,5.33143606 C3.22491353,5.25963153 3.20248368,5.17825306 3.19251486,5.15192473 C3.18254604,5.1255964 3.16011619,5.03943097 3.14267076,4.96044598 C3.12522532,4.881461 3.10279547,4.78572163 3.09033445,4.74742588 C3.07787342,4.70913013 3.0679046,4.64689954 3.0679046,4.61099727 C3.0679046,4.57509501 3.05544357,4.53679926 3.04298255,4.5296188 C3.02802932,4.52243835 3.0180605,4.48653609 3.0180605,4.45063382 C3.0180605,4.38361626 2.88348141,4.24718765 2.22803145,3.63924263 C1.67476189,3.12703698 0.590652632,2.10980614 0.309033445,1.8393424 L-1.78402285e-14,1.54494383 L0.00996882079,1.25293874 C0.0149532312,1.09496878 0.0323986676,0.917850934 0.0448596936,0.862800794 C0.0872271819,0.697650375 0.196884211,0.506171627 0.31651006,0.393677863 C0.413706063,0.300331974 0.480995603,0.262036225 0.722739508,0.151935945 C0.755138175,0.137575039 0.87725623,0.125607617 0.996882079,0.125607617 C1.1962585,0.125607617 1.23114937,0.13278807 1.38068168,0.2045926 C1.47289327,0.250068803 1.54765943,0.295545005 1.54765943,0.307512427 C1.54765943,0.319479849 1.56012045,0.329053786 1.57507369,0.329053786 C1.59002692,0.329053786 1.70466836,0.412825738 1.82927862,0.51335208 C2.17320293,0.790996264 2.54952592,1.13805149 3.68347928,2.2222999 C4.46104731,2.96667353 4.80497162,3.31133527 4.85232352,3.39989419 C4.91712086,3.51956841 4.9869026,3.72301458 4.9869026,3.79481911 C4.9869026,3.82114744 4.99687142,3.84986925 5.00933245,3.8570497 C5.02179348,3.86423016 5.03674671,3.90491939 5.04422332,3.94800211 C5.04920773,3.99108483 5.07163758,4.0868242 5.09157522,4.15862873 C5.11400507,4.23043326 5.16135697,4.41951852 5.19624784,4.57748849 C5.23363092,4.73545846 5.2735062,4.88864145 5.28845943,4.91975675 C5.30092046,4.95087205 5.31088928,5.00113522 5.31088928,5.034644 C5.31088928,5.0657593 5.3208581,5.1112355 5.33331912,5.13517034 C5.34578015,5.1567117 5.38067102,5.28356637 5.41057749,5.41520801 C5.44048395,5.54684965 5.47537482,5.67370432 5.48783585,5.69524568 C5.50029687,5.71918052 5.51026569,5.76465672 5.51026569,5.79577202 C5.51026569,5.8292808 5.52272672,5.86278958 5.53518775,5.86997003 C5.55014098,5.87715049 5.5601098,5.91544624 5.5601098,5.95613547 C5.5601098,6.00639864 5.57257082,6.02554652 5.60496949,6.02554652 C5.65979801,6.02554652 6.17817669,5.55881707 7.37194298,4.42909246 L7.55387396,4.2543681 L7.55387396,3.37595935 C7.55387396,2.28931746 7.59374924,0.913063965 7.63113232,0.735946124 C7.6685154,0.56840222 7.74826596,0.415219222 7.87038402,0.290758037 C7.98502546,0.173477304 8.16197203,0.0561965713 8.26415244,0.0298682436 C8.40122372,-0.00364053721 8.73517922,-0.0108209902 8.83735963,0.0179008219 C8.89218815,0.0322617279 8.97692313,0.0561965713 9.02427502,0.068163993 C9.11648662,0.0944923207 9.22863585,0.139968523 9.24857349,0.161509882 C9.25605011,0.168690335 9.29592539,0.199805632 9.34078508,0.228527444 C9.38315257,0.257249256 9.45044211,0.341021208 9.48533299,0.410432254 C9.5875134,0.609091454 9.60745104,1.06145999 9.60745104,3.12943046 C9.60994325,5.1567117 9.63237309,4.96044598 9.37816816,5.25963153 C9.19125277,5.48222557 9.13642426,5.53727571 8.52832619,6.14522073 C7.66602319,7.00448161 7.54141293,7.13133628 7.49156883,7.19117339 C7.46415457,7.22468217 7.41680267,7.27973231 7.38689621,7.31563458 C7.35449754,7.34914336 7.32957549,7.38983259 7.32957549,7.4041935 C7.32957549,7.43291531 7.41431047,7.50950681 7.65356216,7.70098555 C7.72832832,7.76082266 7.88533725,7.88767733 8.00247089,7.98581019 C8.11960454,8.08154956 8.24172259,8.18446939 8.27661346,8.2131912 C8.31150434,8.23951953 8.3887627,8.30175012 8.45106783,8.34722633 C8.59312352,8.45253964 8.67287409,8.51716371 8.7252104,8.56263992 C8.74514804,8.58418128 8.80745317,8.63205096 8.86228169,8.67034671 C8.97193871,8.7493317 9.03922826,8.80198835 9.08408795,8.83789062 C9.1588541,8.90251469 9.35324611,9.04373027 9.50527063,9.1466501 L9.67474058,9.26393083 L9.72458468,9.21366766 C9.74950674,9.18494585 9.77193658,9.14904358 9.77193658,9.12989571 C9.77193658,9.11314132 9.7819054,9.08920647 9.79436643,9.07723905 C9.81181187,9.05569769 9.9214689,8.79002093 10.1258297,8.26345437 C10.3252061,7.75364221 10.3875113,7.6794442 10.9756717,7.21032126 C10.9931171,7.19835384 11.100282,7.11697538 11.2174156,7.03320342 C11.332057,6.94943147 11.4392219,6.87044649 11.4541751,6.86087255 C11.4666361,6.84890513 11.5164802,6.81060938 11.5638321,6.77470711 C11.7582241,6.62631109 12.6055739,6.02554652 12.6628946,5.9968247 C12.6977855,5.98007031 12.7301842,5.95852895 12.7376608,5.9513485 C12.7700594,5.91544624 13.0367254,5.79098505 13.141398,5.76465672 C13.6248858,5.63540857 14.1332957,6.01118561 14.1332957,6.49945642 C14.1332957,6.82975725 14.0111776,6.96379238 13.0616474,7.68423116 C13.0392176,7.70098555 12.8896853,7.81108583 12.7251997,7.92836657 C12.5607142,8.04804078 12.4086897,8.15574758 12.388752,8.17250197 C12.3688144,8.18925636 12.279095,8.25148695 12.1893756,8.31611103 C12.0996562,8.37834162 12.0223979,8.43578525 12.0149213,8.4429657 C12.0074446,8.45014615 11.9501239,8.49322887 11.8853266,8.53870507 C11.793115,8.60332915 11.7582241,8.64880535 11.7283177,8.74215124 C11.7058878,8.8091688 11.6784736,8.88336682 11.6660125,8.90969515 C11.6535515,8.93602347 11.6211528,9.02697588 11.5912464,9.11314132 C11.5638321,9.19930675 11.5289412,9.28786567 11.5164802,9.30940703 C11.501527,9.33334187 11.4915582,9.36924414 11.4915582,9.38839201 C11.4915582,9.40753989 11.4815893,9.44344215 11.4691283,9.467377 C11.4566673,9.48891836 11.4342375,9.55114895 11.4192842,9.60380561 C11.4018388,9.65646226 11.3794089,9.72108634 11.3669479,9.74741467 C11.3295648,9.83597359 11.0180392,10.7048084 11.0180392,10.7239563 C11.0180392,10.7407107 10.9333042,10.9345829 10.8909367,11.0087809 C10.8784757,11.0327158 10.8685069,11.068618 10.8685069,11.0877659 C10.8685069,11.1069138 10.8585381,11.142816 10.846077,11.1667509 C10.833616,11.1882922 10.8136784,11.2337684 10.7987251,11.2672772 C10.5569812,11.8249591 10.3750502,12.0260118 9.90900787,12.2462123 C9.86913259,12.2653602 9.8292573,12.289295 9.82178069,12.2964755 C9.81430407,12.3036559 9.74701453,12.3347712 9.67224838,12.3658865 C9.55511473,12.4137562 9.48284078,12.4233302 9.18626836,12.4281171 C8.99436856,12.4329041 8.76508568,12.4281171 8.6753663,12.4161497 Z" id="Path"></path>
                    </g>
                </g>
            </g>
        </g>
    </g>
</svg>