<?xml version="1.0" encoding="UTF-8"?>
<svg width="15px" height="18px" viewBox="0 0 15 18" version="1.1" xmlns="http://www.w3.org/2000/svg" xmlns:xlink="http://www.w3.org/1999/xlink">
    <!-- Generator: Sketch 52.1 (67048) - http://www.bohemiancoding.com/sketch -->
    <title>icon-new-year</title>
    <desc>Created with Sketch.</desc>
    <g id="Page-1" stroke="none" stroke-width="1" fill="none" fill-rule="evenodd">
        <g id="icon-new-year" transform="translate(-7.000000, -5.000000)" fill="#757575">
            <g id="JCxYC_oCzrg" transform="translate(7.000000, 5.000000)">
                <g id="Group" transform="translate(7.500000, 9.000000) scale(-1, 1) rotate(-180.000000) translate(-7.500000, -9.000000) ">
                    <path d="M3.20063694,16.9142857 L3.12420382,15.8380952 L2.04458599,16.9142857 L0.955414013,17.9904762 L0.487261146,17.5333333 L0.00955414013,17.0666667 L1.06050955,15.9619048 L2.11146497,14.8571429 L1.06050955,14.8285714 L0,14.8 L0,14.1428571 L0,13.4761905 L1.74840764,13.4761905 L3.48726115,13.4761905 L4.87261146,12.0952381 C5.62738854,11.3428571 6.21019108,10.6857143 6.17197452,10.647619 C6.13375796,10.6095238 4.71974522,9.19047619 3.0477707,7.4952381 C-0.305732484,4.11428571 -0.124203822,4.38095238 0.515923567,3.76190476 L0.859872611,3.43809524 L3.99363057,6.55238095 C5.7133758,8.26666667 7.1656051,9.66666667 7.2133758,9.66666667 C7.2611465,9.66666667 8.60828025,8.37142857 10.1942675,6.79047619 L13.089172,3.9047619 L12.1146497,2.93333333 L11.1496815,1.96190476 L9.18152866,3.86666667 L7.2133758,5.76190476 L5.04458599,3.6 L2.86624204,1.42857143 L3.31528662,0.980952381 C3.56369427,0.723809524 3.80254777,0.533333333 3.84076433,0.542857143 C3.89808917,0.571428571 4.8343949,1.45714286 6.62101911,3.18095238 L7.2611465,3.80952381 L9.17197452,1.9047619 L11.0828025,0 L13.0414013,1.95238095 L15,3.9047619 L11.6464968,7.31428571 C9.80254777,9.18095238 8.31210191,10.752381 8.33121019,10.8 C8.35031847,10.8380952 8.97133758,11.4571429 9.70700637,12.1809524 L11.0636943,13.4761905 L12.7929936,13.4761905 L14.522293,13.4761905 L14.522293,14.1428571 L14.522293,14.8 L13.4808917,14.8285714 L12.4299363,14.8571429 L13.4713376,15.9619048 L14.5127389,17.0666667 L14.0350318,17.5333333 L13.566879,17.9904762 L12.4681529,16.9047619 L11.3789809,15.8190476 L11.3503185,16.8952381 L11.3216561,17.9714286 L10.6719745,17.9904762 L10.0318471,18 L10.022293,16.2857143 L10.022293,14.5714286 L8.63694268,13.1428571 L7.24203822,11.7142857 L5.86624204,13.1428571 L4.49044586,14.5714286 L4.49044586,16.2857143 L4.49044586,18 L3.87898089,18 L3.26751592,18 L3.20063694,16.9142857 Z" id="Path"></path>
                </g>
            </g>
        </g>
    </g>
</svg>