<svg width="24" height="24" viewBox="0 0 24 24" fill="none" xmlns="http://www.w3.org/2000/svg">
<path d="M16.9996 2H6.99988C4.25019 2 2 4.25019 2 6.99988V17.0001C2 19.7491 4.25019 22 6.99988 22H16.9996C19.7493 22 21.9995 19.7491 21.9995 17.0001V6.99988C21.9995 4.25019 19.7493 2 16.9996 2ZM20.3328 17.0001C20.3328 18.8376 18.8381 20.3333 16.9996 20.3333H6.99988C5.16218 20.3333 3.66671 18.8376 3.66671 17.0001V6.99988C3.66671 5.16193 5.16218 3.66671 6.99988 3.66671H16.9996C18.8381 3.66671 20.3328 5.16193 20.3328 6.99988V17.0001Z" fill="#FD5930"/>
<path d="M17.416 7.83344C18.1063 7.83344 18.666 7.2738 18.666 6.58347C18.666 5.89313 18.1063 5.3335 17.416 5.3335C16.7256 5.3335 16.166 5.89313 16.166 6.58347C16.166 7.2738 16.7256 7.83344 17.416 7.83344Z" fill="#FD5930"/>
<path d="M11.9999 7C9.23793 7 7 9.23818 7 11.9999C7 14.7606 9.23793 17.0003 11.9999 17.0003C14.761 17.0003 16.9998 14.7606 16.9998 11.9999C16.9998 9.23818 14.761 7 11.9999 7ZM11.9999 15.3335C10.1592 15.3335 8.66671 13.8411 8.66671 11.9999C8.66671 10.1587 10.1592 8.66671 11.9999 8.66671C13.8406 8.66671 15.333 10.1587 15.333 11.9999C15.333 13.8411 13.8406 15.3335 11.9999 15.3335Z" fill="#FD5930"/>
</svg>
