<?xml version="1.0" encoding="UTF-8"?>
<svg width="153px" height="54px" viewBox="0 0 153 54" version="1.1" xmlns="http://www.w3.org/2000/svg" xmlns:xlink="http://www.w3.org/1999/xlink">
    <!-- Generator: Sketch 49.1 (51147) - http://www.bohemiancoding.com/sketch -->
    <title>Logo red</title>
    <desc>Created with Sketch.</desc>
    <defs>
        <polygon id="path-1" points="0 17.5434716 0 0.872309218 14.7826286 0.872309218 14.7826286 17.5434716 1.00383569e-15 17.5434716"></polygon>
        <polygon id="path-3" points="15.1135714 12.8562857 15.1135714 0.788690476 0.117771429 0.788690476 0.117771429 12.8562857 15.1135714 12.8562857"></polygon>
    </defs>
    <g id="Page-1" stroke="none" stroke-width="1" fill="none" fill-rule="evenodd">
        <g id="Logo-red" transform="translate(-2.000000, -5.000000)">
            <g id="Group" transform="translate(2.000000, 2.000000)">
                <g id="Page-1-Copy-18" transform="translate(126.000000, 4.000000)">
                    <path d="M5.28917143,52.3690476 L3.59845714,52.3690476 C3.14845714,52.3690476 2.78331429,52.0106667 2.78331429,51.569 L2.78331429,0.800047619 C2.78331429,0.358380952 3.14845714,0 3.59845714,0 L5.28917143,0 C5.73917143,0 6.10431429,0.358380952 6.10431429,0.800047619 L6.10431429,51.569 C6.10431429,52.0106667 5.73917143,52.3690476 5.28917143,52.3690476" id="Fill-1" fill="#CDCDCD"></path>
                    <g id="Group-5" transform="translate(0.000000, 0.630952)">
                        <mask id="mask-2" fill="white">
                            <use xlink:href="#path-1"></use>
                        </mask>
                        <g id="Clip-4"></g>
                        <path d="M0.886628571,0.887245238 L14.7029143,3.98269762 L14.7826286,14.512031 L0.966342857,17.5216738 C0.500914286,17.6352452 0.0496285714,17.2907452 0.0483428571,16.8200548 L-0.000514285714,1.60022143 C-0.0018,1.1408881 0.427628571,0.79512619 0.886628571,0.887245238" id="Fill-3" fill="#FD5930" mask="url(#mask-2)"></path>
                    </g>
                    <polygon id="Fill-6" fill="#D8300F" points="14.7025286 4.61377619 11.6888143 6.46751429 11.9305286 18.3761095 15.0239571 16.4832524"></polygon>
                    <g id="Group-10" transform="translate(11.571429, 5.678571)">
                        <mask id="mask-4" fill="white">
                            <use xlink:href="#path-3"></use>
                        </mask>
                        <g id="Clip-9"></g>
                        <path d="M0.117771429,0.788690476 L14.4856286,5.3012619 C15.1979143,5.4602619 15.3457714,6.39280952 14.7157714,6.7562381 L0.197485714,12.8562857 L0.117771429,0.788690476 Z" id="Fill-8" fill="#FF7D4C" mask="url(#mask-4)"></path>
                    </g>
                </g>
                <g id="Page-1-Copy-20" transform="translate(0.000000, 21.000000)" fill="#FD5930">
                    <polygon id="Fill-1" points="22.5387 1.5005 10.5247 1.5005 -0.0003 1.5005 -0.0003 11.6995 -0.0003 35.3475 10.5247 35.3475 10.5247 11.6995 22.5387 11.6995 22.5387 35.3475 33.0637 35.3475 33.0637 11.6995 33.0637 1.5005"></polygon>
                    <polygon id="Fill-2" points="50.4117 16.0346 50.4117 1.5906 39.8867 1.5906 39.8867 22.1726 39.8867 35.3466 39.8867 35.4376 43.5147 33.0206 61.5877 20.8166 61.5877 35.4376 72.1127 35.4376 72.1127 14.6746 72.1127 1.5006"></polygon>
                    <polygon id="Fill-3" points="111.4164 0.000199999999 89.7154 15.5972 89.7154 1.5942 79.1914 1.5942 79.1914 35.3442 92.9614 26.2212 100.2854 35.3442 114.8774 35.2502 102.1284 19.8572 111.4164 12.9382"></polygon>
                </g>
                <path d="M3.612,13 L3.612,4.32 L0.21,4.32 L0.21,3.116 L8.386,3.116 L8.386,4.32 L4.984,4.32 L4.984,13 L3.612,13 Z M18.6099998,12.524 L19.2399998,11.474 C19.4779998,11.656 19.8979998,11.964 20.3739998,11.964 C20.9479998,11.964 21.2279998,11.544 21.4939998,10.858 L17.5879998,3.116 L19.1139998,3.116 L21.5219998,8.086 C21.8299998,8.702 22.0819998,9.388 22.0819998,9.388 L22.1099998,9.388 C22.1099998,9.388 22.3199998,8.702 22.5299998,8.1 L24.3639998,3.116 L25.8199998,3.116 L22.6699998,11.18 C22.2779998,12.174 21.6479998,13.168 20.4159998,13.168 C19.7439998,13.168 19.1559998,12.902 18.6099998,12.524 Z M36.1979996,13 L36.1979996,3.116 L39.8239996,3.116 C41.6299996,3.116 42.9179996,4.334 42.9179996,6.21 C42.9179996,8.086 41.6299996,9.346 39.8239996,9.346 L37.5839996,9.346 L37.5839996,13 L36.1979996,13 Z M37.5839996,8.142 L39.5999996,8.142 C40.7759996,8.142 41.5179996,7.4 41.5179996,6.21 C41.5179996,5.034 40.7759996,4.32 39.6139996,4.32 L37.5839996,4.32 L37.5839996,8.142 Z M53.6039994,13 L53.6039994,3.116 L54.9899994,3.116 L54.9899994,7.274 L56.4599994,7.274 L58.9659994,3.116 L60.4919994,3.116 L57.6079994,7.806 L57.6079994,7.834 L60.6739994,13 L59.0919994,13 L56.4599994,8.478 L54.9899994,8.478 L54.9899994,13 L53.6039994,13 Z M70.0159992,11.838 C71.6819992,11.614 72.2699992,9.472 72.2699992,5.454 L72.2699992,3.116 L78.0379992,3.116 L78.0379992,13 L76.6519992,13 L76.6519992,4.32 L73.5859992,4.32 L73.5859992,5.468 C73.5859992,10.214 72.7459992,12.958 70.0159992,13.112 L70.0159992,11.838 Z M89.339999,12.524 L89.969999,11.474 C90.207999,11.656 90.627999,11.964 91.103999,11.964 C91.677999,11.964 91.957999,11.544 92.223999,10.858 L88.317999,3.116 L89.843999,3.116 L92.251999,8.086 C92.559999,8.702 92.811999,9.388 92.811999,9.388 L92.839999,9.388 C92.839999,9.388 93.049999,8.702 93.259999,8.1 L95.093999,3.116 L96.549999,3.116 L93.399999,11.18 C93.007999,12.174 92.377999,13.168 91.145999,13.168 C90.473999,13.168 89.885999,12.902 89.339999,12.524 Z M106.927999,13 L106.927999,3.116 L112.765999,3.116 L112.765999,4.32 L108.313999,4.32 L108.313999,7.078 L110.483999,7.078 C112.219999,7.078 113.493999,8.156 113.493999,10.06 C113.493999,11.824 112.275999,13 110.553999,13 L106.927999,13 Z M108.313999,11.796 L110.329999,11.796 C111.435999,11.796 112.093999,11.138 112.093999,10.06 C112.093999,8.968 111.393999,8.282 110.301999,8.282 L108.313999,8.282 L108.313999,11.796 Z" id="Турклуб-Copy-3" fill="#FD5930"></path>
            </g>
            <rect id="Rectangle-29-Copy" fill="#BCBCBC" opacity="0" x="0" y="0" width="158" height="61"></rect>
        </g>
    </g>
</svg>