<svg width="23" height="23" viewBox="0 0 23 23" fill="none" xmlns="http://www.w3.org/2000/svg">
<rect width="23" height="23" fill="#E5E5E5"/>
<rect x="-718.5" y="-1618.5" width="3767" height="3285" stroke="black" stroke-width="117"/>
<g clip-path="url(#clip0_103_17193)">
<rect width="1440" height="1024" transform="translate(-131 -152)" fill="white"/>
<path d="M12.889 15.1575L12.8875 15.1567C12.7269 15.0764 12.5805 15.0031 12.4565 14.9262C11.1535 14.0985 9.96759 13.019 8.8284 11.6194C8.29773 10.9486 7.93703 10.3829 7.67314 9.81549C7.98385 9.52822 8.27548 9.23228 8.55751 8.94607C8.58935 8.91376 8.62106 8.88159 8.65266 8.84956C8.71508 8.78713 8.77745 8.72365 8.83945 8.66054L8.83948 8.66051C8.90167 8.59721 8.9635 8.53428 9.02528 8.4725C9.50688 7.99089 9.75365 7.43161 9.75365 6.86602C9.75365 6.30043 9.50688 5.74114 9.02528 5.25953L7.81352 4.04778C7.67572 3.90998 7.53484 3.76908 7.40297 3.62843L7.40298 3.62842L7.40188 3.62728C7.13571 3.35223 6.85489 3.06691 6.56465 2.79892C6.11811 2.35753 5.57924 2.11875 5.00861 2.11875C4.43772 2.11875 3.88997 2.35773 3.43021 2.79909L3.4302 2.79908L3.42876 2.80052L3.42432 2.80496L3.41988 2.8094L3.41957 2.80971L1.91074 4.33186C1.91068 4.33191 1.91063 4.33197 1.91057 4.33202C1.32594 4.91673 0.991733 5.63101 0.918653 6.45773L0.9186 6.45835C0.810205 7.77716 1.19855 9.0016 1.49265 9.79478C2.21633 11.7469 3.29689 13.5543 4.9051 15.4877L4.90531 15.4879C6.85831 17.82 9.2087 19.662 11.8938 20.96L11.8945 20.9603C12.9178 21.4453 14.2947 22.0249 15.8369 22.1238L15.8386 22.1239C15.9315 22.1283 16.0315 22.1329 16.123 22.1329C17.1751 22.1329 18.0633 21.7536 18.7576 20.9999L18.7672 20.9895L18.7686 20.9867C18.7703 20.9849 18.7722 20.9827 18.7741 20.9805C18.777 20.9772 18.7802 20.9731 18.7834 20.9682C18.9923 20.7159 19.2309 20.4851 19.487 20.2375C19.5072 20.218 19.5275 20.1984 19.5478 20.1787C19.7391 19.9963 19.9355 19.8044 20.1277 19.6032C20.5822 19.1304 20.8259 18.5738 20.8259 17.9982C20.8259 17.4175 20.5773 16.8648 20.1129 16.4049C20.1128 16.4048 20.1128 16.4047 20.1127 16.4046L17.6776 13.9607C17.6774 13.9605 17.6772 13.9603 17.677 13.9601C17.2306 13.4955 16.6865 13.242 16.1052 13.242C15.5286 13.242 14.9805 13.4909 14.5166 13.9547C14.5166 13.9548 14.5165 13.9548 14.5165 13.9548L13.1663 15.3008C13.1109 15.2716 13.0556 15.2432 13.0014 15.2154C12.9632 15.1958 12.9256 15.1765 12.889 15.1575ZM19.2596 18.6327C19.2394 18.656 19.2182 18.6793 19.1958 18.7026L19.1945 18.7013V18.6059C19.2026 18.6061 19.2117 18.6074 19.2212 18.6104C19.234 18.6144 19.2476 18.6215 19.2596 18.6327ZM19.1119 18.6445C19.1106 18.6461 19.1092 18.6481 19.1076 18.6505C18.9718 18.7959 18.8331 18.9306 18.6852 19.0745C18.6518 19.1069 18.618 19.1398 18.5836 19.1734C18.2952 19.4485 17.9998 19.7393 17.7217 20.0666C17.2935 20.5237 16.7925 20.7389 16.1274 20.7389C16.0602 20.7389 15.9926 20.7388 15.9299 20.7347L15.9296 20.7347C14.6315 20.6516 13.4209 20.144 12.5044 19.7057C10.0053 18.4958 7.81068 16.7782 5.98651 14.6008C4.47865 12.7833 3.47314 11.1063 2.80761 9.30807L2.80751 9.3078C2.39789 8.21108 2.2514 7.36532 2.31635 6.57251C2.35877 6.0767 2.5483 5.66826 2.89994 5.31662L4.41239 3.80417C4.61807 3.61145 4.8252 3.51719 5.01749 3.51719C5.25699 3.51719 5.459 3.66278 5.59482 3.7986L5.60147 3.80526L5.60813 3.81192L5.60809 3.81196L5.61057 3.81427C5.8794 4.06547 6.13539 4.32585 6.40596 4.60529L6.40598 4.60531C6.4751 4.67666 6.54529 4.74796 6.61571 4.81949L6.61729 4.8211C6.68728 4.89219 6.7575 4.96352 6.82768 5.03589L6.82767 5.0359L6.82876 5.03699L8.04051 6.24874C8.26626 6.47448 8.36409 6.67688 8.36409 6.86602C8.36409 7.05516 8.26626 7.25755 8.04051 7.4833C7.99654 7.52727 7.95352 7.57079 7.91092 7.61389C7.82711 7.69868 7.74489 7.78187 7.66004 7.86379L7.66001 7.86376L7.65796 7.86586C7.2855 8.24718 6.93227 8.60036 6.54864 8.9443L6.54854 8.94419L6.5451 8.94764C6.54498 8.94774 6.5448 8.94789 6.54455 8.94811L6.54207 8.95015L6.53756 8.95393C6.53295 8.95788 6.52409 8.96565 6.51532 8.97747C6.31452 9.18105 6.2278 9.38763 6.20536 9.58151C6.18296 9.77498 6.22562 9.94749 6.26704 10.0786L6.26702 10.0786L6.26753 10.0802L6.27418 10.1001L6.28084 10.1201L6.28061 10.1202L6.28328 10.1266C6.60294 10.901 7.05237 11.6281 7.73083 12.4895L7.73028 12.49L7.73868 12.4984L7.73946 12.4991C8.96935 14.0135 10.2679 15.1962 11.7019 16.103C11.8882 16.2211 12.0783 16.3162 12.2547 16.4044L12.2566 16.4053C12.4174 16.4858 12.5639 16.5591 12.688 16.6361L12.6878 16.6365L12.696 16.6406C12.6999 16.6425 12.7046 16.6454 12.7144 16.6515L12.7156 16.6522C12.7237 16.6573 12.736 16.6651 12.7493 16.6717C12.9122 16.7531 13.0694 16.7932 13.2334 16.7932C13.6433 16.7932 13.8991 16.5374 13.9776 16.4588L13.9788 16.4576L15.4968 14.9396C15.6433 14.7932 15.8582 14.636 16.0963 14.636C16.3299 14.636 16.5314 14.7846 16.6616 14.9274L16.6615 14.9275L16.6648 14.9307L16.6663 14.9322L16.6674 14.9334C16.6697 14.9356 16.6657 14.9316 16.6679 14.9339L16.6684 14.9343L16.6688 14.9348C16.6705 14.9364 16.6676 14.9335 16.6692 14.9352L16.671 14.937L16.6722 14.9381L16.6737 14.9396L19.1194 17.3853L19.1197 17.3857C19.3367 17.6006 19.4331 17.8063 19.4335 18.0028C19.434 18.1968 19.3411 18.404 19.1322 18.6244C19.1253 18.6295 19.1183 18.6361 19.1119 18.6445Z" fill="#FD5930" stroke="#FD5930" stroke-width="0.2"/>
<path d="M17.7052 11.2404L17.7053 11.2404L17.7088 11.2399C18.0934 11.1775 18.3461 10.8141 18.2842 10.4327L18.2841 10.4319C18.0409 9.00426 17.3653 7.70271 16.3343 6.67175C15.3033 5.64079 14.0018 4.96514 12.5741 4.72194L12.5741 4.72194L12.5733 4.72181C12.1913 4.65986 11.8338 4.91313 11.7664 5.29124C11.6994 5.66791 11.9468 6.03717 12.3324 6.09987C13.4743 6.29169 14.5118 6.83206 15.3407 7.66095C16.1694 8.48964 16.7055 9.52715 16.9018 10.6695C16.959 11.0122 17.255 11.25 17.5908 11.25C17.6294 11.25 17.664 11.2456 17.6946 11.2417C17.6982 11.2413 17.7018 11.2408 17.7052 11.2404Z" fill="#FD5930" stroke="#FD5930" stroke-width="0.2"/>
<path d="M11.9369 1.47985L11.9369 1.47985L11.9367 1.48138C11.8746 1.86386 12.1284 2.22114 12.5107 2.28831L12.5113 2.28841C14.5589 2.63553 16.4266 3.60653 17.9124 5.08794C19.3982 6.57367 20.3648 8.44128 20.712 10.489L20.8104 10.4724L20.7119 10.4888C20.769 10.8315 21.0651 11.0695 21.4009 11.0695C21.4395 11.0695 21.4742 11.065 21.5048 11.0611C21.5084 11.0607 21.5119 11.0602 21.5154 11.0598L21.5154 11.0598L21.5179 11.0595C21.8979 11.0022 22.1571 10.6387 22.0897 10.2598C21.6911 7.92241 20.5894 5.79542 18.8972 4.10318C17.2049 2.41092 15.0779 1.30922 12.7405 0.91062C12.3602 0.8431 12.0039 1.10365 11.9369 1.47985Z" fill="#FD5930" stroke="#FD5930" stroke-width="0.2"/>
</g>
<defs>
<clipPath id="clip0_103_17193">
<rect width="1440" height="1024" fill="white" transform="translate(-131 -152)"/>
</clipPath>
</defs>
</svg>
