<svg width="40" height="40" viewBox="0 0 40 40" fill="none" xmlns="http://www.w3.org/2000/svg">
<path d="M40 19.9999C40 31.0456 31.0457 39.9999 20 39.9999C8.95431 39.9999 0 31.0456 0 19.9999C0 8.95418 8.95431 -0.00012207 20 -0.00012207C31.0457 -0.00012207 40 8.95418 40 19.9999Z" fill="white"/>
<path fill-rule="evenodd" clip-rule="evenodd" d="M23.1414 9.04819C23.1414 10.3632 22.0754 11.4291 20.7604 11.4291C19.4455 11.4291 18.3795 10.3632 18.3795 9.04819C18.3795 7.73322 19.4455 6.66724 20.7604 6.66724C22.0754 6.66724 23.1414 7.73322 23.1414 9.04819ZM17.3751 13.3624C17.4725 12.7414 17.9895 12.3679 18.367 12.4659L21.1067 13.1778C21.1314 13.1843 21.1549 13.1939 21.1774 13.2062C21.294 13.2423 21.4067 13.2955 21.5113 13.3662L24.9839 15.7287L26.9044 14.887V13.2413C26.9044 12.8569 27.2373 12.5452 27.6479 12.5452C28.0585 12.5452 28.3914 12.8569 28.3914 13.2413V14.2542C28.8601 14.1019 29.2873 14.0978 29.5601 14.5794C29.8351 15.0594 29.1046 15.6296 28.3914 16.0686V32.8436C28.3914 33.228 28.0585 33.5396 27.6479 33.5396C27.2373 33.5396 26.9044 33.228 26.9044 32.8436V16.9343C26.0179 17.4422 25.099 17.9624 25.099 17.9624C24.7027 18.1223 24.1614 17.9985 23.8094 17.7622L21.1152 15.9437L19.7335 21.231L23.3219 24.5521C23.8234 25.0297 23.7547 25.7736 23.6407 26.406C23.5267 27.0374 22.5869 31.516 22.5869 31.516C22.5105 31.8761 22.1873 33.2988 21.4533 33.2276C20.6674 33.1513 20.5943 32.4827 20.632 31.3293L21.1467 26.6536L16.4963 23.0045C16.4733 22.9827 16.4531 22.961 16.4354 22.9394C15.1942 21.8772 15.219 20.9193 15.5066 19.6259L17.3751 13.3624ZM14.5542 26.3445L15.0235 23.2855C15.329 24.2543 17.6504 25.6863 17.6504 25.6853L17.1777 27.1276C16.9383 27.5665 16.3804 28.3746 15.376 29.8295L15.376 29.8295C15.1173 30.2043 14.8289 30.6219 14.5088 31.0872C13.5767 32.4419 12.6867 33.1775 12.0247 32.8494C11.593 32.6348 11.8886 31.7774 12.5162 30.5879C13.3465 29.0177 14.5542 26.3445 14.5542 26.3445ZM14.1923 18.7682C14.4414 18.013 16.0842 13.261 16.0842 13.261C16.7251 11.2213 13.8005 11.6536 12.5197 12.8968C11.2389 14.141 9.76222 16.0754 9.54414 17.5322C9.34489 18.8693 10.619 19.349 11.8467 19.6988C13.0743 20.0475 13.9433 19.5234 14.1923 18.7682Z" fill="black"/>
</svg>
