<svg version="1" xmlns="http://www.w3.org/2000/svg" width="466.667" height="466.667" viewBox="0 0 350.000000 350.000000"><path d="M70.5 2.4C68 4.9 67.6 7 68 15.2c.1 2.1-.3 3.8-.9 3.8-.5 0-4.3-.7-8.3-1.6-13-2.8-13.5-2.8-16.3 0L40 19.9l.3 78.3c.3 84.2.2 82.1 5.4 83.1 1.3.2 6.3-.4 11.1-1.4 4.8-1 9.2-1.8 9.9-1.9.9 0 1.1 19.4 1.2 79.2v82.6c.1 2.6.6 3.5 2.9 4.3 3.2 1.2 22.4 1.3 26.7.1l3-.8.3-86.5.2-86.5 26.6-5.8c14.6-3.2 27.3-5.9 28.2-6 1.4-.1 1.6 1.6 1.7 12.6.1 7.1.4 13 .7 13.3.3.4 107.5-44.1 127.3-52.9 1.7-.7 6.2-2.6 10-4.1 8.4-3.4 10.2-5 11-9.3.8-5.1-2.2-7.3-16-11.6-6.6-2-16-5-21-6.6-24.7-7.8-73.5-23-77.2-24.1-2.7-.8-4.3-1.8-4.4-2.8 0-.9-.2-7.2-.4-14s-.7-12.6-.9-12.9c-.3-.2-2.7-.9-5.3-1.4-6.3-1.3-8.1-1.7-32.8-7.3-11.5-2.6-21.9-4.9-23-5.1-1.1-.2-7.1-1.5-13.2-3L101 26.8V16C101 .7 100.9.6 85.1.2 73.4-.2 73-.1 70.5 2.4z"/></svg>