<svg width="40" height="40" viewBox="0 0 40 40" fill="none" xmlns="http://www.w3.org/2000/svg">
<circle cx="20" cy="20" r="20" fill="white"/>
<path fill-rule="evenodd" clip-rule="evenodd" d="M15.913 28.6932C15.6202 28.4695 14.9483 27.8097 14.2145 27.2132C13.4808 26.6154 12.8335 26.2314 12.0219 25.9928C11.6168 25.8723 10.8077 25.8002 10.1172 25.9555C9.4279 26.1109 8.21241 26.7123 7.96289 28.4285C8.55581 27.8432 9.20062 27.5387 9.80219 27.4878C10.4062 27.4406 10.9794 27.617 11.5451 27.9103C12.1109 28.2036 14.0144 29.67 15.0446 30.4604C16.3169 31.4346 17.6053 32.1815 18.9814 32.7904C19.7732 33.1396 20.8849 33.3335 21.6261 33.3335C22.5327 33.3335 23.2282 33.198 23.9224 32.7121C22.1276 32.732 20.4489 31.8969 19.0592 31.0432C17.8005 30.269 16.9938 29.6451 15.913 28.6932Z" fill="black"/>
<path fill-rule="evenodd" clip-rule="evenodd" d="M33.3305 17.5423L30.2159 16.0737L28.4748 16.3681L28.4552 16.438L12.9235 10.0253L12.9443 9.95166L11.7521 8.22664L8.662 6.66663C7.72343 8.39419 7.78715 9.78284 7.78715 9.78284L10.8773 11.3429L12.6221 11.0991L12.6331 11.0585L14.389 11.7833C14.3301 12.0473 14.3473 12.3405 14.4625 12.5931C14.4637 12.5957 14.4649 12.5995 14.4649 12.5995L15.836 19.7001L15.379 22.8494C14.3828 22.3074 13.3107 21.9228 12.2006 21.8771C11.0354 21.8161 9.83091 22.1703 8.83966 22.9712C8.34587 23.3711 7.90477 23.861 7.53474 24.4246C7.16715 24.9869 6.85961 25.6165 6.66602 26.2956C7.39383 25.2319 8.28338 24.4678 9.21582 24.0438C10.1507 23.6173 11.126 23.5564 12.0732 23.7646C13.0228 23.9727 13.9479 24.4284 14.8374 25.0199C15.281 25.3182 15.7208 25.6394 16.1472 25.9986C16.5785 26.3489 17.0012 26.7234 17.4142 27.1258C17.6127 27.3149 17.8516 27.5434 18.0807 27.7477C18.3111 27.9572 18.5426 28.1615 18.7804 28.3545C19.2582 28.7391 19.7483 29.1021 20.2605 29.4182C21.2836 30.0478 22.3912 30.539 23.5602 30.6634C24.1434 30.7281 24.7389 30.6964 25.3197 30.5428C25.9004 30.3879 26.4616 30.1087 26.9628 29.7114C27.4639 29.3141 27.9062 28.8064 28.2628 28.2225C28.6181 27.6411 28.9012 26.9912 29.0629 26.2981C28.3841 27.4177 27.5117 28.2263 26.5878 28.6337C25.6627 29.0475 24.6923 29.0475 23.755 28.7784C22.8152 28.5093 21.8999 27.9978 21.0238 27.3644C20.8805 27.2603 20.7396 27.1524 20.5974 27.0432L21.8337 21.8428L26.061 17.3735C26.0634 17.3735 26.0646 17.3735 26.0671 17.3684C26.2448 17.2249 26.3612 16.999 26.4077 16.7489L28.1807 17.4801L28.1672 17.5296L29.3876 19.2191L32.5023 20.6877C33.4163 18.9284 33.3305 17.5423 33.3305 17.5423ZM21.8717 19.2395C21.8656 19.2445 21.8607 19.2496 21.8558 19.2534C18.6198 22.2897 17.2255 17.5068 17.2255 17.5068L15.9769 12.4384L24.8443 16.1004L21.8717 19.2395Z" fill="black"/>
<path fill-rule="evenodd" clip-rule="evenodd" d="M19.7525 19.4871C20.8853 19.4871 21.8037 18.5686 21.8037 17.4358C21.8037 16.303 20.8853 15.3845 19.7525 15.3845C18.6197 15.3845 17.7012 16.303 17.7012 17.4358C17.7012 18.5686 18.6197 19.4871 19.7525 19.4871Z" fill="black"/>
</svg>
