<?xml version="1.0" encoding="UTF-8"?>
<svg width="20px" height="18px" viewBox="0 0 20 18" version="1.1" xmlns="http://www.w3.org/2000/svg" xmlns:xlink="http://www.w3.org/1999/xlink">
    <title>icons8-телеграмма-app</title>
    <g id="Page-1" stroke="none" stroke-width="1" fill="none" fill-rule="evenodd">
        <g id="icons8-телеграмма-app" transform="translate(1.249612, 0.759868)">
            <path d="M16.8761382,0.101881513 C16.3256382,0.319381513 0.700138219,6.90738151 0.700138219,6.90738151 C0.700138219,6.90738151 -0.0566117806,7.16613151 0.00338821939,7.64388151 C0.0633882194,8.12163151 0.680638219,8.34063151 0.680638219,8.34063151 L4.70213822,9.69438151 C4.70213822,9.69438151 5.91638822,13.6761315 6.15563822,14.4321315 C6.39488822,15.1888815 6.58613822,15.2068815 6.58613822,15.2068815 C6.80813822,15.3036315 7.01138822,15.1491315 7.01138822,15.1491315 L9.61013822,12.7798815 L13.6608882,15.8856315 C14.7558882,16.3633815 15.1541382,15.3681315 15.1541382,15.3681315 L17.9448882,1.07013151 C18.1923882,-0.0368684872 17.4573882,-0.126868487 16.8761382,0.101881513 Z" id="Path" stroke="#FF6640" stroke-width="1.5"></path>
            <path d="M14.8946382,3.56313151 C14.9148882,3.22488151 14.4431382,3.46638151 14.4431382,3.46638151 L4.61963822,9.55113151 C4.61963822,9.55113151 5.91638822,13.6761315 6.15563822,14.4328815 C6.39413822,15.1896315 6.72113822,15.3186315 6.72113822,15.3186315 L7.45463822,10.6506315 C7.45463822,10.6506315 14.3973882,4.18038151 14.6958882,3.90138151 C14.9943882,3.62313151 14.8946382,3.56313151 14.8946382,3.56313151 Z" id="Path" fill="#FF6640" fill-rule="nonzero"></path>
        </g>
    </g>
</svg>