<svg width="40" height="40" viewBox="0 0 40 40" fill="none" xmlns="http://www.w3.org/2000/svg">
<circle cx="20" cy="20" r="20" fill="white"/>
<g clip-path="url(#clip0_1138_8011)">
<path d="M21.2822 10.8876C22.4476 10.8876 23.3935 9.94269 23.3935 8.77683C23.3936 7.61156 22.4476 6.66663 21.2822 6.66663C20.1169 6.66663 19.1719 7.61156 19.1719 8.77688C19.1719 9.94269 20.1169 10.8876 21.2822 10.8876Z" fill="black"/>
<path d="M23.5158 25.4874L20.9828 23.1622L21.0952 22.3065L17.3213 22.0748C17.0965 22.4202 16.7846 22.855 16.3952 23.3194L15.3625 27.2205L12.4035 31.196C11.9625 31.7889 12.0846 32.6271 12.6779 33.0685C12.9176 33.247 13.1982 33.3333 13.4761 33.3333C13.8846 33.3333 14.2873 33.1469 14.5504 32.794L17.6637 28.6115C17.7657 28.4747 17.8407 28.3197 17.8842 28.1549L18.7798 24.7729L21.2319 27.0239L20.8973 31.9034C20.8467 32.641 21.4026 33.2797 22.1408 33.3302C22.1712 33.3324 22.2025 33.3333 22.2339 33.3333C22.9309 33.3333 23.5192 32.7927 23.5671 32.0864L23.9462 26.5648C23.9741 26.1592 23.8155 25.7624 23.5158 25.4874Z" fill="black"/>
<path d="M28.1423 16.5479H24.3711L22.2442 13.5284L22.2512 13.4769C22.3269 12.9 22.1701 12.3167 21.8153 11.8553C21.4608 11.394 20.9379 11.0925 20.3612 11.0167C19.7224 10.9335 19.1168 11.1391 18.6621 11.5247V9.01258C18.6621 8.58043 18.3118 8.22974 17.8787 8.22974H15.709C15.276 8.22974 14.9256 8.58043 14.9256 9.01258V10.232H14.2774C13.8149 10.232 13.3816 10.4613 13.1212 10.8442C12.8607 11.2271 12.8067 11.7141 12.9766 12.1451L14.9256 17.0934V18.3172C14.9256 18.918 15.1723 19.4552 15.5654 19.8486C15.8372 19.5209 16.2518 19.3253 16.6711 19.3532L21.4424 19.6465L21.8162 16.7946L22.881 18.3055C23.0901 18.6021 23.43 18.7786 23.7926 18.7786H28.1423C28.7584 18.7786 29.2574 18.2793 29.2574 17.6634C29.2574 17.0472 28.7584 16.5479 28.1423 16.5479Z" fill="black"/>
<path d="M16.9606 21.3822L21.3914 21.6545C21.7748 21.6841 22.0781 21.3965 22.1006 21.0274C22.1234 20.6585 21.8428 20.3413 21.4734 20.3187L16.6303 20.0212C16.3602 20.0024 16.1146 20.1479 15.9944 20.3841C15.8846 20.5979 13.2594 25.5999 8.26202 24.8967C7.90314 24.8479 7.55804 25.1001 7.5066 25.466C7.45521 25.832 7.70958 26.1705 8.07563 26.2219C8.46339 26.2764 8.83892 26.3021 9.20125 26.3021C13.5738 26.3017 16.2078 22.6077 16.9606 21.3822Z" fill="black"/>
<path d="M32.3447 20.2049C31.5785 19.6773 30.3838 19.1872 28.7594 19.2089C26.8487 19.2344 25.064 20.7037 25.0316 20.7395C24.7014 21.1077 24.732 21.674 25.1005 22.0043C25.4681 22.335 26.0346 22.304 26.3648 21.936L26.3709 21.929C26.3709 21.929 27.4211 20.829 28.3541 20.5862L28.0405 32.2138C28.0405 32.2303 28.0405 32.2503 28.0405 32.2673C28.056 32.8167 28.5126 33.2497 29.0616 33.235C29.6114 33.2201 30.0444 32.7632 30.0304 32.2138L29.7099 20.2969C31.1789 20.3208 32.0661 20.7784 32.0661 20.7784C32.2088 20.8342 32.3754 20.7796 32.4562 20.6437C32.547 20.4916 32.4902 20.305 32.3447 20.2049Z" fill="black"/>
</g>
<defs>
<clipPath id="clip0_1138_8011">
<rect width="26.6667" height="26.6667" fill="white" transform="translate(6.66602 6.66663)"/>
</clipPath>
</defs>
</svg>
